{
	"asset":{
		"copyright":"Eibriel",
		"generator":"Khronos glTF Blender I/O v4.3.47",
		"version":"2.0"
	},
	"extensionsUsed":[
		"KHR_materials_unlit",
		"KHR_materials_emissive_strength",
		"KHR_materials_specular",
		"KHR_materials_ior"
	],
	"scene":0,
	"scenes":[
		{
			"name":"Scene",
			"nodes":[
				0,
				1,
				2,
				55,
				56,
				57,
				58,
				59
			]
		}
	],
	"nodes":[
		{
			"mesh":0,
			"name":"Suelo"
		},
		{
			"mesh":1,
			"name":"Paredes",
			"rotation":[
				0.4999999403953552,
				0.4999998211860657,
				0.5000000596046448,
				0.5000001788139343
			],
			"scale":[
				0.8201334476470947,
				1,
				1
			]
		},
		{
			"mesh":2,
			"name":"Techo",
			"rotation":[
				1,
				0,
				0,
				1.6292068494294654e-07
			],
			"translation":[
				0,
				4.050000190734863,
				0
			]
		},
		{
			"mesh":3,
			"name":"LampSquare"
		},
		{
			"children":[
				3
			],
			"name":"Lamp.001",
			"rotation":[
				0,
				-1,
				0,
				4.371138828673793e-08
			]
		},
		{
			"mesh":3,
			"name":"LampSquare"
		},
		{
			"children":[
				5
			],
			"name":"Lamp.001",
			"rotation":[
				0,
				-1,
				0,
				4.371138828673793e-08
			],
			"translation":[
				3.5999999046325684,
				0,
				0
			]
		},
		{
			"mesh":3,
			"name":"LampSquare"
		},
		{
			"children":[
				7
			],
			"name":"Lamp.001",
			"rotation":[
				0,
				-1,
				0,
				4.371138828673793e-08
			],
			"translation":[
				0,
				0,
				-3.8000011444091797
			]
		},
		{
			"mesh":3,
			"name":"LampSquare"
		},
		{
			"children":[
				9
			],
			"name":"Lamp.001",
			"rotation":[
				0,
				-1,
				0,
				4.371138828673793e-08
			],
			"translation":[
				3.5999999046325684,
				0,
				-3.8000011444091797
			]
		},
		{
			"mesh":3,
			"name":"LampSquare"
		},
		{
			"children":[
				11
			],
			"name":"Lamp.001",
			"rotation":[
				0,
				-1,
				0,
				4.371138828673793e-08
			],
			"translation":[
				0,
				0,
				-7.600000381469727
			]
		},
		{
			"mesh":3,
			"name":"LampSquare"
		},
		{
			"children":[
				13
			],
			"name":"Lamp.001",
			"rotation":[
				0,
				-1,
				0,
				4.371138828673793e-08
			],
			"translation":[
				3.5999999046325684,
				0,
				-7.600000381469727
			]
		},
		{
			"mesh":3,
			"name":"LampSquare"
		},
		{
			"children":[
				15
			],
			"name":"Lamp.001",
			"rotation":[
				0,
				-1,
				0,
				4.371138828673793e-08
			],
			"translation":[
				0,
				0,
				-11.399999618530273
			]
		},
		{
			"mesh":3,
			"name":"LampSquare"
		},
		{
			"children":[
				17
			],
			"name":"Lamp.001",
			"rotation":[
				0,
				-1,
				0,
				4.371138828673793e-08
			],
			"translation":[
				3.5999999046325684,
				0,
				-11.399999618530273
			]
		},
		{
			"mesh":3,
			"name":"LampSquare"
		},
		{
			"children":[
				19
			],
			"name":"Lamp.001",
			"rotation":[
				0,
				-1,
				0,
				4.371138828673793e-08
			],
			"translation":[
				0,
				0,
				-15.200000762939453
			]
		},
		{
			"mesh":3,
			"name":"LampSquare"
		},
		{
			"children":[
				21
			],
			"name":"Lamp.001",
			"rotation":[
				0,
				-1,
				0,
				4.371138828673793e-08
			],
			"translation":[
				3.5999999046325684,
				0,
				-15.200000762939453
			]
		},
		{
			"mesh":3,
			"name":"LampSquare"
		},
		{
			"children":[
				23
			],
			"name":"Lamp.001",
			"rotation":[
				0,
				-1,
				0,
				4.371138828673793e-08
			],
			"translation":[
				0,
				0,
				-19
			]
		},
		{
			"mesh":3,
			"name":"LampSquare"
		},
		{
			"children":[
				25
			],
			"name":"Lamp.001",
			"rotation":[
				0,
				-1,
				0,
				4.371138828673793e-08
			],
			"translation":[
				3.5999999046325684,
				0,
				-19
			]
		},
		{
			"mesh":3,
			"name":"LampSquare"
		},
		{
			"children":[
				27
			],
			"name":"Lamp.001",
			"rotation":[
				0,
				-1,
				0,
				4.371138828673793e-08
			],
			"translation":[
				0,
				0,
				-22.799999237060547
			]
		},
		{
			"mesh":3,
			"name":"LampSquare"
		},
		{
			"children":[
				29
			],
			"name":"Lamp.001",
			"rotation":[
				0,
				-1,
				0,
				4.371138828673793e-08
			],
			"translation":[
				3.5999999046325684,
				0,
				-22.799999237060547
			]
		},
		{
			"mesh":3,
			"name":"LampSquare"
		},
		{
			"children":[
				31
			],
			"name":"Lamp.001",
			"rotation":[
				0,
				-1,
				0,
				4.371138828673793e-08
			],
			"translation":[
				0,
				0,
				-26.599998474121094
			]
		},
		{
			"mesh":3,
			"name":"LampSquare"
		},
		{
			"children":[
				33
			],
			"name":"Lamp.001",
			"rotation":[
				0,
				-1,
				0,
				4.371138828673793e-08
			],
			"translation":[
				3.5999999046325684,
				0,
				-26.599998474121094
			]
		},
		{
			"mesh":3,
			"name":"LampSquare"
		},
		{
			"children":[
				35
			],
			"name":"Lamp.001",
			"rotation":[
				0,
				-1,
				0,
				4.371138828673793e-08
			],
			"translation":[
				0,
				0,
				-30.39999771118164
			]
		},
		{
			"mesh":3,
			"name":"LampSquare"
		},
		{
			"children":[
				37
			],
			"name":"Lamp.001",
			"rotation":[
				0,
				-1,
				0,
				4.371138828673793e-08
			],
			"translation":[
				3.5999999046325684,
				0,
				-30.39999771118164
			]
		},
		{
			"mesh":3,
			"name":"LampSquare"
		},
		{
			"children":[
				39
			],
			"name":"Lamp.001",
			"rotation":[
				0,
				-1,
				0,
				4.371138828673793e-08
			],
			"translation":[
				0,
				0,
				-34.19999694824219
			]
		},
		{
			"mesh":3,
			"name":"LampSquare"
		},
		{
			"children":[
				41
			],
			"name":"Lamp.001",
			"rotation":[
				0,
				-1,
				0,
				4.371138828673793e-08
			],
			"translation":[
				3.5999999046325684,
				0,
				-34.19999694824219
			]
		},
		{
			"mesh":3,
			"name":"LampSquare"
		},
		{
			"children":[
				43
			],
			"name":"Lamp.001",
			"rotation":[
				0,
				-1,
				0,
				4.371138828673793e-08
			],
			"translation":[
				0,
				0,
				-37.999996185302734
			]
		},
		{
			"mesh":3,
			"name":"LampSquare"
		},
		{
			"children":[
				45
			],
			"name":"Lamp.001",
			"rotation":[
				0,
				-1,
				0,
				4.371138828673793e-08
			],
			"translation":[
				3.5999999046325684,
				0,
				-37.999996185302734
			]
		},
		{
			"mesh":3,
			"name":"LampSquare"
		},
		{
			"children":[
				47
			],
			"name":"Lamp.001",
			"rotation":[
				0,
				-1,
				0,
				4.371138828673793e-08
			],
			"translation":[
				0,
				0,
				-41.79999542236328
			]
		},
		{
			"mesh":3,
			"name":"LampSquare"
		},
		{
			"children":[
				49
			],
			"name":"Lamp.001",
			"rotation":[
				0,
				-1,
				0,
				4.371138828673793e-08
			],
			"translation":[
				3.5999999046325684,
				0,
				-41.79999542236328
			]
		},
		{
			"mesh":3,
			"name":"LampSquare"
		},
		{
			"children":[
				51
			],
			"name":"Lamp.001",
			"rotation":[
				0,
				-1,
				0,
				4.371138828673793e-08
			],
			"translation":[
				0,
				0,
				-45.59999465942383
			]
		},
		{
			"mesh":3,
			"name":"LampSquare"
		},
		{
			"children":[
				53
			],
			"name":"Lamp.001",
			"rotation":[
				0,
				-1,
				0,
				4.371138828673793e-08
			],
			"translation":[
				3.5999999046325684,
				0,
				-45.59999465942383
			]
		},
		{
			"children":[
				4,
				6,
				8,
				10,
				12,
				14,
				16,
				18,
				20,
				22,
				24,
				26,
				28,
				30,
				32,
				34,
				36,
				38,
				40,
				42,
				44,
				46,
				48,
				50,
				52,
				54
			],
			"name":"LightInstancing",
			"translation":[
				-1.8012700080871582,
				4.028993606567383,
				22.64150047302246
			]
		},
		{
			"mesh":4,
			"name":"Puerta",
			"rotation":[
				0,
				-1,
				0,
				4.371138828673793e-08
			],
			"translation":[
				-4.222575664520264,
				0,
				-0.6397420167922974
			]
		},
		{
			"mesh":5,
			"name":"PuertaMarco",
			"rotation":[
				0,
				1,
				0,
				1.6292068494294654e-07
			],
			"translation":[
				-4.257907867431641,
				0,
				0
			]
		},
		{
			"mesh":6,
			"name":"Division.001",
			"translation":[
				0,
				0,
				-24.989999771118164
			]
		},
		{
			"mesh":7,
			"name":"Division.002",
			"translation":[
				0,
				0,
				24.989999771118164
			]
		}
	],
	"materials":[
		{
			"extensions":{
				"KHR_materials_unlit":{}
			},
			"name":"MI_umonbbqdy",
			"pbrMetallicRoughness":{
				"baseColorTexture":{
					"index":0
				},
				"metallicFactor":0,
				"roughnessFactor":0.9
			}
		},
		{
			"doubleSided":true,
			"extensions":{
				"KHR_materials_unlit":{}
			},
			"name":"Wall",
			"pbrMetallicRoughness":{
				"baseColorTexture":{
					"index":1
				},
				"metallicFactor":0,
				"roughnessFactor":0.9
			}
		},
		{
			"doubleSided":true,
			"extensions":{
				"KHR_materials_specular":{
					"specularFactor":0
				}
			},
			"name":"Slot",
			"pbrMetallicRoughness":{
				"baseColorFactor":[
					0.007457854226231575,
					0.0057046371512115,
					0.01665373519062996,
					1
				],
				"metallicFactor":0,
				"roughnessFactor":0.5
			}
		},
		{
			"doubleSided":true,
			"extensions":{
				"KHR_materials_specular":{
					"specularFactor":0
				}
			},
			"name":"PitchBlack",
			"pbrMetallicRoughness":{
				"baseColorFactor":[
					0,
					0,
					0,
					1
				],
				"metallicFactor":0
			}
		},
		{
			"doubleSided":true,
			"extensions":{
				"KHR_materials_unlit":{}
			},
			"name":"Celing",
			"pbrMetallicRoughness":{
				"baseColorTexture":{
					"index":2
				},
				"metallicFactor":0,
				"roughnessFactor":0.9
			}
		},
		{
			"doubleSided":true,
			"extensions":{
				"KHR_materials_specular":{
					"specularFactor":0.19090908765792847
				}
			},
			"name":"LightBase",
			"pbrMetallicRoughness":{
				"baseColorFactor":[
					0.2215656191110611,
					0.22627843916416168,
					0.3054123520851135,
					1
				],
				"metallicFactor":0,
				"roughnessFactor":0.4415584206581116
			}
		},
		{
			"doubleSided":true,
			"emissiveFactor":[
				1,
				1,
				1
			],
			"emissiveTexture":{
				"index":3
			},
			"extensions":{
				"KHR_materials_emissive_strength":{
					"emissiveStrength":5
				}
			},
			"name":"LightLight",
			"pbrMetallicRoughness":{
				"baseColorFactor":[
					0,
					0,
					0,
					1
				]
			}
		},
		{
			"doubleSided":true,
			"extensions":{
				"KHR_materials_specular":{
					"specularFactor":0
				},
				"KHR_materials_ior":{
					"ior":1.4500000476837158
				}
			},
			"name":"\u6750\u8d28.001",
			"normalTexture":{
				"index":4,
				"scale":0.20000000298023224
			},
			"pbrMetallicRoughness":{
				"baseColorTexture":{
					"index":5
				},
				"metallicRoughnessTexture":{
					"index":6
				}
			}
		},
		{
			"doubleSided":true,
			"extensions":{
				"KHR_materials_specular":{
					"specularFactor":0
				}
			},
			"name":"GoldDivision",
			"pbrMetallicRoughness":{
				"baseColorFactor":[
					0.8009468913078308,
					0.4095720946788788,
					0.13763655722141266,
					1
				],
				"roughnessFactor":0.331745982170105
			}
		}
	],
	"meshes":[
		{
			"name":"Plane",
			"primitives":[
				{
					"attributes":{
						"POSITION":0,
						"NORMAL":1,
						"TEXCOORD_0":2
					},
					"indices":3,
					"material":0
				}
			]
		},
		{
			"name":"OfficeWalls",
			"primitives":[
				{
					"attributes":{
						"POSITION":4,
						"NORMAL":5,
						"TEXCOORD_0":6
					},
					"indices":7,
					"material":1
				},
				{
					"attributes":{
						"POSITION":8,
						"NORMAL":9,
						"TEXCOORD_0":10
					},
					"indices":11,
					"material":2
				},
				{
					"attributes":{
						"POSITION":12,
						"NORMAL":13,
						"TEXCOORD_0":14
					},
					"indices":15,
					"material":3
				}
			]
		},
		{
			"name":"Plane.005",
			"primitives":[
				{
					"attributes":{
						"POSITION":16,
						"NORMAL":17,
						"TEXCOORD_0":18
					},
					"indices":3,
					"material":4
				}
			]
		},
		{
			"name":"LampSquare",
			"primitives":[
				{
					"attributes":{
						"POSITION":19,
						"NORMAL":20,
						"TEXCOORD_0":21
					},
					"indices":22,
					"material":5
				},
				{
					"attributes":{
						"POSITION":23,
						"NORMAL":24,
						"TEXCOORD_0":25
					},
					"indices":26,
					"material":6
				}
			]
		},
		{
			"name":"J1_a21.002",
			"primitives":[
				{
					"attributes":{
						"POSITION":27,
						"NORMAL":28,
						"TEXCOORD_0":29
					},
					"indices":30,
					"material":7
				}
			]
		},
		{
			"name":"J1_a21.001",
			"primitives":[
				{
					"attributes":{
						"POSITION":31,
						"NORMAL":32,
						"TEXCOORD_0":33
					},
					"indices":34,
					"material":7
				}
			]
		},
		{
			"name":"Cube",
			"primitives":[
				{
					"attributes":{
						"POSITION":35,
						"NORMAL":36,
						"TEXCOORD_0":37
					},
					"indices":38,
					"material":8
				}
			]
		},
		{
			"name":"Cube.002",
			"primitives":[
				{
					"attributes":{
						"POSITION":39,
						"NORMAL":40,
						"TEXCOORD_0":41
					},
					"indices":38,
					"material":8
				}
			]
		}
	],
	"textures":[
		{
			"sampler":0,
			"source":0
		},
		{
			"sampler":0,
			"source":0
		},
		{
			"sampler":0,
			"source":0
		},
		{
			"sampler":0,
			"source":1
		},
		{
			"sampler":0,
			"source":2
		},
		{
			"sampler":0,
			"source":3
		},
		{
			"sampler":0,
			"source":4
		}
	],
	"images":[
		{
			"mimeType":"image/png",
			"name":"WallsFloorRoof_Bake",
			"uri":"office_textures/WallsFloorRoof_Bake.png"
		},
		{
			"mimeType":"image/jpeg",
			"name":"fluorescent_light",
			"uri":"office_textures/fluorescent_light.jpg"
		},
		{
			"mimeType":"image/jpeg",
			"name":"door1_2_Normal",
			"uri":"office_textures/door1_2_Normal.jpg"
		},
		{
			"mimeType":"image/jpeg",
			"name":"door1_2_BaseColor",
			"uri":"office_textures/door1_2_BaseColor.jpg"
		},
		{
			"mimeType":"image/png",
			"name":"door1_2_Metallic-door1_2_Roughness",
			"uri":"office_textures/door1_2_Metallic-door1_2_Roughness.png"
		}
	],
	"accessors":[
		{
			"bufferView":0,
			"componentType":5126,
			"count":4,
			"max":[
				4.25,
				0,
				25
			],
			"min":[
				-4.25,
				0,
				-25
			],
			"type":"VEC3"
		},
		{
			"bufferView":1,
			"componentType":5126,
			"count":4,
			"type":"VEC3"
		},
		{
			"bufferView":2,
			"componentType":5126,
			"count":4,
			"type":"VEC2"
		},
		{
			"bufferView":3,
			"componentType":5123,
			"count":6,
			"type":"SCALAR"
		},
		{
			"bufferView":4,
			"componentType":5126,
			"count":114,
			"max":[
				4.999187469482422,
				25.33115577697754,
				8.50005054473877
			],
			"min":[
				-2.017969336520764e-06,
				-25.33099937438965,
				-8.499977111816406
			],
			"type":"VEC3"
		},
		{
			"bufferView":5,
			"componentType":5126,
			"count":114,
			"type":"VEC3"
		},
		{
			"bufferView":6,
			"componentType":5126,
			"count":114,
			"type":"VEC2"
		},
		{
			"bufferView":7,
			"componentType":5123,
			"count":258,
			"type":"SCALAR"
		},
		{
			"bufferView":8,
			"componentType":5126,
			"count":28,
			"max":[
				0.1204979419708252,
				25.000001907348633,
				4.2500505447387695
			],
			"min":[
				-1.0089800071000354e-06,
				-25.000001907348633,
				-4.249975204467773
			],
			"type":"VEC3"
		},
		{
			"bufferView":9,
			"componentType":5126,
			"count":28,
			"type":"VEC3"
		},
		{
			"bufferView":10,
			"componentType":5126,
			"count":28,
			"type":"VEC2"
		},
		{
			"bufferView":11,
			"componentType":5123,
			"count":42,
			"type":"SCALAR"
		},
		{
			"bufferView":12,
			"componentType":5126,
			"count":62,
			"max":[
				4.868226051330566,
				23.720247268676758,
				-4.249961853027344
			],
			"min":[
				-1.0089798934131977e-06,
				-23.680187225341797,
				-16.723770141601562
			],
			"type":"VEC3"
		},
		{
			"bufferView":13,
			"componentType":5126,
			"count":62,
			"type":"VEC3"
		},
		{
			"bufferView":14,
			"componentType":5126,
			"count":62,
			"type":"VEC2"
		},
		{
			"bufferView":15,
			"componentType":5123,
			"count":108,
			"type":"SCALAR"
		},
		{
			"bufferView":16,
			"componentType":5126,
			"count":4,
			"max":[
				4.25,
				6.5168273977178615e-06,
				25
			],
			"min":[
				-4.25,
				-6.5168273977178615e-06,
				-25
			],
			"type":"VEC3"
		},
		{
			"bufferView":17,
			"componentType":5126,
			"count":4,
			"type":"VEC3"
		},
		{
			"bufferView":18,
			"componentType":5126,
			"count":4,
			"type":"VEC2"
		},
		{
			"bufferView":19,
			"componentType":5126,
			"count":47,
			"max":[
				0.9918230175971985,
				0.01177126169204712,
				0.9918230175971985
			],
			"min":[
				-0.9918230175971985,
				-0.03900827467441559,
				-0.9918230175971985
			],
			"type":"VEC3"
		},
		{
			"bufferView":20,
			"componentType":5126,
			"count":47,
			"type":"VEC3"
		},
		{
			"bufferView":21,
			"componentType":5126,
			"count":47,
			"type":"VEC2"
		},
		{
			"bufferView":22,
			"componentType":5123,
			"count":150,
			"type":"SCALAR"
		},
		{
			"bufferView":23,
			"componentType":5126,
			"count":4,
			"max":[
				0.8628379702568054,
				-0.03900827467441559,
				0.8628379702568054
			],
			"min":[
				-0.8628379702568054,
				-0.03900827467441559,
				-0.8628379702568054
			],
			"type":"VEC3"
		},
		{
			"bufferView":24,
			"componentType":5126,
			"count":4,
			"type":"VEC3"
		},
		{
			"bufferView":25,
			"componentType":5126,
			"count":4,
			"type":"VEC2"
		},
		{
			"bufferView":26,
			"componentType":5123,
			"count":6,
			"type":"SCALAR"
		},
		{
			"bufferView":27,
			"componentType":5126,
			"count":1060,
			"max":[
				0.07245016098022461,
				2.5768814086914062,
				0.0015391111373901367
			],
			"min":[
				-0.06606483459472656,
				-2.384185791015625e-06,
				-1.2810231447219849
			],
			"type":"VEC3"
		},
		{
			"bufferView":28,
			"componentType":5126,
			"count":1060,
			"type":"VEC3"
		},
		{
			"bufferView":29,
			"componentType":5126,
			"count":1060,
			"type":"VEC2"
		},
		{
			"bufferView":30,
			"componentType":5123,
			"count":3024,
			"type":"SCALAR"
		},
		{
			"bufferView":31,
			"componentType":5126,
			"count":383,
			"max":[
				0.09857511520385742,
				2.7274694442749023,
				0.8047943115234375
			],
			"min":[
				-0.10486555099487305,
				-0.015270233154296875,
				-0.8026580810546875
			],
			"type":"VEC3"
		},
		{
			"bufferView":32,
			"componentType":5126,
			"count":383,
			"type":"VEC3"
		},
		{
			"bufferView":33,
			"componentType":5126,
			"count":383,
			"type":"VEC2"
		},
		{
			"bufferView":34,
			"componentType":5123,
			"count":846,
			"type":"SCALAR"
		},
		{
			"bufferView":35,
			"componentType":5126,
			"count":18,
			"max":[
				1,
				0.015409447252750397,
				0.022233689203858376
			],
			"min":[
				-1,
				0.0008645271882414818,
				-0.022233689203858376
			],
			"type":"VEC3"
		},
		{
			"bufferView":36,
			"componentType":5126,
			"count":18,
			"type":"VEC3"
		},
		{
			"bufferView":37,
			"componentType":5126,
			"count":18,
			"type":"VEC2"
		},
		{
			"bufferView":38,
			"componentType":5123,
			"count":30,
			"type":"SCALAR"
		},
		{
			"bufferView":39,
			"componentType":5126,
			"count":18,
			"max":[
				1,
				0.015409447252750397,
				0.022233689203858376
			],
			"min":[
				-1,
				0.0008645271882414818,
				-0.022233689203858376
			],
			"type":"VEC3"
		},
		{
			"bufferView":40,
			"componentType":5126,
			"count":18,
			"type":"VEC3"
		},
		{
			"bufferView":41,
			"componentType":5126,
			"count":18,
			"type":"VEC2"
		}
	],
	"bufferViews":[
		{
			"buffer":0,
			"byteLength":48,
			"byteOffset":0,
			"target":34962
		},
		{
			"buffer":0,
			"byteLength":48,
			"byteOffset":48,
			"target":34962
		},
		{
			"buffer":0,
			"byteLength":32,
			"byteOffset":96,
			"target":34962
		},
		{
			"buffer":0,
			"byteLength":12,
			"byteOffset":128,
			"target":34963
		},
		{
			"buffer":0,
			"byteLength":1368,
			"byteOffset":140,
			"target":34962
		},
		{
			"buffer":0,
			"byteLength":1368,
			"byteOffset":1508,
			"target":34962
		},
		{
			"buffer":0,
			"byteLength":912,
			"byteOffset":2876,
			"target":34962
		},
		{
			"buffer":0,
			"byteLength":516,
			"byteOffset":3788,
			"target":34963
		},
		{
			"buffer":0,
			"byteLength":336,
			"byteOffset":4304,
			"target":34962
		},
		{
			"buffer":0,
			"byteLength":336,
			"byteOffset":4640,
			"target":34962
		},
		{
			"buffer":0,
			"byteLength":224,
			"byteOffset":4976,
			"target":34962
		},
		{
			"buffer":0,
			"byteLength":84,
			"byteOffset":5200,
			"target":34963
		},
		{
			"buffer":0,
			"byteLength":744,
			"byteOffset":5284,
			"target":34962
		},
		{
			"buffer":0,
			"byteLength":744,
			"byteOffset":6028,
			"target":34962
		},
		{
			"buffer":0,
			"byteLength":496,
			"byteOffset":6772,
			"target":34962
		},
		{
			"buffer":0,
			"byteLength":216,
			"byteOffset":7268,
			"target":34963
		},
		{
			"buffer":0,
			"byteLength":48,
			"byteOffset":7484,
			"target":34962
		},
		{
			"buffer":0,
			"byteLength":48,
			"byteOffset":7532,
			"target":34962
		},
		{
			"buffer":0,
			"byteLength":32,
			"byteOffset":7580,
			"target":34962
		},
		{
			"buffer":0,
			"byteLength":564,
			"byteOffset":7612,
			"target":34962
		},
		{
			"buffer":0,
			"byteLength":564,
			"byteOffset":8176,
			"target":34962
		},
		{
			"buffer":0,
			"byteLength":376,
			"byteOffset":8740,
			"target":34962
		},
		{
			"buffer":0,
			"byteLength":300,
			"byteOffset":9116,
			"target":34963
		},
		{
			"buffer":0,
			"byteLength":48,
			"byteOffset":9416,
			"target":34962
		},
		{
			"buffer":0,
			"byteLength":48,
			"byteOffset":9464,
			"target":34962
		},
		{
			"buffer":0,
			"byteLength":32,
			"byteOffset":9512,
			"target":34962
		},
		{
			"buffer":0,
			"byteLength":12,
			"byteOffset":9544,
			"target":34963
		},
		{
			"buffer":0,
			"byteLength":12720,
			"byteOffset":9556,
			"target":34962
		},
		{
			"buffer":0,
			"byteLength":12720,
			"byteOffset":22276,
			"target":34962
		},
		{
			"buffer":0,
			"byteLength":8480,
			"byteOffset":34996,
			"target":34962
		},
		{
			"buffer":0,
			"byteLength":6048,
			"byteOffset":43476,
			"target":34963
		},
		{
			"buffer":0,
			"byteLength":4596,
			"byteOffset":49524,
			"target":34962
		},
		{
			"buffer":0,
			"byteLength":4596,
			"byteOffset":54120,
			"target":34962
		},
		{
			"buffer":0,
			"byteLength":3064,
			"byteOffset":58716,
			"target":34962
		},
		{
			"buffer":0,
			"byteLength":1692,
			"byteOffset":61780,
			"target":34963
		},
		{
			"buffer":0,
			"byteLength":216,
			"byteOffset":63472,
			"target":34962
		},
		{
			"buffer":0,
			"byteLength":216,
			"byteOffset":63688,
			"target":34962
		},
		{
			"buffer":0,
			"byteLength":144,
			"byteOffset":63904,
			"target":34962
		},
		{
			"buffer":0,
			"byteLength":60,
			"byteOffset":64048,
			"target":34963
		},
		{
			"buffer":0,
			"byteLength":216,
			"byteOffset":64108,
			"target":34962
		},
		{
			"buffer":0,
			"byteLength":216,
			"byteOffset":64324,
			"target":34962
		},
		{
			"buffer":0,
			"byteLength":144,
			"byteOffset":64540,
			"target":34962
		}
	],
	"samplers":[
		{
			"magFilter":9729,
			"minFilter":9987
		}
	],
	"buffers":[
		{
			"byteLength":64684,
			"uri":"office.bin"
		}
	]
}
