{
	"asset":{
		"copyright":"Eibriel",
		"generator":"Khronos glTF Blender I/O v4.3.47",
		"version":"2.0"
	},
	"extensionsUsed":[
		"KHR_materials_specular",
		"KHR_materials_ior"
	],
	"scene":0,
	"scenes":[
		{
			"name":"Scene",
			"nodes":[
				0,
				1,
				2,
				3,
				4
			]
		}
	],
	"nodes":[
		{
			"mesh":0,
			"name":"Executive_Office_Chair"
		},
		{
			"mesh":1,
			"name":"SM_Donut_01_low.001",
			"rotation":[
				0.5793684124946594,
				-0.4053790867328644,
				0.4053789973258972,
				0.5793686509132385
			],
			"scale":[
				0.009999999776482582,
				0.009999999776482582,
				0.009999999776482582
			],
			"translation":[
				0.28132396936416626,
				0.9462831020355225,
				0.6380094289779663
			]
		},
		{
			"mesh":2,
			"name":"Humano_Posed_0644985-Man_01_LOD1",
			"rotation":[
				-0.6718900799751282,
				0.22037187218666077,
				0.22037187218666077,
				0.6718900203704834
			],
			"scale":[
				1.233451247215271,
				1.233451247215271,
				1.233451247215271
			],
			"translation":[
				1.9754769802093506,
				0.21970157325267792,
				0.7800818085670471
			]
		},
		{
			"mesh":3,
			"name":"DeskLamp",
			"rotation":[
				0.6576026678085327,
				0.2599206566810608,
				-0.2599206864833832,
				0.6576026082038879
			],
			"translation":[
				-0.41814619302749634,
				1.092076301574707,
				0.8683788180351257
			]
		},
		{
			"mesh":4,
			"name":"Desk",
			"rotation":[
				0,
				-0.7071068286895752,
				0,
				0.7071067094802856
			],
			"translation":[
				0,
				0.47549429535865784,
				0.7042751908302307
			]
		}
	],
	"materials":[
		{
			"doubleSided":true,
			"extensions":{
				"KHR_materials_specular":{
					"specularFactor":0
				},
				"KHR_materials_ior":{
					"ior":1.4500000476837158
				}
			},
			"name":"Executive_Office_Chair",
			"normalTexture":{
				"index":0
			},
			"pbrMetallicRoughness":{
				"baseColorTexture":{
					"index":1
				},
				"metallicRoughnessTexture":{
					"index":2
				}
			}
		},
		{
			"doubleSided":true,
			"extensions":{
				"KHR_materials_specular":{
					"specularColorFactor":[
						2.0,
						2.0,
						2.0
					]
				}
			},
			"name":"low_mat",
			"pbrMetallicRoughness":{
				"baseColorTexture":{
					"index":3
				},
				"metallicFactor":0.5,
				"roughnessFactor":0.858578622341156
			}
		},
		{
			"doubleSided":true,
			"extensions":{
				"KHR_materials_specular":{
					"specularTexture":{
						"index":4
					}
				},
				"KHR_materials_ior":{
					"ior":1.4500000476837158
				}
			},
			"name":"Humano_Posed_0644985-Man_01_LOD1_4K",
			"normalTexture":{
				"index":5
			},
			"pbrMetallicRoughness":{
				"baseColorTexture":{
					"index":6
				},
				"metallicFactor":0,
				"metallicRoughnessTexture":{
					"index":7
				}
			}
		},
		{
			"doubleSided":true,
			"extensions":{
				"KHR_materials_specular":{
					"specularFactor":0
				},
				"KHR_materials_ior":{
					"ior":1.4500000476837158
				}
			},
			"name":"desk_lamp",
			"normalTexture":{
				"index":8
			},
			"pbrMetallicRoughness":{
				"baseColorTexture":{
					"index":9
				},
				"metallicRoughnessTexture":{
					"index":10
				}
			}
		},
		{
			"doubleSided":true,
			"extensions":{
				"KHR_materials_specular":{
					"specularFactor":0
				}
			},
			"name":"Tabletop_and_legs_material",
			"normalTexture":{
				"index":11
			},
			"occlusionTexture":{
				"index":12
			},
			"pbrMetallicRoughness":{
				"baseColorTexture":{
					"index":13
				},
				"metallicRoughnessTexture":{
					"index":12
				}
			}
		},
		{
			"doubleSided":true,
			"extensions":{
				"KHR_materials_specular":{
					"specularFactor":0
				}
			},
			"name":"Drawers",
			"normalTexture":{
				"index":14
			},
			"occlusionTexture":{
				"index":15
			},
			"pbrMetallicRoughness":{
				"baseColorTexture":{
					"index":16
				},
				"metallicRoughnessTexture":{
					"index":15
				}
			}
		},
		{
			"doubleSided":true,
			"extensions":{
				"KHR_materials_specular":{
					"specularFactor":0
				}
			},
			"name":"middle_section_material",
			"normalTexture":{
				"index":17
			},
			"occlusionTexture":{
				"index":18
			},
			"pbrMetallicRoughness":{
				"baseColorTexture":{
					"index":19
				},
				"metallicRoughnessTexture":{
					"index":18
				}
			}
		},
		{
			"doubleSided":true,
			"extensions":{
				"KHR_materials_specular":{
					"specularFactor":0
				}
			},
			"name":"Left_section_material",
			"normalTexture":{
				"index":20
			},
			"occlusionTexture":{
				"index":21
			},
			"pbrMetallicRoughness":{
				"baseColorTexture":{
					"index":22
				},
				"metallicRoughnessTexture":{
					"index":21
				}
			}
		},
		{
			"doubleSided":true,
			"extensions":{
				"KHR_materials_specular":{
					"specularFactor":0
				}
			},
			"name":"Right_section_material",
			"normalTexture":{
				"index":23
			},
			"occlusionTexture":{
				"index":24
			},
			"pbrMetallicRoughness":{
				"baseColorTexture":{
					"index":25
				},
				"metallicRoughnessTexture":{
					"index":24
				}
			}
		}
	],
	"meshes":[
		{
			"name":"Executive_Office_Chair",
			"primitives":[
				{
					"attributes":{
						"POSITION":0,
						"NORMAL":1,
						"TEXCOORD_0":2
					},
					"indices":3,
					"material":0
				}
			]
		},
		{
			"name":"Mesh.005",
			"primitives":[
				{
					"attributes":{
						"POSITION":4,
						"NORMAL":5,
						"TEXCOORD_0":6
					},
					"indices":7,
					"material":1
				}
			]
		},
		{
			"name":"Humano_Posed_0644985-Man_01_LOD1",
			"primitives":[
				{
					"attributes":{
						"POSITION":8,
						"NORMAL":9,
						"TEXCOORD_0":10,
						"COLOR_0":11,
						"COLOR_1":12
					},
					"indices":13,
					"material":2
				}
			]
		},
		{
			"name":"Cylinder.011",
			"primitives":[
				{
					"attributes":{
						"POSITION":14,
						"NORMAL":15,
						"TEXCOORD_0":16
					},
					"indices":17,
					"material":3
				}
			]
		},
		{
			"name":"defaultMaterial.056",
			"primitives":[
				{
					"attributes":{
						"POSITION":18,
						"NORMAL":19,
						"TEXCOORD_0":20
					},
					"indices":21,
					"material":4
				},
				{
					"attributes":{
						"POSITION":22,
						"NORMAL":23,
						"TEXCOORD_0":24
					},
					"indices":25,
					"material":5
				},
				{
					"attributes":{
						"POSITION":26,
						"NORMAL":27,
						"TEXCOORD_0":28
					},
					"indices":29,
					"material":6
				},
				{
					"attributes":{
						"POSITION":30,
						"NORMAL":31,
						"TEXCOORD_0":32
					},
					"indices":33,
					"material":7
				},
				{
					"attributes":{
						"POSITION":34,
						"NORMAL":35,
						"TEXCOORD_0":36
					},
					"indices":37,
					"material":8
				}
			]
		}
	],
	"textures":[
		{
			"sampler":0,
			"source":0
		},
		{
			"sampler":0,
			"source":1
		},
		{
			"sampler":0,
			"source":2
		},
		{
			"sampler":0,
			"source":3
		},
		{
			"sampler":0,
			"source":4
		},
		{
			"sampler":0,
			"source":5
		},
		{
			"sampler":0,
			"source":6
		},
		{
			"sampler":0,
			"source":7
		},
		{
			"sampler":0,
			"source":8
		},
		{
			"sampler":0,
			"source":9
		},
		{
			"sampler":0,
			"source":10
		},
		{
			"sampler":0,
			"source":11
		},
		{
			"sampler":0,
			"source":12
		},
		{
			"sampler":0,
			"source":13
		},
		{
			"sampler":0,
			"source":14
		},
		{
			"sampler":0,
			"source":15
		},
		{
			"sampler":0,
			"source":16
		},
		{
			"sampler":0,
			"source":17
		},
		{
			"sampler":0,
			"source":18
		},
		{
			"sampler":0,
			"source":19
		},
		{
			"sampler":0,
			"source":20
		},
		{
			"sampler":0,
			"source":21
		},
		{
			"sampler":0,
			"source":22
		},
		{
			"sampler":0,
			"source":23
		},
		{
			"sampler":0,
			"source":24
		},
		{
			"sampler":0,
			"source":25
		}
	],
	"images":[
		{
			"mimeType":"image/png",
			"name":"Chief_Chair_low_Chief_Chair_Normal",
			"uri":"office_textures/Chief_Chair_low_Chief_Chair_Normal.png"
		},
		{
			"mimeType":"image/png",
			"name":"Chief_Chair_low_Chief_Chair_BaseColor",
			"uri":"office_textures/Chief_Chair_low_Chief_Chair_BaseColor.png"
		},
		{
			"mimeType":"image/png",
			"name":"Chief_Chair_low_Chief_Chair_OcclusionRoughnessMetallic",
			"uri":"office_textures/Chief_Chair_low_Chief_Chair_OcclusionRoughnessMetallic.png"
		},
		{
			"mimeType":"image/jpeg",
			"name":"T_Donut_01_low_D",
			"uri":"office_textures/T_Donut_01_low_D.jpg"
		},
		{
			"mimeType":"image/jpeg",
			"name":"Humano_Posed_0644985-Man_Specular_4K",
			"uri":"office_textures/Humano_Posed_0644985-Man_Specular_4K.jpg"
		},
		{
			"mimeType":"image/jpeg",
			"name":"Humano_Posed_0644985-Man_Normal-LOD1_4K",
			"uri":"office_textures/Humano_Posed_0644985-Man_Normal-LOD1_4K.jpg"
		},
		{
			"mimeType":"image/jpeg",
			"name":"Humano_Posed_0644985-Man_Color01_4K",
			"uri":"office_textures/Humano_Posed_0644985-Man_Color01_4K.jpg"
		},
		{
			"mimeType":"image/png",
			"name":"Humano_Posed_0644985-Man_Roughness_4K",
			"uri":"office_textures/Humano_Posed_0644985-Man_Roughness_4K.png"
		},
		{
			"mimeType":"image/png",
			"name":"lamp_Normal",
			"uri":"office_textures/lamp_Normal.png"
		},
		{
			"mimeType":"image/png",
			"name":"lamp_Albedo",
			"uri":"office_textures/lamp_Albedo.png"
		},
		{
			"mimeType":"image/png",
			"name":"lamp_Metalness-bake_4k",
			"uri":"office_textures/lamp_Metalness-bake_4k.png"
		},
		{
			"mimeType":"image/jpeg",
			"name":"Tabletop_and_legs_material_normal",
			"uri":"office_textures/Tabletop_and_legs_material_normal.jpg"
		},
		{
			"mimeType":"image/png",
			"name":"Tabletop_and_legs_material_metallicRoughness",
			"uri":"office_textures/Tabletop_and_legs_material_metallicRoughness.png"
		},
		{
			"mimeType":"image/jpeg",
			"name":"Tabletop_and_legs_material_baseColor",
			"uri":"office_textures/Tabletop_and_legs_material_baseColor.jpg"
		},
		{
			"mimeType":"image/jpeg",
			"name":"Drawers_normal",
			"uri":"office_textures/Drawers_normal.jpg"
		},
		{
			"mimeType":"image/png",
			"name":"Drawers_metallicRoughness",
			"uri":"office_textures/Drawers_metallicRoughness.png"
		},
		{
			"mimeType":"image/jpeg",
			"name":"Drawers_baseColor",
			"uri":"office_textures/Drawers_baseColor.jpg"
		},
		{
			"mimeType":"image/jpeg",
			"name":"middle_section_material_normal",
			"uri":"office_textures/middle_section_material_normal.jpg"
		},
		{
			"mimeType":"image/png",
			"name":"middle_section_material_metallicRoughness",
			"uri":"office_textures/middle_section_material_metallicRoughness.png"
		},
		{
			"mimeType":"image/jpeg",
			"name":"middle_section_material_baseColor",
			"uri":"office_textures/middle_section_material_baseColor.jpg"
		},
		{
			"mimeType":"image/jpeg",
			"name":"Left_section_material_normal",
			"uri":"office_textures/Left_section_material_normal.jpg"
		},
		{
			"mimeType":"image/png",
			"name":"Left_section_material_metallicRoughness",
			"uri":"office_textures/Left_section_material_metallicRoughness.png"
		},
		{
			"mimeType":"image/jpeg",
			"name":"Left_section_material_baseColor",
			"uri":"office_textures/Left_section_material_baseColor.jpg"
		},
		{
			"mimeType":"image/jpeg",
			"name":"Right_section_material_normal",
			"uri":"office_textures/Right_section_material_normal.jpg"
		},
		{
			"mimeType":"image/png",
			"name":"Right_section_material_metallicRoughness",
			"uri":"office_textures/Right_section_material_metallicRoughness.png"
		},
		{
			"mimeType":"image/jpeg",
			"name":"Right_section_material_baseColor",
			"uri":"office_textures/Right_section_material_baseColor.jpg"
		}
	],
	"accessors":[
		{
			"bufferView":0,
			"componentType":5126,
			"count":8816,
			"max":[
				0.35885870456695557,
				1.1464768648147583,
				0.34979677200317383
			],
			"min":[
				-0.3580717146396637,
				-0.0003759798710234463,
				-0.48225823044776917
			],
			"type":"VEC3"
		},
		{
			"bufferView":1,
			"componentType":5126,
			"count":8816,
			"type":"VEC3"
		},
		{
			"bufferView":2,
			"componentType":5126,
			"count":8816,
			"type":"VEC2"
		},
		{
			"bufferView":3,
			"componentType":5123,
			"count":35409,
			"type":"SCALAR"
		},
		{
			"bufferView":4,
			"componentType":5126,
			"count":393,
			"max":[
				4.335391044616699,
				4.252943992614746,
				0.03272128105163574
			],
			"min":[
				-4.426604747772217,
				-4.166999816894531,
				-3.6507415771484375
			],
			"type":"VEC3"
		},
		{
			"bufferView":5,
			"componentType":5126,
			"count":393,
			"type":"VEC3"
		},
		{
			"bufferView":6,
			"componentType":5126,
			"count":393,
			"type":"VEC2"
		},
		{
			"bufferView":7,
			"componentType":5123,
			"count":1896,
			"type":"SCALAR"
		},
		{
			"bufferView":8,
			"componentType":5126,
			"count":17135,
			"max":[
				0.392751008272171,
				1.73511803150177,
				0.37489816546440125
			],
			"min":[
				-0.3456049859523773,
				-0.001650960766710341,
				-0.2122337520122528
			],
			"type":"VEC3"
		},
		{
			"bufferView":9,
			"componentType":5126,
			"count":17135,
			"type":"VEC3"
		},
		{
			"bufferView":10,
			"componentType":5126,
			"count":17135,
			"type":"VEC2"
		},
		{
			"bufferView":11,
			"componentType":5121,
			"count":17135,
			"normalized":true,
			"type":"VEC4"
		},
		{
			"bufferView":12,
			"componentType":5123,
			"count":17135,
			"normalized":true,
			"type":"VEC4"
		},
		{
			"bufferView":13,
			"componentType":5123,
			"count":89712,
			"type":"SCALAR"
		},
		{
			"bufferView":14,
			"componentType":5126,
			"count":2466,
			"max":[
				0.0655328631401062,
				0.07770770788192749,
				0.14099633693695068
			],
			"min":[
				-0.04918201267719269,
				-0.0867510661482811,
				-0.06336235255002975
			],
			"type":"VEC3"
		},
		{
			"bufferView":15,
			"componentType":5126,
			"count":2466,
			"type":"VEC3"
		},
		{
			"bufferView":16,
			"componentType":5126,
			"count":2466,
			"type":"VEC2"
		},
		{
			"bufferView":17,
			"componentType":5123,
			"count":9744,
			"type":"SCALAR"
		},
		{
			"bufferView":18,
			"componentType":5126,
			"count":2312,
			"max":[
				0.5018200278282166,
				0.47085100412368774,
				1
			],
			"min":[
				-0.5018200278282166,
				-0.47085100412368774,
				-1
			],
			"type":"VEC3"
		},
		{
			"bufferView":19,
			"componentType":5126,
			"count":2312,
			"type":"VEC3"
		},
		{
			"bufferView":20,
			"componentType":5126,
			"count":2312,
			"type":"VEC2"
		},
		{
			"bufferView":21,
			"componentType":5123,
			"count":8232,
			"type":"SCALAR"
		},
		{
			"bufferView":22,
			"componentType":5126,
			"count":19900,
			"max":[
				-0.4310149550437927,
				0.3548929989337921,
				0.9043310284614563
			],
			"min":[
				-0.4854479432106018,
				-0.32762598991394043,
				-0.9047380089759827
			],
			"type":"VEC3"
		},
		{
			"bufferView":23,
			"componentType":5126,
			"count":19900,
			"type":"VEC3"
		},
		{
			"bufferView":24,
			"componentType":5126,
			"count":19900,
			"type":"VEC2"
		},
		{
			"bufferView":25,
			"componentType":5123,
			"count":90096,
			"type":"SCALAR"
		},
		{
			"bufferView":26,
			"componentType":5126,
			"count":2730,
			"max":[
				0.43431204557418823,
				0.40622198581695557,
				0.36705899238586426
			],
			"min":[
				-0.4854479432106018,
				0.1278190016746521,
				-0.36705899238586426
			],
			"type":"VEC3"
		},
		{
			"bufferView":27,
			"componentType":5126,
			"count":2730,
			"type":"VEC3"
		},
		{
			"bufferView":28,
			"componentType":5126,
			"count":2730,
			"type":"VEC2"
		},
		{
			"bufferView":29,
			"componentType":5123,
			"count":12066,
			"type":"SCALAR"
		},
		{
			"bufferView":30,
			"componentType":5126,
			"count":715,
			"max":[
				0.4493720531463623,
				0.40622198581695557,
				-0.3564029932022095
			],
			"min":[
				-0.44937193393707275,
				-0.37870800495147705,
				-0.9475529789924622
			],
			"type":"VEC3"
		},
		{
			"bufferView":31,
			"componentType":5126,
			"count":715,
			"type":"VEC3"
		},
		{
			"bufferView":32,
			"componentType":5126,
			"count":715,
			"type":"VEC2"
		},
		{
			"bufferView":33,
			"componentType":5123,
			"count":1950,
			"type":"SCALAR"
		},
		{
			"bufferView":34,
			"componentType":5126,
			"count":714,
			"max":[
				0.4493720531463623,
				0.40622198581695557,
				0.9475529789924622
			],
			"min":[
				-0.44937193393707275,
				-0.37870800495147705,
				0.3564029932022095
			],
			"type":"VEC3"
		},
		{
			"bufferView":35,
			"componentType":5126,
			"count":714,
			"type":"VEC3"
		},
		{
			"bufferView":36,
			"componentType":5126,
			"count":714,
			"type":"VEC2"
		},
		{
			"bufferView":37,
			"componentType":5123,
			"count":1950,
			"type":"SCALAR"
		}
	],
	"bufferViews":[
		{
			"buffer":0,
			"byteLength":105792,
			"byteOffset":0,
			"target":34962
		},
		{
			"buffer":0,
			"byteLength":105792,
			"byteOffset":105792,
			"target":34962
		},
		{
			"buffer":0,
			"byteLength":70528,
			"byteOffset":211584,
			"target":34962
		},
		{
			"buffer":0,
			"byteLength":70818,
			"byteOffset":282112,
			"target":34963
		},
		{
			"buffer":0,
			"byteLength":4716,
			"byteOffset":352932,
			"target":34962
		},
		{
			"buffer":0,
			"byteLength":4716,
			"byteOffset":357648,
			"target":34962
		},
		{
			"buffer":0,
			"byteLength":3144,
			"byteOffset":362364,
			"target":34962
		},
		{
			"buffer":0,
			"byteLength":3792,
			"byteOffset":365508,
			"target":34963
		},
		{
			"buffer":0,
			"byteLength":205620,
			"byteOffset":369300,
			"target":34962
		},
		{
			"buffer":0,
			"byteLength":205620,
			"byteOffset":574920,
			"target":34962
		},
		{
			"buffer":0,
			"byteLength":137080,
			"byteOffset":780540,
			"target":34962
		},
		{
			"buffer":0,
			"byteLength":68540,
			"byteOffset":917620,
			"target":34962
		},
		{
			"buffer":0,
			"byteLength":137080,
			"byteOffset":986160,
			"target":34962
		},
		{
			"buffer":0,
			"byteLength":179424,
			"byteOffset":1123240,
			"target":34963
		},
		{
			"buffer":0,
			"byteLength":29592,
			"byteOffset":1302664,
			"target":34962
		},
		{
			"buffer":0,
			"byteLength":29592,
			"byteOffset":1332256,
			"target":34962
		},
		{
			"buffer":0,
			"byteLength":19728,
			"byteOffset":1361848,
			"target":34962
		},
		{
			"buffer":0,
			"byteLength":19488,
			"byteOffset":1381576,
			"target":34963
		},
		{
			"buffer":0,
			"byteLength":27744,
			"byteOffset":1401064,
			"target":34962
		},
		{
			"buffer":0,
			"byteLength":27744,
			"byteOffset":1428808,
			"target":34962
		},
		{
			"buffer":0,
			"byteLength":18496,
			"byteOffset":1456552,
			"target":34962
		},
		{
			"buffer":0,
			"byteLength":16464,
			"byteOffset":1475048,
			"target":34963
		},
		{
			"buffer":0,
			"byteLength":238800,
			"byteOffset":1491512,
			"target":34962
		},
		{
			"buffer":0,
			"byteLength":238800,
			"byteOffset":1730312,
			"target":34962
		},
		{
			"buffer":0,
			"byteLength":159200,
			"byteOffset":1969112,
			"target":34962
		},
		{
			"buffer":0,
			"byteLength":180192,
			"byteOffset":2128312,
			"target":34963
		},
		{
			"buffer":0,
			"byteLength":32760,
			"byteOffset":2308504,
			"target":34962
		},
		{
			"buffer":0,
			"byteLength":32760,
			"byteOffset":2341264,
			"target":34962
		},
		{
			"buffer":0,
			"byteLength":21840,
			"byteOffset":2374024,
			"target":34962
		},
		{
			"buffer":0,
			"byteLength":24132,
			"byteOffset":2395864,
			"target":34963
		},
		{
			"buffer":0,
			"byteLength":8580,
			"byteOffset":2419996,
			"target":34962
		},
		{
			"buffer":0,
			"byteLength":8580,
			"byteOffset":2428576,
			"target":34962
		},
		{
			"buffer":0,
			"byteLength":5720,
			"byteOffset":2437156,
			"target":34962
		},
		{
			"buffer":0,
			"byteLength":3900,
			"byteOffset":2442876,
			"target":34963
		},
		{
			"buffer":0,
			"byteLength":8568,
			"byteOffset":2446776,
			"target":34962
		},
		{
			"buffer":0,
			"byteLength":8568,
			"byteOffset":2455344,
			"target":34962
		},
		{
			"buffer":0,
			"byteLength":5712,
			"byteOffset":2463912,
			"target":34962
		},
		{
			"buffer":0,
			"byteLength":3900,
			"byteOffset":2469624,
			"target":34963
		}
	],
	"samplers":[
		{
			"magFilter":9729,
			"minFilter":9987
		}
	],
	"buffers":[
		{
			"byteLength":2473524,
			"uri":"office_executive.bin"
		}
	]
}
