{
	"asset":{
		"copyright":"Eibriel",
		"generator":"Khronos glTF Blender I/O v4.3.47",
		"version":"2.0"
	},
	"extensionsUsed":[
		"KHR_materials_specular",
		"KHR_materials_ior"
	],
	"scene":0,
	"scenes":[
		{
			"name":"Executive",
			"nodes":[
				0,
				1,
				2,
				3,
				4,
				5,
				6,
				7
			]
		}
	],
	"nodes":[
		{
			"mesh":0,
			"name":"Humano_Posed_0644985-Man_01_LOD1",
			"rotation":[
				-0.5938885807991028,
				0.38379210233688354,
				0.38379210233688354,
				0.593888521194458
			],
			"scale":[
				1.233451247215271,
				1.233451247215271,
				1.233451247215271
			],
			"translation":[
				2.991464614868164,
				0.22742122411727905,
				-1.8666036128997803
			]
		},
		{
			"mesh":1,
			"name":"StoneWall",
			"rotation":[
				0.707036554813385,
				0.009965211153030396,
				-0.009965210221707821,
				0.7070366144180298
			],
			"scale":[
				1.2053492069244385,
				1.2053492069244385,
				1.2053492069244385
			],
			"translation":[
				0.04198545590043068,
				1.1957459449768066,
				-1.647929310798645
			]
		},
		{
			"mesh":1,
			"name":"StoneWall.001",
			"rotation":[
				0.707036554813385,
				0.009965211153030396,
				-0.009965210221707821,
				0.7070366144180298
			],
			"scale":[
				1.2053492069244385,
				1.2053492069244385,
				1.2053492069244385
			],
			"translation":[
				0.04198545590043068,
				3.5679244995117188,
				-1.647929310798645
			]
		},
		{
			"mesh":2,
			"name":"Executive_Office_Chair",
			"rotation":[
				0,
				0.2523488700389862,
				0,
				0.9676363468170166
			],
			"translation":[
				-0.3282490074634552,
				0,
				-0.5013589859008789
			]
		},
		{
			"mesh":3,
			"name":"SM_Donut_01_low.001",
			"rotation":[
				0.5793684124946594,
				-0.4053790867328644,
				0.4053789973258972,
				0.5793686509132385
			],
			"scale":[
				0.009999999776482582,
				0.009999999776482582,
				0.009999999776482582
			],
			"translation":[
				0.28132396936416626,
				0.8595268726348877,
				0.6380094289779663
			]
		},
		{
			"mesh":4,
			"name":"DeskLamp",
			"rotation":[
				0.6576026678085327,
				0.2599206566810608,
				-0.2599206864833832,
				0.6576026082038879
			],
			"translation":[
				-0.41814619302749634,
				1.0053200721740723,
				0.8683788180351257
			]
		},
		{
			"mesh":5,
			"name":"Desk",
			"rotation":[
				0,
				-0.70710688829422,
				0,
				0.7071067094802856
			],
			"scale":[
				0.9156281352043152,
				0.9156280159950256,
				0.9156281352043152
			],
			"translation":[
				0,
				0.4336099922657013,
				0.5871019959449768
			]
		},
		{
			"mesh":6,
			"name":"TrashBin_Exe",
			"scale":[
				0.009999999776482582,
				0.009999999776482582,
				0.009999999776482582
			],
			"translation":[
				3.086758852005005,
				0,
				1.4832992553710938
			]
		}
	],
	"materials":[
		{
			"doubleSided":true,
			"extensions":{
				"KHR_materials_specular":{
					"specularTexture":{
						"index":0
					}
				},
				"KHR_materials_ior":{
					"ior":1.4500000476837158
				}
			},
			"name":"Humano_Posed_0644985-Man_01_LOD1_4K",
			"normalTexture":{
				"index":1
			},
			"pbrMetallicRoughness":{
				"baseColorTexture":{
					"index":2
				},
				"metallicFactor":0,
				"metallicRoughnessTexture":{
					"index":3
				}
			}
		},
		{
			"doubleSided":true,
			"name":"material",
			"normalTexture":{
				"index":4
			},
			"pbrMetallicRoughness":{
				"baseColorTexture":{
					"index":5
				},
				"metallicFactor":0,
				"roughnessFactor":0.5527864098548889
			}
		},
		{
			"doubleSided":true,
			"extensions":{
				"KHR_materials_specular":{
					"specularFactor":0
				},
				"KHR_materials_ior":{
					"ior":1.4500000476837158
				}
			},
			"name":"Executive_Office_Chair",
			"normalTexture":{
				"index":6
			},
			"pbrMetallicRoughness":{
				"baseColorTexture":{
					"index":7
				},
				"metallicRoughnessTexture":{
					"index":8
				}
			}
		},
		{
			"doubleSided":true,
			"extensions":{
				"KHR_materials_specular":{
					"specularColorFactor":[
						2.0,
						2.0,
						2.0
					]
				}
			},
			"name":"low_mat",
			"pbrMetallicRoughness":{
				"baseColorTexture":{
					"index":9
				},
				"metallicFactor":0.5,
				"roughnessFactor":0.858578622341156
			}
		},
		{
			"doubleSided":true,
			"extensions":{
				"KHR_materials_specular":{
					"specularFactor":0
				},
				"KHR_materials_ior":{
					"ior":1.4500000476837158
				}
			},
			"name":"desk_lamp",
			"normalTexture":{
				"index":10
			},
			"pbrMetallicRoughness":{
				"baseColorTexture":{
					"index":11
				},
				"metallicRoughnessTexture":{
					"index":12
				}
			}
		},
		{
			"doubleSided":true,
			"extensions":{
				"KHR_materials_specular":{
					"specularFactor":0
				}
			},
			"name":"Tabletop_and_legs_material",
			"normalTexture":{
				"index":13
			},
			"occlusionTexture":{
				"index":14
			},
			"pbrMetallicRoughness":{
				"baseColorTexture":{
					"index":15
				},
				"metallicRoughnessTexture":{
					"index":14
				}
			}
		},
		{
			"doubleSided":true,
			"extensions":{
				"KHR_materials_specular":{
					"specularFactor":0
				}
			},
			"name":"Drawers",
			"normalTexture":{
				"index":16
			},
			"occlusionTexture":{
				"index":17
			},
			"pbrMetallicRoughness":{
				"baseColorTexture":{
					"index":18
				},
				"metallicRoughnessTexture":{
					"index":17
				}
			}
		},
		{
			"doubleSided":true,
			"extensions":{
				"KHR_materials_specular":{
					"specularFactor":0
				}
			},
			"name":"middle_section_material",
			"normalTexture":{
				"index":19
			},
			"occlusionTexture":{
				"index":20
			},
			"pbrMetallicRoughness":{
				"baseColorTexture":{
					"index":21
				},
				"metallicRoughnessTexture":{
					"index":20
				}
			}
		},
		{
			"doubleSided":true,
			"extensions":{
				"KHR_materials_specular":{
					"specularFactor":0
				}
			},
			"name":"Left_section_material",
			"normalTexture":{
				"index":22
			},
			"occlusionTexture":{
				"index":23
			},
			"pbrMetallicRoughness":{
				"baseColorTexture":{
					"index":24
				},
				"metallicRoughnessTexture":{
					"index":23
				}
			}
		},
		{
			"doubleSided":true,
			"extensions":{
				"KHR_materials_specular":{
					"specularFactor":0
				}
			},
			"name":"Right_section_material",
			"normalTexture":{
				"index":25
			},
			"occlusionTexture":{
				"index":26
			},
			"pbrMetallicRoughness":{
				"baseColorTexture":{
					"index":27
				},
				"metallicRoughnessTexture":{
					"index":26
				}
			}
		},
		{
			"doubleSided":true,
			"extensions":{
				"KHR_materials_specular":{
					"specularColorFactor":[
						2.0,
						2.0,
						2.0
					]
				}
			},
			"name":"21 - Default",
			"normalTexture":{
				"index":28
			},
			"pbrMetallicRoughness":{
				"baseColorTexture":{
					"index":29
				},
				"metallicRoughnessTexture":{
					"index":30
				}
			}
		}
	],
	"meshes":[
		{
			"name":"Humano_Posed_0644985-Man_01_LOD1",
			"primitives":[
				{
					"attributes":{
						"POSITION":0,
						"NORMAL":1,
						"TEXCOORD_0":2,
						"COLOR_0":3,
						"COLOR_1":4
					},
					"indices":5,
					"material":0
				}
			]
		},
		{
			"name":"Mesh",
			"primitives":[
				{
					"attributes":{
						"POSITION":6,
						"NORMAL":7,
						"TEXCOORD_0":8
					},
					"indices":9,
					"material":1
				}
			]
		},
		{
			"name":"Executive_Office_Chair",
			"primitives":[
				{
					"attributes":{
						"POSITION":10,
						"NORMAL":11,
						"TEXCOORD_0":12
					},
					"indices":13,
					"material":2
				}
			]
		},
		{
			"name":"Mesh.005",
			"primitives":[
				{
					"attributes":{
						"POSITION":14,
						"NORMAL":15,
						"TEXCOORD_0":16
					},
					"indices":17,
					"material":3
				}
			]
		},
		{
			"name":"Cylinder.011",
			"primitives":[
				{
					"attributes":{
						"POSITION":18,
						"NORMAL":19,
						"TEXCOORD_0":20
					},
					"indices":21,
					"material":4
				}
			]
		},
		{
			"name":"defaultMaterial.056",
			"primitives":[
				{
					"attributes":{
						"POSITION":22,
						"NORMAL":23,
						"TEXCOORD_0":24
					},
					"indices":25,
					"material":5
				},
				{
					"attributes":{
						"POSITION":26,
						"NORMAL":27,
						"TEXCOORD_0":28
					},
					"indices":29,
					"material":6
				},
				{
					"attributes":{
						"POSITION":30,
						"NORMAL":31,
						"TEXCOORD_0":32
					},
					"indices":33,
					"material":7
				},
				{
					"attributes":{
						"POSITION":34,
						"NORMAL":35,
						"TEXCOORD_0":36
					},
					"indices":37,
					"material":8
				},
				{
					"attributes":{
						"POSITION":38,
						"NORMAL":39,
						"TEXCOORD_0":40
					},
					"indices":41,
					"material":9
				}
			]
		},
		{
			"name":"Mesh.004",
			"primitives":[
				{
					"attributes":{
						"POSITION":42,
						"NORMAL":43,
						"TEXCOORD_0":44,
						"TEXCOORD_1":45
					},
					"indices":46,
					"material":10
				}
			]
		}
	],
	"textures":[
		{
			"sampler":0,
			"source":0
		},
		{
			"sampler":0,
			"source":1
		},
		{
			"sampler":0,
			"source":2
		},
		{
			"sampler":0,
			"source":3
		},
		{
			"sampler":0,
			"source":4
		},
		{
			"sampler":0,
			"source":5
		},
		{
			"sampler":0,
			"source":6
		},
		{
			"sampler":0,
			"source":7
		},
		{
			"sampler":0,
			"source":8
		},
		{
			"sampler":0,
			"source":9
		},
		{
			"sampler":0,
			"source":10
		},
		{
			"sampler":0,
			"source":11
		},
		{
			"sampler":0,
			"source":12
		},
		{
			"sampler":0,
			"source":13
		},
		{
			"sampler":0,
			"source":14
		},
		{
			"sampler":0,
			"source":15
		},
		{
			"sampler":0,
			"source":16
		},
		{
			"sampler":0,
			"source":17
		},
		{
			"sampler":0,
			"source":18
		},
		{
			"sampler":0,
			"source":19
		},
		{
			"sampler":0,
			"source":20
		},
		{
			"sampler":0,
			"source":21
		},
		{
			"sampler":0,
			"source":22
		},
		{
			"sampler":0,
			"source":23
		},
		{
			"sampler":0,
			"source":24
		},
		{
			"sampler":0,
			"source":25
		},
		{
			"sampler":0,
			"source":26
		},
		{
			"sampler":0,
			"source":27
		},
		{
			"sampler":0,
			"source":28
		},
		{
			"sampler":0,
			"source":29
		},
		{
			"sampler":0,
			"source":30
		}
	],
	"images":[
		{
			"mimeType":"image/jpeg",
			"name":"Humano_Posed_0644985-Man_Specular_4K",
			"uri":"office_textures/Humano_Posed_0644985-Man_Specular_4K.jpg"
		},
		{
			"mimeType":"image/jpeg",
			"name":"Humano_Posed_0644985-Man_Normal-LOD1_4K",
			"uri":"office_textures/Humano_Posed_0644985-Man_Normal-LOD1_4K.jpg"
		},
		{
			"mimeType":"image/jpeg",
			"name":"Humano_Posed_0644985-Man_Color01_4K",
			"uri":"office_textures/Humano_Posed_0644985-Man_Color01_4K.jpg"
		},
		{
			"mimeType":"image/png",
			"name":"Humano_Posed_0644985-Man_Roughness_4K",
			"uri":"office_textures/Humano_Posed_0644985-Man_Roughness_4K.png"
		},
		{
			"mimeType":"image/jpeg",
			"name":"normal",
			"uri":"office_textures/normal.jpg"
		},
		{
			"mimeType":"image/jpeg",
			"name":"color",
			"uri":"office_textures/color.jpg"
		},
		{
			"mimeType":"image/png",
			"name":"Chief_Chair_low_Chief_Chair_Normal",
			"uri":"office_textures/Chief_Chair_low_Chief_Chair_Normal.png"
		},
		{
			"mimeType":"image/png",
			"name":"Chief_Chair_low_Chief_Chair_BaseColor",
			"uri":"office_textures/Chief_Chair_low_Chief_Chair_BaseColor.png"
		},
		{
			"mimeType":"image/png",
			"name":"Chief_Chair_low_Chief_Chair_OcclusionRoughnessMetallic",
			"uri":"office_textures/Chief_Chair_low_Chief_Chair_OcclusionRoughnessMetallic.png"
		},
		{
			"mimeType":"image/jpeg",
			"name":"T_Donut_01_low_D",
			"uri":"office_textures/T_Donut_01_low_D.jpg"
		},
		{
			"mimeType":"image/png",
			"name":"lamp_Normal",
			"uri":"office_textures/lamp_Normal.png"
		},
		{
			"mimeType":"image/png",
			"name":"lamp_Albedo",
			"uri":"office_textures/lamp_Albedo.png"
		},
		{
			"mimeType":"image/png",
			"name":"lamp_Metalness-bake_4k",
			"uri":"office_textures/lamp_Metalness-bake_4k.png"
		},
		{
			"mimeType":"image/jpeg",
			"name":"Tabletop_and_legs_material_normal",
			"uri":"office_textures/Tabletop_and_legs_material_normal.jpg"
		},
		{
			"mimeType":"image/png",
			"name":"Tabletop_and_legs_material_metallicRoughness",
			"uri":"office_textures/Tabletop_and_legs_material_metallicRoughness.png"
		},
		{
			"mimeType":"image/jpeg",
			"name":"Tabletop_and_legs_material_baseColor",
			"uri":"office_textures/Tabletop_and_legs_material_baseColor.jpg"
		},
		{
			"mimeType":"image/jpeg",
			"name":"Drawers_normal",
			"uri":"office_textures/Drawers_normal.jpg"
		},
		{
			"mimeType":"image/png",
			"name":"Drawers_metallicRoughness",
			"uri":"office_textures/Drawers_metallicRoughness.png"
		},
		{
			"mimeType":"image/jpeg",
			"name":"Drawers_baseColor",
			"uri":"office_textures/Drawers_baseColor.jpg"
		},
		{
			"mimeType":"image/jpeg",
			"name":"middle_section_material_normal",
			"uri":"office_textures/middle_section_material_normal.jpg"
		},
		{
			"mimeType":"image/png",
			"name":"middle_section_material_metallicRoughness",
			"uri":"office_textures/middle_section_material_metallicRoughness.png"
		},
		{
			"mimeType":"image/jpeg",
			"name":"middle_section_material_baseColor",
			"uri":"office_textures/middle_section_material_baseColor.jpg"
		},
		{
			"mimeType":"image/jpeg",
			"name":"Left_section_material_normal",
			"uri":"office_textures/Left_section_material_normal.jpg"
		},
		{
			"mimeType":"image/png",
			"name":"Left_section_material_metallicRoughness",
			"uri":"office_textures/Left_section_material_metallicRoughness.png"
		},
		{
			"mimeType":"image/jpeg",
			"name":"Left_section_material_baseColor",
			"uri":"office_textures/Left_section_material_baseColor.jpg"
		},
		{
			"mimeType":"image/jpeg",
			"name":"Right_section_material_normal",
			"uri":"office_textures/Right_section_material_normal.jpg"
		},
		{
			"mimeType":"image/png",
			"name":"Right_section_material_metallicRoughness",
			"uri":"office_textures/Right_section_material_metallicRoughness.png"
		},
		{
			"mimeType":"image/jpeg",
			"name":"Right_section_material_baseColor",
			"uri":"office_textures/Right_section_material_baseColor.jpg"
		},
		{
			"mimeType":"image/png",
			"name":"Map #1",
			"uri":"office_textures/Map%201.png"
		},
		{
			"mimeType":"image/png",
			"name":"Map #156",
			"uri":"office_textures/Map%20156.png"
		},
		{
			"mimeType":"image/png",
			"name":"Image",
			"uri":"office_textures/Image.png"
		}
	],
	"accessors":[
		{
			"bufferView":0,
			"componentType":5126,
			"count":9959,
			"max":[
				0.22789014875888824,
				1.1365070343017578,
				0.37489819526672363
			],
			"min":[
				-0.41036495566368103,
				-0.0016509294509887695,
				-0.212233766913414
			],
			"type":"VEC3"
		},
		{
			"bufferView":1,
			"componentType":5126,
			"count":9959,
			"type":"VEC3"
		},
		{
			"bufferView":2,
			"componentType":5126,
			"count":9959,
			"type":"VEC2"
		},
		{
			"bufferView":3,
			"componentType":5121,
			"count":9959,
			"normalized":true,
			"type":"VEC4"
		},
		{
			"bufferView":4,
			"componentType":5123,
			"count":9959,
			"normalized":true,
			"type":"VEC4"
		},
		{
			"bufferView":5,
			"componentType":5123,
			"count":49953,
			"type":"SCALAR"
		},
		{
			"bufferView":6,
			"componentType":5126,
			"count":10056,
			"max":[
				1.7308070659637451,
				0.11982700228691101,
				1.0013195276260376
			],
			"min":[
				-1.8078677654266357,
				-0.09542734175920486,
				-0.9704127907752991
			],
			"type":"VEC3"
		},
		{
			"bufferView":7,
			"componentType":5126,
			"count":10056,
			"type":"VEC3"
		},
		{
			"bufferView":8,
			"componentType":5126,
			"count":10056,
			"type":"VEC2"
		},
		{
			"bufferView":9,
			"componentType":5123,
			"count":55755,
			"type":"SCALAR"
		},
		{
			"bufferView":10,
			"componentType":5126,
			"count":8816,
			"max":[
				0.35885870456695557,
				1.1464768648147583,
				0.34979677200317383
			],
			"min":[
				-0.3580717146396637,
				-0.0003759798710234463,
				-0.48225823044776917
			],
			"type":"VEC3"
		},
		{
			"bufferView":11,
			"componentType":5126,
			"count":8816,
			"type":"VEC3"
		},
		{
			"bufferView":12,
			"componentType":5126,
			"count":8816,
			"type":"VEC2"
		},
		{
			"bufferView":13,
			"componentType":5123,
			"count":35409,
			"type":"SCALAR"
		},
		{
			"bufferView":14,
			"componentType":5126,
			"count":393,
			"max":[
				4.335391044616699,
				4.252943992614746,
				0.03272128105163574
			],
			"min":[
				-4.426604747772217,
				-4.166999816894531,
				-3.6507415771484375
			],
			"type":"VEC3"
		},
		{
			"bufferView":15,
			"componentType":5126,
			"count":393,
			"type":"VEC3"
		},
		{
			"bufferView":16,
			"componentType":5126,
			"count":393,
			"type":"VEC2"
		},
		{
			"bufferView":17,
			"componentType":5123,
			"count":1896,
			"type":"SCALAR"
		},
		{
			"bufferView":18,
			"componentType":5126,
			"count":2458,
			"max":[
				0.0655328631401062,
				0.07770770788192749,
				0.14099633693695068
			],
			"min":[
				-0.04918201267719269,
				-0.0867510661482811,
				-0.06336235255002975
			],
			"type":"VEC3"
		},
		{
			"bufferView":19,
			"componentType":5126,
			"count":2458,
			"type":"VEC3"
		},
		{
			"bufferView":20,
			"componentType":5126,
			"count":2458,
			"type":"VEC2"
		},
		{
			"bufferView":21,
			"componentType":5123,
			"count":9744,
			"type":"SCALAR"
		},
		{
			"bufferView":22,
			"componentType":5126,
			"count":2312,
			"max":[
				0.5018200278282166,
				0.47085100412368774,
				1
			],
			"min":[
				-0.5018200278282166,
				-0.47085100412368774,
				-1
			],
			"type":"VEC3"
		},
		{
			"bufferView":23,
			"componentType":5126,
			"count":2312,
			"type":"VEC3"
		},
		{
			"bufferView":24,
			"componentType":5126,
			"count":2312,
			"type":"VEC2"
		},
		{
			"bufferView":25,
			"componentType":5123,
			"count":8232,
			"type":"SCALAR"
		},
		{
			"bufferView":26,
			"componentType":5126,
			"count":19900,
			"max":[
				-0.4310149550437927,
				0.3548929989337921,
				0.9043310284614563
			],
			"min":[
				-0.4854479432106018,
				-0.32762598991394043,
				-0.9047380089759827
			],
			"type":"VEC3"
		},
		{
			"bufferView":27,
			"componentType":5126,
			"count":19900,
			"type":"VEC3"
		},
		{
			"bufferView":28,
			"componentType":5126,
			"count":19900,
			"type":"VEC2"
		},
		{
			"bufferView":29,
			"componentType":5123,
			"count":90096,
			"type":"SCALAR"
		},
		{
			"bufferView":30,
			"componentType":5126,
			"count":2730,
			"max":[
				0.43431204557418823,
				0.40622198581695557,
				0.36705899238586426
			],
			"min":[
				-0.4854479432106018,
				0.1278190016746521,
				-0.36705899238586426
			],
			"type":"VEC3"
		},
		{
			"bufferView":31,
			"componentType":5126,
			"count":2730,
			"type":"VEC3"
		},
		{
			"bufferView":32,
			"componentType":5126,
			"count":2730,
			"type":"VEC2"
		},
		{
			"bufferView":33,
			"componentType":5123,
			"count":12066,
			"type":"SCALAR"
		},
		{
			"bufferView":34,
			"componentType":5126,
			"count":715,
			"max":[
				0.4493720531463623,
				0.40622198581695557,
				-0.3564029932022095
			],
			"min":[
				-0.44937193393707275,
				-0.37870800495147705,
				-0.9475529789924622
			],
			"type":"VEC3"
		},
		{
			"bufferView":35,
			"componentType":5126,
			"count":715,
			"type":"VEC3"
		},
		{
			"bufferView":36,
			"componentType":5126,
			"count":715,
			"type":"VEC2"
		},
		{
			"bufferView":37,
			"componentType":5123,
			"count":1950,
			"type":"SCALAR"
		},
		{
			"bufferView":38,
			"componentType":5126,
			"count":714,
			"max":[
				0.4493720531463623,
				0.40622198581695557,
				0.9475529789924622
			],
			"min":[
				-0.44937193393707275,
				-0.37870800495147705,
				0.3564029932022095
			],
			"type":"VEC3"
		},
		{
			"bufferView":39,
			"componentType":5126,
			"count":714,
			"type":"VEC3"
		},
		{
			"bufferView":40,
			"componentType":5126,
			"count":714,
			"type":"VEC2"
		},
		{
			"bufferView":41,
			"componentType":5123,
			"count":1950,
			"type":"SCALAR"
		},
		{
			"bufferView":42,
			"componentType":5126,
			"count":12398,
			"max":[
				104.72962188720703,
				34.48652648925781,
				8.0101318359375
			],
			"min":[
				-71.71463775634766,
				-0.027856826782226562,
				-132.08193969726562
			],
			"type":"VEC3"
		},
		{
			"bufferView":43,
			"componentType":5126,
			"count":12398,
			"type":"VEC3"
		},
		{
			"bufferView":44,
			"componentType":5126,
			"count":12398,
			"type":"VEC2"
		},
		{
			"bufferView":45,
			"componentType":5126,
			"count":12398,
			"type":"VEC2"
		},
		{
			"bufferView":46,
			"componentType":5123,
			"count":48882,
			"type":"SCALAR"
		}
	],
	"bufferViews":[
		{
			"buffer":0,
			"byteLength":119508,
			"byteOffset":0,
			"target":34962
		},
		{
			"buffer":0,
			"byteLength":119508,
			"byteOffset":119508,
			"target":34962
		},
		{
			"buffer":0,
			"byteLength":79672,
			"byteOffset":239016,
			"target":34962
		},
		{
			"buffer":0,
			"byteLength":39836,
			"byteOffset":318688,
			"target":34962
		},
		{
			"buffer":0,
			"byteLength":79672,
			"byteOffset":358524,
			"target":34962
		},
		{
			"buffer":0,
			"byteLength":99906,
			"byteOffset":438196,
			"target":34963
		},
		{
			"buffer":0,
			"byteLength":120672,
			"byteOffset":538104,
			"target":34962
		},
		{
			"buffer":0,
			"byteLength":120672,
			"byteOffset":658776,
			"target":34962
		},
		{
			"buffer":0,
			"byteLength":80448,
			"byteOffset":779448,
			"target":34962
		},
		{
			"buffer":0,
			"byteLength":111510,
			"byteOffset":859896,
			"target":34963
		},
		{
			"buffer":0,
			"byteLength":105792,
			"byteOffset":971408,
			"target":34962
		},
		{
			"buffer":0,
			"byteLength":105792,
			"byteOffset":1077200,
			"target":34962
		},
		{
			"buffer":0,
			"byteLength":70528,
			"byteOffset":1182992,
			"target":34962
		},
		{
			"buffer":0,
			"byteLength":70818,
			"byteOffset":1253520,
			"target":34963
		},
		{
			"buffer":0,
			"byteLength":4716,
			"byteOffset":1324340,
			"target":34962
		},
		{
			"buffer":0,
			"byteLength":4716,
			"byteOffset":1329056,
			"target":34962
		},
		{
			"buffer":0,
			"byteLength":3144,
			"byteOffset":1333772,
			"target":34962
		},
		{
			"buffer":0,
			"byteLength":3792,
			"byteOffset":1336916,
			"target":34963
		},
		{
			"buffer":0,
			"byteLength":29496,
			"byteOffset":1340708,
			"target":34962
		},
		{
			"buffer":0,
			"byteLength":29496,
			"byteOffset":1370204,
			"target":34962
		},
		{
			"buffer":0,
			"byteLength":19664,
			"byteOffset":1399700,
			"target":34962
		},
		{
			"buffer":0,
			"byteLength":19488,
			"byteOffset":1419364,
			"target":34963
		},
		{
			"buffer":0,
			"byteLength":27744,
			"byteOffset":1438852,
			"target":34962
		},
		{
			"buffer":0,
			"byteLength":27744,
			"byteOffset":1466596,
			"target":34962
		},
		{
			"buffer":0,
			"byteLength":18496,
			"byteOffset":1494340,
			"target":34962
		},
		{
			"buffer":0,
			"byteLength":16464,
			"byteOffset":1512836,
			"target":34963
		},
		{
			"buffer":0,
			"byteLength":238800,
			"byteOffset":1529300,
			"target":34962
		},
		{
			"buffer":0,
			"byteLength":238800,
			"byteOffset":1768100,
			"target":34962
		},
		{
			"buffer":0,
			"byteLength":159200,
			"byteOffset":2006900,
			"target":34962
		},
		{
			"buffer":0,
			"byteLength":180192,
			"byteOffset":2166100,
			"target":34963
		},
		{
			"buffer":0,
			"byteLength":32760,
			"byteOffset":2346292,
			"target":34962
		},
		{
			"buffer":0,
			"byteLength":32760,
			"byteOffset":2379052,
			"target":34962
		},
		{
			"buffer":0,
			"byteLength":21840,
			"byteOffset":2411812,
			"target":34962
		},
		{
			"buffer":0,
			"byteLength":24132,
			"byteOffset":2433652,
			"target":34963
		},
		{
			"buffer":0,
			"byteLength":8580,
			"byteOffset":2457784,
			"target":34962
		},
		{
			"buffer":0,
			"byteLength":8580,
			"byteOffset":2466364,
			"target":34962
		},
		{
			"buffer":0,
			"byteLength":5720,
			"byteOffset":2474944,
			"target":34962
		},
		{
			"buffer":0,
			"byteLength":3900,
			"byteOffset":2480664,
			"target":34963
		},
		{
			"buffer":0,
			"byteLength":8568,
			"byteOffset":2484564,
			"target":34962
		},
		{
			"buffer":0,
			"byteLength":8568,
			"byteOffset":2493132,
			"target":34962
		},
		{
			"buffer":0,
			"byteLength":5712,
			"byteOffset":2501700,
			"target":34962
		},
		{
			"buffer":0,
			"byteLength":3900,
			"byteOffset":2507412,
			"target":34963
		},
		{
			"buffer":0,
			"byteLength":148776,
			"byteOffset":2511312,
			"target":34962
		},
		{
			"buffer":0,
			"byteLength":148776,
			"byteOffset":2660088,
			"target":34962
		},
		{
			"buffer":0,
			"byteLength":99184,
			"byteOffset":2808864,
			"target":34962
		},
		{
			"buffer":0,
			"byteLength":99184,
			"byteOffset":2908048,
			"target":34962
		},
		{
			"buffer":0,
			"byteLength":97764,
			"byteOffset":3007232,
			"target":34963
		}
	],
	"samplers":[
		{
			"magFilter":9729,
			"minFilter":9987
		}
	],
	"buffers":[
		{
			"byteLength":3104996,
			"uri":"office_executive.bin"
		}
	]
}
