{
	"asset":{
		"copyright":"Eibriel",
		"generator":"Khronos glTF Blender I/O v4.3.47",
		"version":"2.0"
	},
	"extensionsUsed":[
		"KHR_materials_specular"
	],
	"scene":0,
	"scenes":[
		{
			"name":"Scene",
			"nodes":[
				0,
				1,
				2,
				3,
				4
			]
		}
	],
	"nodes":[
		{
			"mesh":0,
			"name":"armchair",
			"rotation":[
				0,
				-0.7057753801345825,
				0,
				0.7084357142448425
			],
			"scale":[
				0.02499999850988388,
				0.02499999850988388,
				0.02499999850988388
			],
			"translation":[
				3.4776601791381836,
				0.5230638980865479,
				22.168855667114258
			]
		},
		{
			"mesh":0,
			"name":"armchair.001",
			"rotation":[
				0,
				-0.5858926177024841,
				0,
				0.8103886842727661
			],
			"scale":[
				0.02499999850988388,
				0.02499999850988388,
				0.02499999850988388
			],
			"translation":[
				3.370668888092041,
				0.5230638980865479,
				20.599651336669922
			]
		},
		{
			"mesh":0,
			"name":"armchair.002",
			"rotation":[
				0,
				0.552615761756897,
				0,
				0.8334361910820007
			],
			"scale":[
				0.02499999850988388,
				0.02499999850988388,
				0.02499999850988388
			],
			"translation":[
				-3.298452377319336,
				0.5230638980865479,
				18.49549102783203
			]
		},
		{
			"mesh":0,
			"name":"armchair.003",
			"rotation":[
				0,
				0.9386312365531921,
				0,
				0.34492227435112
			],
			"scale":[
				0.02500000037252903,
				0.02499999850988388,
				0.02500000037252903
			],
			"translation":[
				-3.3697798252105713,
				0.5230638980865479,
				21.027616500854492
			]
		},
		{
			"mesh":1,
			"name":"TrashBin",
			"scale":[
				0.009999999776482582,
				0.009999999776482582,
				0.009999999776482582
			],
			"translation":[
				-3.727520704269409,
				0,
				-24.3918514251709
			]
		}
	],
	"materials":[
		{
			"doubleSided":true,
			"extensions":{
				"KHR_materials_specular":{
					"specularTexture":{
						"index":0
					}
				}
			},
			"name":"armchair",
			"normalTexture":{
				"index":1,
				"scale":0.30000001192092896
			},
			"pbrMetallicRoughness":{
				"baseColorTexture":{
					"index":2
				},
				"metallicRoughnessTexture":{
					"index":3
				}
			}
		},
		{
			"doubleSided":true,
			"extensions":{
				"KHR_materials_specular":{
					"specularColorFactor":[
						2.0,
						2.0,
						2.0
					]
				}
			},
			"name":"21 - Default",
			"normalTexture":{
				"index":4
			},
			"pbrMetallicRoughness":{
				"baseColorTexture":{
					"index":5
				},
				"metallicRoughnessTexture":{
					"index":6
				}
			}
		}
	],
	"meshes":[
		{
			"name":"Mesh",
			"primitives":[
				{
					"attributes":{
						"POSITION":0,
						"NORMAL":1,
						"TEXCOORD_0":2,
						"TEXCOORD_1":3
					},
					"indices":4,
					"material":0
				}
			]
		},
		{
			"name":"Mesh.002",
			"primitives":[
				{
					"attributes":{
						"POSITION":5,
						"NORMAL":6,
						"TEXCOORD_0":7,
						"TEXCOORD_1":8
					},
					"indices":9,
					"material":1
				}
			]
		}
	],
	"textures":[
		{
			"sampler":0,
			"source":0
		},
		{
			"sampler":0,
			"source":1
		},
		{
			"sampler":0,
			"source":2
		},
		{
			"sampler":0,
			"source":3
		},
		{
			"sampler":0,
			"source":4
		},
		{
			"sampler":0,
			"source":5
		},
		{
			"sampler":0,
			"source":6
		}
	],
	"images":[
		{
			"mimeType":"image/png",
			"name":"armchair_Metallic",
			"uri":"office_textures/armchair_Metallic.png"
		},
		{
			"mimeType":"image/png",
			"name":"armchair_Normal",
			"uri":"office_textures/armchair_Normal.png"
		},
		{
			"mimeType":"image/png",
			"name":"armchair_Albedo",
			"uri":"office_textures/armchair_Albedo.png"
		},
		{
			"mimeType":"image/png",
			"name":"armchair_Roughness",
			"uri":"office_textures/armchair_Roughness.png"
		},
		{
			"mimeType":"image/png",
			"name":"Map #1",
			"uri":"office_textures/Map%201.png"
		},
		{
			"mimeType":"image/png",
			"name":"Map #156",
			"uri":"office_textures/Map%20156.png"
		},
		{
			"mimeType":"image/png",
			"name":"Image",
			"uri":"office_textures/Image.png"
		}
	],
	"accessors":[
		{
			"bufferView":0,
			"componentType":5126,
			"count":10545,
			"max":[
				16.664804458618164,
				20.77863121032715,
				20.041410446166992
			],
			"min":[
				-16.664804458618164,
				-20.77863311767578,
				-20.041404724121094
			],
			"type":"VEC3"
		},
		{
			"bufferView":1,
			"componentType":5126,
			"count":10545,
			"type":"VEC3"
		},
		{
			"bufferView":2,
			"componentType":5126,
			"count":10545,
			"type":"VEC2"
		},
		{
			"bufferView":3,
			"componentType":5126,
			"count":10545,
			"type":"VEC2"
		},
		{
			"bufferView":4,
			"componentType":5123,
			"count":26748,
			"type":"SCALAR"
		},
		{
			"bufferView":5,
			"componentType":5126,
			"count":4067,
			"max":[
				16.967025756835938,
				40.96221923828125,
				17.00884437561035
			],
			"min":[
				-17.362747192382812,
				0.12948989868164062,
				-17.1903133392334
			],
			"type":"VEC3"
		},
		{
			"bufferView":6,
			"componentType":5126,
			"count":4067,
			"type":"VEC3"
		},
		{
			"bufferView":7,
			"componentType":5126,
			"count":4067,
			"type":"VEC2"
		},
		{
			"bufferView":8,
			"componentType":5126,
			"count":4067,
			"type":"VEC2"
		},
		{
			"bufferView":9,
			"componentType":5123,
			"count":19863,
			"type":"SCALAR"
		}
	],
	"bufferViews":[
		{
			"buffer":0,
			"byteLength":126540,
			"byteOffset":0,
			"target":34962
		},
		{
			"buffer":0,
			"byteLength":126540,
			"byteOffset":126540,
			"target":34962
		},
		{
			"buffer":0,
			"byteLength":84360,
			"byteOffset":253080,
			"target":34962
		},
		{
			"buffer":0,
			"byteLength":84360,
			"byteOffset":337440,
			"target":34962
		},
		{
			"buffer":0,
			"byteLength":53496,
			"byteOffset":421800,
			"target":34963
		},
		{
			"buffer":0,
			"byteLength":48804,
			"byteOffset":475296,
			"target":34962
		},
		{
			"buffer":0,
			"byteLength":48804,
			"byteOffset":524100,
			"target":34962
		},
		{
			"buffer":0,
			"byteLength":32536,
			"byteOffset":572904,
			"target":34962
		},
		{
			"buffer":0,
			"byteLength":32536,
			"byteOffset":605440,
			"target":34962
		},
		{
			"buffer":0,
			"byteLength":39726,
			"byteOffset":637976,
			"target":34963
		}
	],
	"samplers":[
		{
			"magFilter":9729,
			"minFilter":9987
		}
	],
	"buffers":[
		{
			"byteLength":677704,
			"uri":"office_lobby.bin"
		}
	]
}
