{
	"asset":{
		"copyright":"Eibriel",
		"generator":"Khronos glTF Blender I/O v4.3.47",
		"version":"2.0"
	},
	"extensionsUsed":[
		"KHR_materials_specular"
	],
	"scene":0,
	"scenes":[
		{
			"name":"Scene",
			"nodes":[
				0,
				1,
				2,
				3,
				4,
				5
			]
		}
	],
	"nodes":[
		{
			"mesh":0,
			"name":"viejdi1_LOD0_TIER0_000",
			"rotation":[
				0.5114789605140686,
				-0.48825132846832275,
				0.4882512390613556,
				0.5114790201187134
			],
			"scale":[
				0.014000000432133675,
				0.014000000432133675,
				0.0139999995008111
			],
			"translation":[
				3.456865072250366,
				0,
				20.046606063842773
			]
		},
		{
			"mesh":1,
			"name":"muffin",
			"rotation":[
				0.7071068286895752,
				0,
				0,
				0.7071068286895752
			],
			"scale":[
				0.006041149143129587,
				0.006041149143129587,
				0.006041149143129587
			],
			"translation":[
				3.1512017250061035,
				1.0200228691101074,
				20.45754623413086
			]
		},
		{
			"mesh":2,
			"name":"Balloon",
			"scale":[
				0.04337143898010254,
				0.04337143898010254,
				0.04337143898010254
			],
			"translation":[
				2.342200517654419,
				1.037333369255066,
				21.340049743652344
			]
		},
		{
			"mesh":2,
			"name":"Balloon.001",
			"rotation":[
				-0.46332380175590515,
				0.11953184008598328,
				0.06323506683111191,
				0.8758108019828796
			],
			"scale":[
				0.04337143898010254,
				0.04337143898010254,
				0.04337143898010254
			],
			"translation":[
				3.3834054470062256,
				1.1643317937850952,
				19.938852310180664
			]
		},
		{
			"mesh":3,
			"name":"model",
			"rotation":[
				0,
				-0.7071067094802856,
				0,
				0.7071068286895752
			],
			"translation":[
				3.1824212074279785,
				1.0312727689743042,
				19.981863021850586
			]
		},
		{
			"mesh":4,
			"name":"SM_Donut_01_low",
			"rotation":[
				0.5793684124946594,
				-0.4053790867328644,
				0.4053789973258972,
				0.5793686509132385
			],
			"scale":[
				0.009999999776482582,
				0.009999999776482582,
				0.009999999776482582
			],
			"translation":[
				2.9725918769836426,
				1.0292854309082031,
				19.87244415283203
			]
		}
	],
	"materials":[
		{
			"doubleSided":true,
			"name":"MatID_1",
			"pbrMetallicRoughness":{
				"baseColorTexture":{
					"index":0
				},
				"metallicFactor":0,
				"metallicRoughnessTexture":{
					"index":1
				}
			}
		},
		{
			"doubleSided":true,
			"extensions":{
				"KHR_materials_specular":{
					"specularFactor":0
				}
			},
			"name":"muffin",
			"pbrMetallicRoughness":{
				"baseColorTexture":{
					"index":2
				},
				"metallicFactor":0
			}
		},
		{
			"doubleSided":true,
			"extensions":{
				"KHR_materials_specular":{
					"specularFactor":0
				}
			},
			"name":"Balloon",
			"normalTexture":{
				"index":3,
				"scale":0.30000001192092896
			},
			"pbrMetallicRoughness":{
				"baseColorTexture":{
					"index":4
				},
				"metallicFactor":0,
				"metallicRoughnessTexture":{
					"index":5
				}
			}
		},
		{
			"doubleSided":true,
			"extensions":{
				"KHR_materials_specular":{
					"specularFactor":0
				}
			},
			"name":"tex_u1_v1",
			"normalTexture":{
				"index":6
			},
			"pbrMetallicRoughness":{
				"baseColorTexture":{
					"index":7
				},
				"metallicFactor":0,
				"roughnessFactor":0.9292893409729004
			}
		},
		{
			"doubleSided":true,
			"extensions":{
				"KHR_materials_specular":{
					"specularColorFactor":[
						2.0,
						2.0,
						2.0
					]
				}
			},
			"name":"low_mat",
			"pbrMetallicRoughness":{
				"baseColorTexture":{
					"index":8
				},
				"metallicFactor":0.5,
				"roughnessFactor":0.858578622341156
			}
		}
	],
	"meshes":[
		{
			"name":"Aset_interior_furniture_M_viejdi1_00_HIGH",
			"primitives":[
				{
					"attributes":{
						"POSITION":0,
						"NORMAL":1,
						"TEXCOORD_0":2
					},
					"indices":3,
					"material":0
				}
			]
		},
		{
			"name":"muffin",
			"primitives":[
				{
					"attributes":{
						"POSITION":4,
						"NORMAL":5,
						"TEXCOORD_0":6,
						"COLOR_0":7,
						"COLOR_1":8
					},
					"indices":9,
					"material":1
				}
			]
		},
		{
			"name":"Mesh.003",
			"primitives":[
				{
					"attributes":{
						"POSITION":10,
						"NORMAL":11,
						"TEXCOORD_0":12
					},
					"indices":13,
					"material":2
				}
			]
		},
		{
			"name":"model",
			"primitives":[
				{
					"attributes":{
						"POSITION":14,
						"NORMAL":15,
						"TEXCOORD_0":16
					},
					"indices":17,
					"material":3
				}
			]
		},
		{
			"name":"Mesh.005",
			"primitives":[
				{
					"attributes":{
						"POSITION":18,
						"NORMAL":19,
						"TEXCOORD_0":20
					},
					"indices":21,
					"material":4
				}
			]
		}
	],
	"textures":[
		{
			"sampler":0,
			"source":0
		},
		{
			"sampler":0,
			"source":1
		},
		{
			"sampler":0,
			"source":2
		},
		{
			"sampler":0,
			"source":3
		},
		{
			"sampler":0,
			"source":4
		},
		{
			"sampler":0,
			"source":5
		},
		{
			"sampler":0,
			"source":6
		},
		{
			"sampler":0,
			"source":7
		},
		{
			"sampler":0,
			"source":8
		}
	],
	"images":[
		{
			"mimeType":"image/jpeg",
			"name":"Wooden_Table_viejdi1_Raw_8K_BaseColor",
			"uri":"office_textures/Wooden_Table_viejdi1_Raw_8K_BaseColor.jpg"
		},
		{
			"mimeType":"image/png",
			"name":"Wooden_Table_viejdi1_Raw_8K_Roughness",
			"uri":"office_textures/Wooden_Table_viejdi1_Raw_8K_Roughness.png"
		},
		{
			"mimeType":"image/png",
			"name":"muffin_u0_v0",
			"uri":"office_textures/muffin_u0_v0.png"
		},
		{
			"mimeType":"image/png",
			"name":"BalloonNormal",
			"uri":"office_textures/BalloonNormal.png"
		},
		{
			"mimeType":"image/png",
			"name":"BalloonAlbedo",
			"uri":"office_textures/BalloonAlbedo.png"
		},
		{
			"mimeType":"image/png",
			"name":"BalloonRough",
			"uri":"office_textures/BalloonRough.png"
		},
		{
			"mimeType":"image/jpeg",
			"name":"tex_u1_v1_normal",
			"uri":"office_textures/tex_u1_v1_normal.jpg"
		},
		{
			"mimeType":"image/jpeg",
			"name":"tex_u1_v1_diffuse",
			"uri":"office_textures/tex_u1_v1_diffuse.jpg"
		},
		{
			"mimeType":"image/jpeg",
			"name":"T_Donut_01_low_D",
			"uri":"office_textures/T_Donut_01_low_D.jpg"
		}
	],
	"accessors":[
		{
			"bufferView":0,
			"componentType":5126,
			"count":6033,
			"max":[
				79.67916107177734,
				52.342830657958984,
				0.8284837007522583
			],
			"min":[
				-74.88418579101562,
				-51.279815673828125,
				-73.94490051269531
			],
			"type":"VEC3"
		},
		{
			"bufferView":1,
			"componentType":5126,
			"count":6033,
			"type":"VEC3"
		},
		{
			"bufferView":2,
			"componentType":5126,
			"count":6033,
			"type":"VEC2"
		},
		{
			"bufferView":3,
			"componentType":5123,
			"count":30000,
			"type":"SCALAR"
		},
		{
			"bufferView":4,
			"componentType":5126,
			"count":4284,
			"max":[
				7.448566436767578,
				6.927752494812012,
				-1.3259097337722778
			],
			"min":[
				-6.7993597984313965,
				-7.4683122634887695,
				-14.296972274780273
			],
			"type":"VEC3"
		},
		{
			"bufferView":5,
			"componentType":5126,
			"count":4284,
			"type":"VEC3"
		},
		{
			"bufferView":6,
			"componentType":5126,
			"count":4284,
			"type":"VEC2"
		},
		{
			"bufferView":7,
			"componentType":5121,
			"count":4284,
			"normalized":true,
			"type":"VEC4"
		},
		{
			"bufferView":8,
			"componentType":5123,
			"count":4284,
			"normalized":true,
			"type":"VEC4"
		},
		{
			"bufferView":9,
			"componentType":5123,
			"count":4284,
			"type":"SCALAR"
		},
		{
			"bufferView":10,
			"componentType":5126,
			"count":759,
			"max":[
				3.3712992668151855,
				5.058937072753906,
				3.3712990283966064
			],
			"min":[
				-3.3712992668151855,
				-5.058937072753906,
				-3.3712990283966064
			],
			"type":"VEC3"
		},
		{
			"bufferView":11,
			"componentType":5126,
			"count":759,
			"type":"VEC3"
		},
		{
			"bufferView":12,
			"componentType":5126,
			"count":759,
			"type":"VEC2"
		},
		{
			"bufferView":13,
			"componentType":5123,
			"count":3612,
			"type":"SCALAR"
		},
		{
			"bufferView":14,
			"componentType":5126,
			"count":11087,
			"max":[
				0.12359245121479034,
				0.08630464226007462,
				0.12434336543083191
			],
			"min":[
				-0.12342370301485062,
				-0.0002686411899048835,
				-0.1227143183350563
			],
			"type":"VEC3"
		},
		{
			"bufferView":15,
			"componentType":5126,
			"count":11087,
			"type":"VEC3"
		},
		{
			"bufferView":16,
			"componentType":5126,
			"count":11087,
			"type":"VEC2"
		},
		{
			"bufferView":17,
			"componentType":5123,
			"count":29994,
			"type":"SCALAR"
		},
		{
			"bufferView":18,
			"componentType":5126,
			"count":393,
			"max":[
				4.335391044616699,
				4.252943992614746,
				0.03272128105163574
			],
			"min":[
				-4.426604747772217,
				-4.166999816894531,
				-3.6507415771484375
			],
			"type":"VEC3"
		},
		{
			"bufferView":19,
			"componentType":5126,
			"count":393,
			"type":"VEC3"
		},
		{
			"bufferView":20,
			"componentType":5126,
			"count":393,
			"type":"VEC2"
		},
		{
			"bufferView":21,
			"componentType":5123,
			"count":1896,
			"type":"SCALAR"
		}
	],
	"bufferViews":[
		{
			"buffer":0,
			"byteLength":72396,
			"byteOffset":0,
			"target":34962
		},
		{
			"buffer":0,
			"byteLength":72396,
			"byteOffset":72396,
			"target":34962
		},
		{
			"buffer":0,
			"byteLength":48264,
			"byteOffset":144792,
			"target":34962
		},
		{
			"buffer":0,
			"byteLength":60000,
			"byteOffset":193056,
			"target":34963
		},
		{
			"buffer":0,
			"byteLength":51408,
			"byteOffset":253056,
			"target":34962
		},
		{
			"buffer":0,
			"byteLength":51408,
			"byteOffset":304464,
			"target":34962
		},
		{
			"buffer":0,
			"byteLength":34272,
			"byteOffset":355872,
			"target":34962
		},
		{
			"buffer":0,
			"byteLength":17136,
			"byteOffset":390144,
			"target":34962
		},
		{
			"buffer":0,
			"byteLength":34272,
			"byteOffset":407280,
			"target":34962
		},
		{
			"buffer":0,
			"byteLength":8568,
			"byteOffset":441552,
			"target":34963
		},
		{
			"buffer":0,
			"byteLength":9108,
			"byteOffset":450120,
			"target":34962
		},
		{
			"buffer":0,
			"byteLength":9108,
			"byteOffset":459228,
			"target":34962
		},
		{
			"buffer":0,
			"byteLength":6072,
			"byteOffset":468336,
			"target":34962
		},
		{
			"buffer":0,
			"byteLength":7224,
			"byteOffset":474408,
			"target":34963
		},
		{
			"buffer":0,
			"byteLength":133044,
			"byteOffset":481632,
			"target":34962
		},
		{
			"buffer":0,
			"byteLength":133044,
			"byteOffset":614676,
			"target":34962
		},
		{
			"buffer":0,
			"byteLength":88696,
			"byteOffset":747720,
			"target":34962
		},
		{
			"buffer":0,
			"byteLength":59988,
			"byteOffset":836416,
			"target":34963
		},
		{
			"buffer":0,
			"byteLength":4716,
			"byteOffset":896404,
			"target":34962
		},
		{
			"buffer":0,
			"byteLength":4716,
			"byteOffset":901120,
			"target":34962
		},
		{
			"buffer":0,
			"byteLength":3144,
			"byteOffset":905836,
			"target":34962
		},
		{
			"buffer":0,
			"byteLength":3792,
			"byteOffset":908980,
			"target":34963
		}
	],
	"samplers":[
		{
			"magFilter":9729,
			"minFilter":9987
		}
	],
	"buffers":[
		{
			"byteLength":912772,
			"uri":"office_party.bin"
		}
	]
}
