{
	"asset":{
		"copyright":"Eibriel",
		"generator":"Khronos glTF Blender I/O v4.3.47",
		"version":"2.0"
	},
	"extensionsUsed":[
		"KHR_materials_specular",
		"KHR_materials_ior"
	],
	"scene":0,
	"scenes":[
		{
			"name":"Scene",
			"nodes":[
				0,
				2,
				3
			]
		}
	],
	"nodes":[
		{
			"mesh":0,
			"name":"vmjhbix_LOD0_TIER0_000",
			"rotation":[
				0.5,
				-0.5,
				0.5,
				0.5000000596046448
			],
			"scale":[
				0.019999999552965164,
				0.019999999552965164,
				0.019999999552965164
			],
			"translation":[
				4.220158576965332,
				0.9433735013008118,
				19.63716697692871
			]
		},
		{
			"mesh":1,
			"name":"Wood Bookshelf"
		},
		{
			"children":[
				1
			],
			"name":"Wood Bookshelf_ROOT",
			"rotation":[
				0,
				0.7071068286895752,
				0,
				0.7071068286895752
			],
			"scale":[
				2,
				2,
				2
			],
			"translation":[
				3.8326284885406494,
				0,
				22.249156951904297
			]
		},
		{
			"mesh":2,
			"name":"robot_head.001",
			"rotation":[
				-0.19077233970165253,
				-0.7131141424179077,
				-0.21248185634613037,
				0.6402543783187866
			],
			"scale":[
				1.4663610458374023,
				1.4663609266281128,
				1.466361165046692
			],
			"translation":[
				4.061631202697754,
				1.4098230600357056,
				19.221216201782227
			]
		}
	],
	"materials":[
		{
			"doubleSided":true,
			"extensions":{
				"KHR_materials_specular":{
					"specularFactor":0
				}
			},
			"name":"MatID_1.001",
			"pbrMetallicRoughness":{
				"baseColorTexture":{
					"index":0
				}
			}
		},
		{
			"doubleSided":true,
			"name":"FURNITURE_067_MAT",
			"normalTexture":{
				"index":1
			},
			"pbrMetallicRoughness":{
				"baseColorTexture":{
					"index":2
				},
				"metallicRoughnessTexture":{
					"index":3
				}
			}
		},
		{
			"doubleSided":true,
			"extensions":{
				"KHR_materials_specular":{
					"specularFactor":0.03636360168457031
				},
				"KHR_materials_ior":{
					"ior":1.4500000476837158
				}
			},
			"name":"Robot_Hinges",
			"occlusionTexture":{
				"index":4
			},
			"pbrMetallicRoughness":{
				"baseColorFactor":[
					0.24140211939811707,
					0.06719905883073807,
					0.002356688492000103,
					1
				],
				"roughnessFactor":0.4363636374473572
			}
		},
		{
			"doubleSided":true,
			"extensions":{
				"KHR_materials_specular":{
					"specularFactor":0
				},
				"KHR_materials_ior":{
					"ior":1.4500000476837158
				}
			},
			"name":"Robot_face",
			"occlusionTexture":{
				"index":5
			},
			"pbrMetallicRoughness":{
				"baseColorFactor":[
					0.005518000107258558,
					0.004569000098854303,
					0.0036700000055134296,
					1
				],
				"roughnessFactor":0.6772723197937012
			}
		}
	],
	"meshes":[
		{
			"name":"Aset_interior_furniture_M_vmjhbix_00_HIGH",
			"primitives":[
				{
					"attributes":{
						"POSITION":0,
						"NORMAL":1,
						"TEXCOORD_0":2
					},
					"indices":3,
					"material":0
				}
			]
		},
		{
			"name":"FURNITURE_067",
			"primitives":[
				{
					"attributes":{
						"POSITION":4,
						"NORMAL":5,
						"TEXCOORD_0":6,
						"TEXCOORD_1":7
					},
					"indices":8,
					"material":1
				}
			]
		},
		{
			"name":"Cylinder.005",
			"primitives":[
				{
					"attributes":{
						"POSITION":9,
						"NORMAL":10,
						"TEXCOORD_0":11
					},
					"indices":12,
					"material":2
				},
				{
					"attributes":{
						"POSITION":13,
						"NORMAL":14,
						"TEXCOORD_0":15
					},
					"indices":16,
					"material":3
				}
			]
		}
	],
	"textures":[
		{
			"sampler":0,
			"source":0
		},
		{
			"sampler":0,
			"source":1
		},
		{
			"sampler":0,
			"source":2
		},
		{
			"sampler":0,
			"source":3
		},
		{
			"sampler":0,
			"source":4
		},
		{
			"sampler":0,
			"source":4
		}
	],
	"images":[
		{
			"mimeType":"image/jpeg",
			"name":"Wooden_Bookshelf_vmjhbix_Raw_8K_BaseColor",
			"uri":"office_textures/Wooden_Bookshelf_vmjhbix_Raw_8K_BaseColor.jpg"
		},
		{
			"mimeType":"image/png",
			"name":"FURNITURE_067_MAT_Normal",
			"uri":"office_textures/FURNITURE_067_MAT_Normal.png"
		},
		{
			"mimeType":"image/png",
			"name":"FURNITURE_067_MAT_BaseColor",
			"uri":"office_textures/FURNITURE_067_MAT_BaseColor.png"
		},
		{
			"mimeType":"image/png",
			"name":"FURNITURE_067_MAT_Metallic-FURNITURE_067_MAT_Roughness",
			"uri":"office_textures/FURNITURE_067_MAT_Metallic-FURNITURE_067_MAT_Roughness.png"
		},
		{
			"mimeType":"image/png",
			"name":"RobotOcclussion_Bake",
			"uri":"office_textures/RobotOcclussion_Bake.png"
		}
	],
	"accessors":[
		{
			"bufferView":0,
			"componentType":5126,
			"count":3479,
			"max":[
				44.8950309753418,
				20.63878631591797,
				0.004518087953329086
			],
			"min":[
				-44.28901290893555,
				-0.19602729380130768,
				-81.12226104736328
			],
			"type":"VEC3"
		},
		{
			"bufferView":1,
			"componentType":5126,
			"count":3479,
			"type":"VEC3"
		},
		{
			"bufferView":2,
			"componentType":5126,
			"count":3479,
			"type":"VEC2"
		},
		{
			"bufferView":3,
			"componentType":5123,
			"count":15000,
			"type":"SCALAR"
		},
		{
			"bufferView":4,
			"componentType":5126,
			"count":208,
			"max":[
				0.609867513179779,
				0.7198535799980164,
				0.1932034194469452
			],
			"min":[
				-0.609867513179779,
				0.00147247314453125,
				-0.1918136179447174
			],
			"type":"VEC3"
		},
		{
			"bufferView":5,
			"componentType":5126,
			"count":208,
			"type":"VEC3"
		},
		{
			"bufferView":6,
			"componentType":5126,
			"count":208,
			"type":"VEC2"
		},
		{
			"bufferView":7,
			"componentType":5126,
			"count":208,
			"type":"VEC2"
		},
		{
			"bufferView":8,
			"componentType":5123,
			"count":360,
			"type":"SCALAR"
		},
		{
			"bufferView":9,
			"componentType":5126,
			"count":479,
			"max":[
				0.006045530550181866,
				0.26699215173721313,
				0.12421075999736786
			],
			"min":[
				-0.1633976399898529,
				-0.1709289848804474,
				-0.017794404178857803
			],
			"type":"VEC3"
		},
		{
			"bufferView":10,
			"componentType":5126,
			"count":479,
			"type":"VEC3"
		},
		{
			"bufferView":11,
			"componentType":5126,
			"count":479,
			"type":"VEC2"
		},
		{
			"bufferView":12,
			"componentType":5123,
			"count":1710,
			"type":"SCALAR"
		},
		{
			"bufferView":13,
			"componentType":5126,
			"count":487,
			"max":[
				-0.002532579004764557,
				0.11109375953674316,
				0.12071868032217026
			],
			"min":[
				-0.20525777339935303,
				-0.19375860691070557,
				-0.1365487277507782
			],
			"type":"VEC3"
		},
		{
			"bufferView":14,
			"componentType":5126,
			"count":487,
			"type":"VEC3"
		},
		{
			"bufferView":15,
			"componentType":5126,
			"count":487,
			"type":"VEC2"
		},
		{
			"bufferView":16,
			"componentType":5123,
			"count":2544,
			"type":"SCALAR"
		}
	],
	"bufferViews":[
		{
			"buffer":0,
			"byteLength":41748,
			"byteOffset":0,
			"target":34962
		},
		{
			"buffer":0,
			"byteLength":41748,
			"byteOffset":41748,
			"target":34962
		},
		{
			"buffer":0,
			"byteLength":27832,
			"byteOffset":83496,
			"target":34962
		},
		{
			"buffer":0,
			"byteLength":30000,
			"byteOffset":111328,
			"target":34963
		},
		{
			"buffer":0,
			"byteLength":2496,
			"byteOffset":141328,
			"target":34962
		},
		{
			"buffer":0,
			"byteLength":2496,
			"byteOffset":143824,
			"target":34962
		},
		{
			"buffer":0,
			"byteLength":1664,
			"byteOffset":146320,
			"target":34962
		},
		{
			"buffer":0,
			"byteLength":1664,
			"byteOffset":147984,
			"target":34962
		},
		{
			"buffer":0,
			"byteLength":720,
			"byteOffset":149648,
			"target":34963
		},
		{
			"buffer":0,
			"byteLength":5748,
			"byteOffset":150368,
			"target":34962
		},
		{
			"buffer":0,
			"byteLength":5748,
			"byteOffset":156116,
			"target":34962
		},
		{
			"buffer":0,
			"byteLength":3832,
			"byteOffset":161864,
			"target":34962
		},
		{
			"buffer":0,
			"byteLength":3420,
			"byteOffset":165696,
			"target":34963
		},
		{
			"buffer":0,
			"byteLength":5844,
			"byteOffset":169116,
			"target":34962
		},
		{
			"buffer":0,
			"byteLength":5844,
			"byteOffset":174960,
			"target":34962
		},
		{
			"buffer":0,
			"byteLength":3896,
			"byteOffset":180804,
			"target":34962
		},
		{
			"buffer":0,
			"byteLength":5088,
			"byteOffset":184700,
			"target":34963
		}
	],
	"samplers":[
		{
			"magFilter":9729,
			"minFilter":9987
		}
	],
	"buffers":[
		{
			"byteLength":189788,
			"uri":"office_marketing.bin"
		}
	]
}
