{
	"asset":{
		"copyright":"Eibriel",
		"generator":"Khronos glTF Blender I/O v4.3.47",
		"version":"2.0"
	},
	"extensionsUsed":[
		"KHR_materials_specular",
		"KHR_materials_ior"
	],
	"scene":0,
	"scenes":[
		{
			"name":"Scene",
			"nodes":[
				0,
				1,
				2
			]
		}
	],
	"nodes":[
		{
			"mesh":0,
			"name":"Markers",
			"rotation":[
				0,
				0.44068148732185364,
				0,
				0.8976635336875916
			],
			"translation":[
				3.720627546310425,
				1.1958941221237183,
				20.43674087524414
			]
		},
		{
			"mesh":1,
			"name":"Hico Work Table",
			"rotation":[
				0,
				-0.7071067094802856,
				0,
				0.7071068286895752
			],
			"scale":[
				1.600000023841858,
				1.600000023841858,
				1.600000023841858
			],
			"translation":[
				3.620197296142578,
				0,
				20.431217193603516
			]
		},
		{
			"mesh":2,
			"name":"Pizarron",
			"rotation":[
				-0.5,
				0.4999999403953552,
				-0.5,
				0.5000000596046448
			],
			"translation":[
				-4.188103675842285,
				1.5449628829956055,
				20.809093475341797
			]
		}
	],
	"materials":[
		{
			"doubleSided":true,
			"name":"TT_checker_4096x4096_UV_GRID",
			"normalTexture":{
				"index":0
			},
			"pbrMetallicRoughness":{
				"baseColorTexture":{
					"index":1
				},
				"metallicFactor":0,
				"metallicRoughnessTexture":{
					"index":2
				}
			}
		},
		{
			"doubleSided":true,
			"name":"FUNITURE_043_MAT",
			"normalTexture":{
				"index":3
			},
			"pbrMetallicRoughness":{
				"baseColorTexture":{
					"index":4
				},
				"metallicRoughnessTexture":{
					"index":5
				}
			}
		},
		{
			"doubleSided":true,
			"name":"Material.010",
			"pbrMetallicRoughness":{
				"baseColorFactor":[
					0.4672006368637085,
					0.4672006368637085,
					0.4672006368637085,
					1
				],
				"metallicFactor":0.4330708682537079,
				"roughnessFactor":0.374015748500824
			}
		},
		{
			"doubleSided":true,
			"extensions":{
				"KHR_materials_specular":{
					"specularColorFactor":[
						1.5826771259307861,
						1.5826771259307861,
						1.5826771259307861
					]
				},
				"KHR_materials_ior":{
					"ior":1.4500000476837158
				}
			},
			"name":"Material.016",
			"pbrMetallicRoughness":{
				"baseColorFactor":[
					0.11068861931562424,
					0.11068861931562424,
					0.11068861931562424,
					1
				],
				"metallicFactor":0.4645669162273407,
				"roughnessFactor":0.20472441613674164
			}
		},
		{
			"doubleSided":true,
			"name":"Material.012",
			"pbrMetallicRoughness":{
				"baseColorFactor":[
					0,
					0,
					0,
					1
				],
				"metallicFactor":0,
				"roughnessFactor":0.5
			}
		},
		{
			"doubleSided":true,
			"name":"Material.003",
			"pbrMetallicRoughness":{
				"baseColorTexture":{
					"index":6
				},
				"metallicFactor":0.4330708682537079,
				"roughnessFactor":0.374015748500824
			}
		},
		{
			"alphaMode":"BLEND",
			"doubleSided":true,
			"name":"Dahua_Technology_logo",
			"pbrMetallicRoughness":{
				"baseColorTexture":{
					"index":7
				},
				"metallicFactor":0,
				"roughnessFactor":0.5
			}
		}
	],
	"meshes":[
		{
			"name":"Cube.313",
			"primitives":[
				{
					"attributes":{
						"POSITION":0,
						"NORMAL":1,
						"TEXCOORD_0":2
					},
					"indices":3,
					"material":0
				}
			]
		},
		{
			"name":"FUNITURE_043",
			"primitives":[
				{
					"attributes":{
						"POSITION":4,
						"NORMAL":5,
						"TEXCOORD_0":6,
						"TEXCOORD_1":7
					},
					"indices":8,
					"material":1
				}
			]
		},
		{
			"name":"Whiteboard02",
			"primitives":[
				{
					"attributes":{
						"POSITION":9,
						"NORMAL":10,
						"TEXCOORD_0":11,
						"COLOR_0":12,
						"COLOR_1":13
					},
					"indices":14,
					"material":2
				},
				{
					"attributes":{
						"POSITION":15,
						"NORMAL":16,
						"TEXCOORD_0":17,
						"COLOR_0":18,
						"COLOR_1":19
					},
					"indices":20,
					"material":2
				},
				{
					"attributes":{
						"POSITION":21,
						"NORMAL":22,
						"TEXCOORD_0":23,
						"COLOR_0":24,
						"COLOR_1":25
					},
					"indices":26,
					"material":3
				},
				{
					"attributes":{
						"POSITION":27,
						"NORMAL":28,
						"TEXCOORD_0":29,
						"COLOR_0":30,
						"COLOR_1":31
					},
					"indices":32,
					"material":4
				},
				{
					"attributes":{
						"POSITION":33,
						"NORMAL":34,
						"TEXCOORD_0":35,
						"COLOR_0":36,
						"COLOR_1":37
					},
					"indices":38,
					"material":5
				},
				{
					"attributes":{
						"POSITION":39,
						"NORMAL":40,
						"TEXCOORD_0":41,
						"COLOR_0":42,
						"COLOR_1":43
					},
					"indices":44,
					"material":6
				}
			]
		}
	],
	"textures":[
		{
			"sampler":0,
			"source":0
		},
		{
			"sampler":0,
			"source":1
		},
		{
			"sampler":0,
			"source":2
		},
		{
			"sampler":0,
			"source":3
		},
		{
			"sampler":0,
			"source":4
		},
		{
			"sampler":0,
			"source":5
		},
		{
			"sampler":0,
			"source":6
		},
		{
			"sampler":1,
			"source":7
		}
	],
	"images":[
		{
			"mimeType":"image/png",
			"name":"copics_low_TT_checker_4096x4096_UV_GRID_No",
			"uri":"office_textures/copics_low_TT_checker_4096x4096_UV_GRID_No.png"
		},
		{
			"mimeType":"image/png",
			"name":"copics_low_TT_checker_4096x4096_UV_GRID_Ba",
			"uri":"office_textures/copics_low_TT_checker_4096x4096_UV_GRID_Ba.png"
		},
		{
			"mimeType":"image/png",
			"name":"copics_low_TT_checker_4096x4096_UV_GRID_Ro",
			"uri":"office_textures/copics_low_TT_checker_4096x4096_UV_GRID_Ro.png"
		},
		{
			"mimeType":"image/png",
			"name":"FURNITURE_043_Normal",
			"uri":"office_textures/FURNITURE_043_Normal.png"
		},
		{
			"mimeType":"image/png",
			"name":"FURNITURE_043_BaseColor",
			"uri":"office_textures/FURNITURE_043_BaseColor.png"
		},
		{
			"mimeType":"image/png",
			"name":"FURNITURE_043_Metallic-FURNITURE_043_Roughness",
			"uri":"office_textures/FURNITURE_043_Metallic-FURNITURE_043_Roughness.png"
		},
		{
			"mimeType":"image/jpeg",
			"name":"D:\\Yunus KARAKOC\\Downloads\\\u00e7\u00f6p\\hold",
			"uri":"office_textures/DYunus%20KARAKOCDownloads%C3%A7%C3%B6phold.jpg"
		},
		{
			"mimeType":"image/png",
			"name":"D:\\Yunus KARAKOC\\Downloads\\\u00e7\u00f6p\\Desktop\\masa\u00fcst\u00fc17102022\\images\\PNG\\Dahua_Technology_logo.svg",
			"uri":"office_textures/DYunus%20KARAKOCDownloads%C3%A7%C3%B6pDesktopmasa%C3%BCst%C3%BC17102022imagesPNGDahua_Technology_logo_svg.png"
		}
	],
	"accessors":[
		{
			"bufferView":0,
			"componentType":5126,
			"count":33166,
			"max":[
				0.2648007273674011,
				0.26982825994491577,
				-0.008061688393354416
			],
			"min":[
				-0.2660040855407715,
				0.0029032081365585327,
				-0.032829977571964264
			],
			"type":"VEC3"
		},
		{
			"bufferView":1,
			"componentType":5126,
			"count":33166,
			"type":"VEC3"
		},
		{
			"bufferView":2,
			"componentType":5126,
			"count":33166,
			"type":"VEC2"
		},
		{
			"bufferView":3,
			"componentType":5123,
			"count":182112,
			"type":"SCALAR"
		},
		{
			"bufferView":4,
			"componentType":5126,
			"count":496,
			"max":[
				0.6000000834465027,
				0.7500001192092896,
				0.30000001192092896
			],
			"min":[
				-0.6012520790100098,
				-7.152557657263969e-08,
				-0.3006823658943176
			],
			"type":"VEC3"
		},
		{
			"bufferView":5,
			"componentType":5126,
			"count":496,
			"type":"VEC3"
		},
		{
			"bufferView":6,
			"componentType":5126,
			"count":496,
			"type":"VEC2"
		},
		{
			"bufferView":7,
			"componentType":5126,
			"count":496,
			"type":"VEC2"
		},
		{
			"bufferView":8,
			"componentType":5123,
			"count":930,
			"type":"SCALAR"
		},
		{
			"bufferView":9,
			"componentType":5126,
			"count":422,
			"max":[
				0.24116118252277374,
				0.7424989938735962,
				0.022669993340969086
			],
			"min":[
				-0.671501100063324,
				-0.7424989938735962,
				-0.023906437680125237
			],
			"type":"VEC3"
		},
		{
			"bufferView":10,
			"componentType":5126,
			"count":422,
			"type":"VEC3"
		},
		{
			"bufferView":11,
			"componentType":5126,
			"count":422,
			"type":"VEC2"
		},
		{
			"bufferView":12,
			"componentType":5121,
			"count":422,
			"normalized":true,
			"type":"VEC4"
		},
		{
			"bufferView":13,
			"componentType":5123,
			"count":422,
			"normalized":true,
			"type":"VEC4"
		},
		{
			"bufferView":14,
			"componentType":5123,
			"count":1710,
			"type":"SCALAR"
		},
		{
			"bufferView":15,
			"componentType":5126,
			"count":532,
			"max":[
				0.2659032344818115,
				0.7424989938735962,
				0.022669993340969086
			],
			"min":[
				-0.6251633167266846,
				-0.7424989938735962,
				-0.023906437680125237
			],
			"type":"VEC3"
		},
		{
			"bufferView":16,
			"componentType":5126,
			"count":532,
			"type":"VEC3"
		},
		{
			"bufferView":17,
			"componentType":5126,
			"count":532,
			"type":"VEC2"
		},
		{
			"bufferView":18,
			"componentType":5121,
			"count":532,
			"normalized":true,
			"type":"VEC4"
		},
		{
			"bufferView":19,
			"componentType":5123,
			"count":532,
			"normalized":true,
			"type":"VEC4"
		},
		{
			"bufferView":20,
			"componentType":5123,
			"count":1776,
			"type":"SCALAR"
		},
		{
			"bufferView":21,
			"componentType":5126,
			"count":689,
			"max":[
				0.0423700176179409,
				0.7422928810119629,
				0.01956222765147686
			],
			"min":[
				-0.6614128947257996,
				-0.7422938346862793,
				-0.06602352857589722
			],
			"type":"VEC3"
		},
		{
			"bufferView":22,
			"componentType":5126,
			"count":689,
			"type":"VEC3"
		},
		{
			"bufferView":23,
			"componentType":5126,
			"count":689,
			"type":"VEC2"
		},
		{
			"bufferView":24,
			"componentType":5121,
			"count":689,
			"normalized":true,
			"type":"VEC4"
		},
		{
			"bufferView":25,
			"componentType":5123,
			"count":689,
			"normalized":true,
			"type":"VEC4"
		},
		{
			"bufferView":26,
			"componentType":5123,
			"count":3864,
			"type":"SCALAR"
		},
		{
			"bufferView":27,
			"componentType":5126,
			"count":1958,
			"max":[
				0.24473761022090912,
				0.6425015330314636,
				0.022669993340969086
			],
			"min":[
				0.2224491983652115,
				-0.6398476362228394,
				0.006544660776853561
			],
			"type":"VEC3"
		},
		{
			"bufferView":28,
			"componentType":5126,
			"count":1958,
			"type":"VEC3"
		},
		{
			"bufferView":29,
			"componentType":5126,
			"count":1958,
			"type":"VEC2"
		},
		{
			"bufferView":30,
			"componentType":5121,
			"count":1958,
			"normalized":true,
			"type":"VEC4"
		},
		{
			"bufferView":31,
			"componentType":5123,
			"count":1958,
			"normalized":true,
			"type":"VEC4"
		},
		{
			"bufferView":32,
			"componentType":5123,
			"count":4152,
			"type":"SCALAR"
		},
		{
			"bufferView":33,
			"componentType":5126,
			"count":226,
			"max":[
				0.24719740450382233,
				0.6811243295669556,
				0.018113121390342712
			],
			"min":[
				0.21977099776268005,
				-0.6789640188217163,
				0.004791873972862959
			],
			"type":"VEC3"
		},
		{
			"bufferView":34,
			"componentType":5126,
			"count":226,
			"type":"VEC3"
		},
		{
			"bufferView":35,
			"componentType":5126,
			"count":226,
			"type":"VEC2"
		},
		{
			"bufferView":36,
			"componentType":5121,
			"count":226,
			"normalized":true,
			"type":"VEC4"
		},
		{
			"bufferView":37,
			"componentType":5123,
			"count":226,
			"normalized":true,
			"type":"VEC4"
		},
		{
			"bufferView":38,
			"componentType":5123,
			"count":1176,
			"type":"SCALAR"
		},
		{
			"bufferView":39,
			"componentType":5126,
			"count":4,
			"max":[
				0.23482929170131683,
				0.02391968108713627,
				0.009615513496100903
			],
			"min":[
				0.21997176110744476,
				-0.02392342872917652,
				0.009615511633455753
			],
			"type":"VEC3"
		},
		{
			"bufferView":40,
			"componentType":5126,
			"count":4,
			"type":"VEC3"
		},
		{
			"bufferView":41,
			"componentType":5126,
			"count":4,
			"type":"VEC2"
		},
		{
			"bufferView":42,
			"componentType":5121,
			"count":4,
			"normalized":true,
			"type":"VEC4"
		},
		{
			"bufferView":43,
			"componentType":5123,
			"count":4,
			"normalized":true,
			"type":"VEC4"
		},
		{
			"bufferView":44,
			"componentType":5123,
			"count":6,
			"type":"SCALAR"
		}
	],
	"bufferViews":[
		{
			"buffer":0,
			"byteLength":397992,
			"byteOffset":0,
			"target":34962
		},
		{
			"buffer":0,
			"byteLength":397992,
			"byteOffset":397992,
			"target":34962
		},
		{
			"buffer":0,
			"byteLength":265328,
			"byteOffset":795984,
			"target":34962
		},
		{
			"buffer":0,
			"byteLength":364224,
			"byteOffset":1061312,
			"target":34963
		},
		{
			"buffer":0,
			"byteLength":5952,
			"byteOffset":1425536,
			"target":34962
		},
		{
			"buffer":0,
			"byteLength":5952,
			"byteOffset":1431488,
			"target":34962
		},
		{
			"buffer":0,
			"byteLength":3968,
			"byteOffset":1437440,
			"target":34962
		},
		{
			"buffer":0,
			"byteLength":3968,
			"byteOffset":1441408,
			"target":34962
		},
		{
			"buffer":0,
			"byteLength":1860,
			"byteOffset":1445376,
			"target":34963
		},
		{
			"buffer":0,
			"byteLength":5064,
			"byteOffset":1447236,
			"target":34962
		},
		{
			"buffer":0,
			"byteLength":5064,
			"byteOffset":1452300,
			"target":34962
		},
		{
			"buffer":0,
			"byteLength":3376,
			"byteOffset":1457364,
			"target":34962
		},
		{
			"buffer":0,
			"byteLength":1688,
			"byteOffset":1460740,
			"target":34962
		},
		{
			"buffer":0,
			"byteLength":3376,
			"byteOffset":1462428,
			"target":34962
		},
		{
			"buffer":0,
			"byteLength":3420,
			"byteOffset":1465804,
			"target":34963
		},
		{
			"buffer":0,
			"byteLength":6384,
			"byteOffset":1469224,
			"target":34962
		},
		{
			"buffer":0,
			"byteLength":6384,
			"byteOffset":1475608,
			"target":34962
		},
		{
			"buffer":0,
			"byteLength":4256,
			"byteOffset":1481992,
			"target":34962
		},
		{
			"buffer":0,
			"byteLength":2128,
			"byteOffset":1486248,
			"target":34962
		},
		{
			"buffer":0,
			"byteLength":4256,
			"byteOffset":1488376,
			"target":34962
		},
		{
			"buffer":0,
			"byteLength":3552,
			"byteOffset":1492632,
			"target":34963
		},
		{
			"buffer":0,
			"byteLength":8268,
			"byteOffset":1496184,
			"target":34962
		},
		{
			"buffer":0,
			"byteLength":8268,
			"byteOffset":1504452,
			"target":34962
		},
		{
			"buffer":0,
			"byteLength":5512,
			"byteOffset":1512720,
			"target":34962
		},
		{
			"buffer":0,
			"byteLength":2756,
			"byteOffset":1518232,
			"target":34962
		},
		{
			"buffer":0,
			"byteLength":5512,
			"byteOffset":1520988,
			"target":34962
		},
		{
			"buffer":0,
			"byteLength":7728,
			"byteOffset":1526500,
			"target":34963
		},
		{
			"buffer":0,
			"byteLength":23496,
			"byteOffset":1534228,
			"target":34962
		},
		{
			"buffer":0,
			"byteLength":23496,
			"byteOffset":1557724,
			"target":34962
		},
		{
			"buffer":0,
			"byteLength":15664,
			"byteOffset":1581220,
			"target":34962
		},
		{
			"buffer":0,
			"byteLength":7832,
			"byteOffset":1596884,
			"target":34962
		},
		{
			"buffer":0,
			"byteLength":15664,
			"byteOffset":1604716,
			"target":34962
		},
		{
			"buffer":0,
			"byteLength":8304,
			"byteOffset":1620380,
			"target":34963
		},
		{
			"buffer":0,
			"byteLength":2712,
			"byteOffset":1628684,
			"target":34962
		},
		{
			"buffer":0,
			"byteLength":2712,
			"byteOffset":1631396,
			"target":34962
		},
		{
			"buffer":0,
			"byteLength":1808,
			"byteOffset":1634108,
			"target":34962
		},
		{
			"buffer":0,
			"byteLength":904,
			"byteOffset":1635916,
			"target":34962
		},
		{
			"buffer":0,
			"byteLength":1808,
			"byteOffset":1636820,
			"target":34962
		},
		{
			"buffer":0,
			"byteLength":2352,
			"byteOffset":1638628,
			"target":34963
		},
		{
			"buffer":0,
			"byteLength":48,
			"byteOffset":1640980,
			"target":34962
		},
		{
			"buffer":0,
			"byteLength":48,
			"byteOffset":1641028,
			"target":34962
		},
		{
			"buffer":0,
			"byteLength":32,
			"byteOffset":1641076,
			"target":34962
		},
		{
			"buffer":0,
			"byteLength":16,
			"byteOffset":1641108,
			"target":34962
		},
		{
			"buffer":0,
			"byteLength":32,
			"byteOffset":1641124,
			"target":34962
		},
		{
			"buffer":0,
			"byteLength":12,
			"byteOffset":1641156,
			"target":34963
		}
	],
	"samplers":[
		{
			"magFilter":9729,
			"minFilter":9987
		},
		{
			"magFilter":9729,
			"minFilter":9987,
			"wrapS":33071,
			"wrapT":33071
		}
	],
	"buffers":[
		{
			"byteLength":1641168,
			"uri":"office_design.bin"
		}
	]
}
