{
	"asset":{
		"copyright":"Eibriel",
		"generator":"Khronos glTF Blender I/O v4.3.47",
		"version":"2.0"
	},
	"scene":0,
	"scenes":[
		{
			"name":"Scene",
			"nodes":[
				0,
				1
			]
		}
	],
	"nodes":[
		{
			"mesh":0,
			"name":"ConcretePillar_A",
			"translation":[
				0,
				-1.0247275829315186,
				0
			]
		},
		{
			"mesh":1,
			"name":"ConcretePillar_B",
			"rotation":[
				0,
				0,
				1,
				4.371138828673793e-08
			],
			"translation":[
				0.005133973900228739,
				-0.674333930015564,
				0
			]
		}
	],
	"materials":[
		{
			"doubleSided":true,
			"name":"Concrete_Pillar_ujjleixga_Raw",
			"normalTexture":{
				"index":0
			},
			"occlusionTexture":{
				"index":1
			},
			"pbrMetallicRoughness":{
				"baseColorTexture":{
					"index":2
				},
				"metallicFactor":0,
				"metallicRoughnessTexture":{
					"index":1
				}
			}
		}
	],
	"meshes":[
		{
			"name":"ujjleixga_LOD0_TIER0_000_MatID_1_0",
			"primitives":[
				{
					"attributes":{
						"POSITION":0,
						"NORMAL":1,
						"TEXCOORD_0":2
					},
					"indices":3,
					"material":0
				}
			]
		},
		{
			"name":"ujjleixga_LOD0_TIER0_000_MatID_1_0.001",
			"primitives":[
				{
					"attributes":{
						"POSITION":4,
						"NORMAL":5,
						"TEXCOORD_0":6
					},
					"indices":7,
					"material":0
				}
			]
		}
	],
	"textures":[
		{
			"sampler":0,
			"source":0
		},
		{
			"sampler":0,
			"source":1
		},
		{
			"sampler":0,
			"source":2
		}
	],
	"images":[
		{
			"mimeType":"image/jpeg",
			"name":"Image_2",
			"uri":"office_textures/Image_2.jpg"
		},
		{
			"mimeType":"image/png",
			"name":"Image_1",
			"uri":"office_textures/Image_1.png"
		},
		{
			"mimeType":"image/jpeg",
			"name":"Image_0",
			"uri":"office_textures/Image_0.jpg"
		}
	],
	"accessors":[
		{
			"bufferView":0,
			"componentType":5126,
			"count":812,
			"max":[
				0.21387068927288055,
				1.426285743713379,
				0.24266177415847778
			],
			"min":[
				-0.20275303721427917,
				0.5975427627563477,
				-0.1904093325138092
			],
			"type":"VEC3"
		},
		{
			"bufferView":1,
			"componentType":5126,
			"count":812,
			"type":"VEC3"
		},
		{
			"bufferView":2,
			"componentType":5126,
			"count":812,
			"type":"VEC2"
		},
		{
			"bufferView":3,
			"componentType":5123,
			"count":4269,
			"type":"SCALAR"
		},
		{
			"bufferView":4,
			"componentType":5126,
			"count":1316,
			"max":[
				0.22172199189662933,
				-0.25415945053100586,
				0.23107177019119263
			],
			"min":[
				-0.20178115367889404,
				-1.0763020515441895,
				-0.19981004297733307
			],
			"type":"VEC3"
		},
		{
			"bufferView":5,
			"componentType":5126,
			"count":1316,
			"type":"VEC3"
		},
		{
			"bufferView":6,
			"componentType":5126,
			"count":1316,
			"type":"VEC2"
		},
		{
			"bufferView":7,
			"componentType":5123,
			"count":7239,
			"type":"SCALAR"
		}
	],
	"bufferViews":[
		{
			"buffer":0,
			"byteLength":9744,
			"byteOffset":0,
			"target":34962
		},
		{
			"buffer":0,
			"byteLength":9744,
			"byteOffset":9744,
			"target":34962
		},
		{
			"buffer":0,
			"byteLength":6496,
			"byteOffset":19488,
			"target":34962
		},
		{
			"buffer":0,
			"byteLength":8538,
			"byteOffset":25984,
			"target":34963
		},
		{
			"buffer":0,
			"byteLength":15792,
			"byteOffset":34524,
			"target":34962
		},
		{
			"buffer":0,
			"byteLength":15792,
			"byteOffset":50316,
			"target":34962
		},
		{
			"buffer":0,
			"byteLength":10528,
			"byteOffset":66108,
			"target":34962
		},
		{
			"buffer":0,
			"byteLength":14478,
			"byteOffset":76636,
			"target":34963
		}
	],
	"samplers":[
		{
			"magFilter":9729,
			"minFilter":9987
		}
	],
	"buffers":[
		{
			"byteLength":91116,
			"uri":"robot_base.bin"
		}
	]
}
