{
	"asset":{
		"copyright":"Eibriel",
		"generator":"Khronos glTF Blender I/O v4.3.47",
		"version":"2.0"
	},
	"scene":0,
	"scenes":[
		{
			"name":"Scene",
			"nodes":[
				0,
				1
			]
		}
	],
	"nodes":[
		{
			"mesh":0,
			"name":"ConcretePillar_A"
		},
		{
			"mesh":1,
			"name":"ConcretePillar_B"
		}
	],
	"materials":[
		{
			"doubleSided":true,
			"name":"Concrete_Pillar_ujjleixga_Raw",
			"normalTexture":{
				"index":0
			},
			"pbrMetallicRoughness":{
				"baseColorTexture":{
					"index":1
				},
				"metallicFactor":0,
				"metallicRoughnessTexture":{
					"index":2
				}
			}
		}
	],
	"meshes":[
		{
			"name":"ujjleixga_LOD0_TIER0_000_MatID_1_0",
			"primitives":[
				{
					"attributes":{
						"POSITION":0,
						"NORMAL":1,
						"TEXCOORD_0":2
					},
					"indices":3,
					"material":0
				}
			]
		},
		{
			"name":"ujjleixga_LOD0_TIER0_000_MatID_1_0.001",
			"primitives":[
				{
					"attributes":{
						"POSITION":4,
						"NORMAL":5,
						"TEXCOORD_0":6
					},
					"indices":7,
					"material":0
				}
			]
		}
	],
	"textures":[
		{
			"sampler":0,
			"source":0
		},
		{
			"sampler":0,
			"source":1
		},
		{
			"sampler":0,
			"source":2
		}
	],
	"images":[
		{
			"mimeType":"image/jpeg",
			"name":"ConcretePillar_A_Normal",
			"uri":"office_textures/ConcretePillar_A_Normal.jpg"
		},
		{
			"mimeType":"image/jpeg",
			"name":"ConcretePillar_A_Base",
			"uri":"office_textures/ConcretePillar_A_Base.jpg"
		},
		{
			"mimeType":"image/png",
			"name":"ConcretePillar_A_MR",
			"uri":"office_textures/ConcretePillar_A_MR.png"
		}
	],
	"accessors":[
		{
			"bufferView":0,
			"componentType":5126,
			"count":812,
			"max":[
				0.19684648513793945,
				0.34439656138420105,
				0.20603270828723907
			],
			"min":[
				-0.19838395714759827,
				-0.44184181094169617,
				-0.20480065047740936
			],
			"type":"VEC3"
		},
		{
			"bufferView":1,
			"componentType":5126,
			"count":812,
			"type":"VEC3"
		},
		{
			"bufferView":2,
			"componentType":5126,
			"count":812,
			"type":"VEC2"
		},
		{
			"bufferView":3,
			"componentType":5123,
			"count":4269,
			"type":"SCALAR"
		},
		{
			"bufferView":4,
			"componentType":5126,
			"count":1316,
			"max":[
				0.19981923699378967,
				0.3453173041343689,
				0.2040390521287918
			],
			"min":[
				-0.20139308273792267,
				-0.4335521459579468,
				-0.20416328310966492
			],
			"type":"VEC3"
		},
		{
			"bufferView":5,
			"componentType":5126,
			"count":1316,
			"type":"VEC3"
		},
		{
			"bufferView":6,
			"componentType":5126,
			"count":1316,
			"type":"VEC2"
		},
		{
			"bufferView":7,
			"componentType":5123,
			"count":7242,
			"type":"SCALAR"
		}
	],
	"bufferViews":[
		{
			"buffer":0,
			"byteLength":9744,
			"byteOffset":0,
			"target":34962
		},
		{
			"buffer":0,
			"byteLength":9744,
			"byteOffset":9744,
			"target":34962
		},
		{
			"buffer":0,
			"byteLength":6496,
			"byteOffset":19488,
			"target":34962
		},
		{
			"buffer":0,
			"byteLength":8538,
			"byteOffset":25984,
			"target":34963
		},
		{
			"buffer":0,
			"byteLength":15792,
			"byteOffset":34524,
			"target":34962
		},
		{
			"buffer":0,
			"byteLength":15792,
			"byteOffset":50316,
			"target":34962
		},
		{
			"buffer":0,
			"byteLength":10528,
			"byteOffset":66108,
			"target":34962
		},
		{
			"buffer":0,
			"byteLength":14484,
			"byteOffset":76636,
			"target":34963
		}
	],
	"samplers":[
		{
			"magFilter":9729,
			"minFilter":9987
		}
	],
	"buffers":[
		{
			"byteLength":91120,
			"uri":"robot_base.bin"
		}
	]
}
