{
	"asset":{
		"copyright":"Eibriel",
		"generator":"Khronos glTF Blender I/O v4.3.47",
		"version":"2.0"
	},
	"scene":0,
	"scenes":[
		{
			"name":"BalloonCongrats",
			"nodes":[
				0,
				1,
				2,
				3,
				4,
				5,
				6,
				7
			]
		}
	],
	"nodes":[
		{
			"mesh":0,
			"name":"Object_4.002",
			"translation":[
				-12.49777603149414,
				0.4860244691371918,
				0
			]
		},
		{
			"mesh":1,
			"name":"Object_2.002",
			"translation":[
				-8.769525527954102,
				0.49335432052612305,
				0.010042794048786163
			]
		},
		{
			"mesh":2,
			"name":"Object_6.001",
			"translation":[
				-5.329343318939209,
				0.5076947212219238,
				0.012727925553917885
			]
		},
		{
			"mesh":3,
			"name":"Object_5.003",
			"translation":[
				-1.6607694625854492,
				0.29608917236328125,
				0.06100170686841011
			]
		},
		{
			"mesh":4,
			"name":"Object_7.004",
			"translation":[
				1.994516372680664,
				0.5225067138671875,
				-0.11813024431467056
			]
		},
		{
			"mesh":5,
			"name":"Object_5.004",
			"translation":[
				6.161676406860352,
				0.1789865493774414,
				0.11280716955661774
			]
		},
		{
			"mesh":6,
			"name":"Object_3.002",
			"translation":[
				9.332073211669922,
				0.7951359748840332,
				0.05163438618183136
			]
		},
		{
			"mesh":7,
			"name":"Object_6.002",
			"translation":[
				13.192558288574219,
				0.3963944911956787,
				-0.0035786547232419252
			]
		}
	],
	"materials":[
		{
			"doubleSided":true,
			"name":"anisotropic1SG",
			"pbrMetallicRoughness":{
				"baseColorFactor":[
					0.4286220967769623,
					0.3122146427631378,
					0.17126919329166412,
					1
				],
				"roughnessFactor":0.19073933362960815
			}
		}
	],
	"meshes":[
		{
			"name":"Object_2.004",
			"primitives":[
				{
					"attributes":{
						"POSITION":0,
						"NORMAL":1,
						"TEXCOORD_0":2
					},
					"indices":3,
					"material":0
				}
			]
		},
		{
			"name":"Object_0.008",
			"primitives":[
				{
					"attributes":{
						"POSITION":4,
						"NORMAL":5,
						"TEXCOORD_0":6
					},
					"indices":7,
					"material":0
				}
			]
		},
		{
			"name":"Object_4.003",
			"primitives":[
				{
					"attributes":{
						"POSITION":8,
						"NORMAL":9,
						"TEXCOORD_0":10
					},
					"indices":11,
					"material":0
				}
			]
		},
		{
			"name":"Object_3.005",
			"primitives":[
				{
					"attributes":{
						"POSITION":12,
						"NORMAL":13,
						"TEXCOORD_0":14
					},
					"indices":15,
					"material":0
				}
			]
		},
		{
			"name":"Object_5.003",
			"primitives":[
				{
					"attributes":{
						"POSITION":16,
						"NORMAL":17,
						"TEXCOORD_0":18
					},
					"indices":19,
					"material":0
				}
			]
		},
		{
			"name":"Object_3.006",
			"primitives":[
				{
					"attributes":{
						"POSITION":20,
						"NORMAL":21,
						"TEXCOORD_0":22
					},
					"indices":23,
					"material":0
				}
			]
		},
		{
			"name":"Object_1.005",
			"primitives":[
				{
					"attributes":{
						"POSITION":24,
						"NORMAL":25,
						"TEXCOORD_0":26
					},
					"indices":27,
					"material":0
				}
			]
		},
		{
			"name":"Object_4.004",
			"primitives":[
				{
					"attributes":{
						"POSITION":28,
						"NORMAL":29,
						"TEXCOORD_0":30
					},
					"indices":31,
					"material":0
				}
			]
		}
	],
	"accessors":[
		{
			"bufferView":0,
			"componentType":5126,
			"count":1561,
			"max":[
				1.5752198696136475,
				1.4831122159957886,
				0.39041003584861755
			],
			"min":[
				-1.5456620454788208,
				-1.6335848569869995,
				-0.45600736141204834
			],
			"type":"VEC3"
		},
		{
			"bufferView":1,
			"componentType":5126,
			"count":1561,
			"type":"VEC3"
		},
		{
			"bufferView":2,
			"componentType":5126,
			"count":1561,
			"type":"VEC2"
		},
		{
			"bufferView":3,
			"componentType":5123,
			"count":7605,
			"type":"SCALAR"
		},
		{
			"bufferView":4,
			"componentType":5126,
			"count":2198,
			"max":[
				1.3721909523010254,
				1.51493501663208,
				0.3946272134780884
			],
			"min":[
				-1.3528300523757935,
				-1.54744291305542,
				-0.37931111454963684
			],
			"type":"VEC3"
		},
		{
			"bufferView":5,
			"componentType":5126,
			"count":2198,
			"type":"VEC3"
		},
		{
			"bufferView":6,
			"componentType":5126,
			"count":2198,
			"type":"VEC2"
		},
		{
			"bufferView":7,
			"componentType":5123,
			"count":11142,
			"type":"SCALAR"
		},
		{
			"bufferView":8,
			"componentType":5126,
			"count":2349,
			"max":[
				1.343383550643921,
				1.4906415939331055,
				0.5328895449638367
			],
			"min":[
				-1.3282012939453125,
				-1.5070395469665527,
				-0.5440906882286072
			],
			"type":"VEC3"
		},
		{
			"bufferView":9,
			"componentType":5126,
			"count":2349,
			"type":"VEC3"
		},
		{
			"bufferView":10,
			"componentType":5126,
			"count":2349,
			"type":"VEC2"
		},
		{
			"bufferView":11,
			"componentType":5123,
			"count":11979,
			"type":"SCALAR"
		},
		{
			"bufferView":12,
			"componentType":5126,
			"count":1054,
			"max":[
				1.3364195823669434,
				1.5880374908447266,
				0.29628169536590576
			],
			"min":[
				-1.6614913940429688,
				-1.5213432312011719,
				-0.1980985552072525
			],
			"type":"VEC3"
		},
		{
			"bufferView":13,
			"componentType":5126,
			"count":1054,
			"type":"VEC3"
		},
		{
			"bufferView":14,
			"componentType":5126,
			"count":1054,
			"type":"VEC2"
		},
		{
			"bufferView":15,
			"componentType":5123,
			"count":5202,
			"type":"SCALAR"
		},
		{
			"bufferView":16,
			"componentType":5126,
			"count":2233,
			"max":[
				1.6409425735473633,
				1.5428528785705566,
				0.4082246422767639
			],
			"min":[
				-1.552417278289795,
				-1.7877740859985352,
				-0.3820202946662903
			],
			"type":"VEC3"
		},
		{
			"bufferView":17,
			"componentType":5126,
			"count":2233,
			"type":"VEC3"
		},
		{
			"bufferView":18,
			"componentType":5126,
			"count":2233,
			"type":"VEC2"
		},
		{
			"bufferView":19,
			"componentType":5123,
			"count":11289,
			"type":"SCALAR"
		},
		{
			"bufferView":20,
			"componentType":5126,
			"count":760,
			"max":[
				1.8862395286560059,
				1.9277935028076172,
				0.32475411891937256
			],
			"min":[
				-1.8435277938842773,
				-1.4111394882202148,
				-0.28686052560806274
			],
			"type":"VEC3"
		},
		{
			"bufferView":21,
			"componentType":5126,
			"count":760,
			"type":"VEC3"
		},
		{
			"bufferView":22,
			"componentType":5126,
			"count":760,
			"type":"VEC2"
		},
		{
			"bufferView":23,
			"componentType":5123,
			"count":3705,
			"type":"SCALAR"
		},
		{
			"bufferView":24,
			"componentType":5126,
			"count":655,
			"max":[
				1.4323184490203857,
				1.1489663124084473,
				0.2829550802707672
			],
			"min":[
				-1.4094934463500977,
				-1.9285475015640259,
				-0.15719909965991974
			],
			"type":"VEC3"
		},
		{
			"bufferView":25,
			"componentType":5126,
			"count":655,
			"type":"VEC3"
		},
		{
			"bufferView":26,
			"componentType":5126,
			"count":655,
			"type":"VEC2"
		},
		{
			"bufferView":27,
			"componentType":5123,
			"count":3270,
			"type":"SCALAR"
		},
		{
			"bufferView":28,
			"componentType":5126,
			"count":2358,
			"max":[
				1.5615277290344238,
				1.656477451324463,
				0.3736603558063507
			],
			"min":[
				-1.5612454414367676,
				-1.629960298538208,
				-0.3889123797416687
			],
			"type":"VEC3"
		},
		{
			"bufferView":29,
			"componentType":5126,
			"count":2358,
			"type":"VEC3"
		},
		{
			"bufferView":30,
			"componentType":5126,
			"count":2358,
			"type":"VEC2"
		},
		{
			"bufferView":31,
			"componentType":5123,
			"count":11886,
			"type":"SCALAR"
		}
	],
	"bufferViews":[
		{
			"buffer":0,
			"byteLength":18732,
			"byteOffset":0,
			"target":34962
		},
		{
			"buffer":0,
			"byteLength":18732,
			"byteOffset":18732,
			"target":34962
		},
		{
			"buffer":0,
			"byteLength":12488,
			"byteOffset":37464,
			"target":34962
		},
		{
			"buffer":0,
			"byteLength":15210,
			"byteOffset":49952,
			"target":34963
		},
		{
			"buffer":0,
			"byteLength":26376,
			"byteOffset":65164,
			"target":34962
		},
		{
			"buffer":0,
			"byteLength":26376,
			"byteOffset":91540,
			"target":34962
		},
		{
			"buffer":0,
			"byteLength":17584,
			"byteOffset":117916,
			"target":34962
		},
		{
			"buffer":0,
			"byteLength":22284,
			"byteOffset":135500,
			"target":34963
		},
		{
			"buffer":0,
			"byteLength":28188,
			"byteOffset":157784,
			"target":34962
		},
		{
			"buffer":0,
			"byteLength":28188,
			"byteOffset":185972,
			"target":34962
		},
		{
			"buffer":0,
			"byteLength":18792,
			"byteOffset":214160,
			"target":34962
		},
		{
			"buffer":0,
			"byteLength":23958,
			"byteOffset":232952,
			"target":34963
		},
		{
			"buffer":0,
			"byteLength":12648,
			"byteOffset":256912,
			"target":34962
		},
		{
			"buffer":0,
			"byteLength":12648,
			"byteOffset":269560,
			"target":34962
		},
		{
			"buffer":0,
			"byteLength":8432,
			"byteOffset":282208,
			"target":34962
		},
		{
			"buffer":0,
			"byteLength":10404,
			"byteOffset":290640,
			"target":34963
		},
		{
			"buffer":0,
			"byteLength":26796,
			"byteOffset":301044,
			"target":34962
		},
		{
			"buffer":0,
			"byteLength":26796,
			"byteOffset":327840,
			"target":34962
		},
		{
			"buffer":0,
			"byteLength":17864,
			"byteOffset":354636,
			"target":34962
		},
		{
			"buffer":0,
			"byteLength":22578,
			"byteOffset":372500,
			"target":34963
		},
		{
			"buffer":0,
			"byteLength":9120,
			"byteOffset":395080,
			"target":34962
		},
		{
			"buffer":0,
			"byteLength":9120,
			"byteOffset":404200,
			"target":34962
		},
		{
			"buffer":0,
			"byteLength":6080,
			"byteOffset":413320,
			"target":34962
		},
		{
			"buffer":0,
			"byteLength":7410,
			"byteOffset":419400,
			"target":34963
		},
		{
			"buffer":0,
			"byteLength":7860,
			"byteOffset":426812,
			"target":34962
		},
		{
			"buffer":0,
			"byteLength":7860,
			"byteOffset":434672,
			"target":34962
		},
		{
			"buffer":0,
			"byteLength":5240,
			"byteOffset":442532,
			"target":34962
		},
		{
			"buffer":0,
			"byteLength":6540,
			"byteOffset":447772,
			"target":34963
		},
		{
			"buffer":0,
			"byteLength":28296,
			"byteOffset":454312,
			"target":34962
		},
		{
			"buffer":0,
			"byteLength":28296,
			"byteOffset":482608,
			"target":34962
		},
		{
			"buffer":0,
			"byteLength":18864,
			"byteOffset":510904,
			"target":34962
		},
		{
			"buffer":0,
			"byteLength":23772,
			"byteOffset":529768,
			"target":34963
		}
	],
	"buffers":[
		{
			"byteLength":553540,
			"uri":"BalloonCongrats.bin"
		}
	]
}
