{
	"asset":{
		"copyright":"Eibriel",
		"generator":"Khronos glTF Blender I/O v4.3.47",
		"version":"2.0"
	},
	"scene":0,
	"scenes":[
		{
			"name":"BalloonCongrats",
			"nodes":[
				0,
				1,
				2,
				3,
				4,
				5
			]
		}
	],
	"nodes":[
		{
			"mesh":0,
			"name":"Object_5.004",
			"translation":[
				-1.3612329959869385,
				0.5514079332351685,
				0.11280722171068192
			]
		},
		{
			"mesh":1,
			"name":"Object_3.005",
			"translation":[
				-5.122281074523926,
				0.8135735988616943,
				0.032420963048934937
			]
		},
		{
			"mesh":2,
			"name":"Object_5.005",
			"translation":[
				2.3530313968658447,
				0.7836968898773193,
				-0.025848444551229477
			]
		},
		{
			"mesh":3,
			"name":"Object_5.009",
			"translation":[
				5.866480827331543,
				0.4227176606655121,
				0.12606677412986755
			]
		},
		{
			"mesh":4,
			"name":"Object_2.003",
			"scale":[
				1.2072159051895142,
				1.2072160243988037,
				1.2072160243988037
			],
			"translation":[
				-1.80040442943573,
				-3.7928402423858643,
				0.07647206634283066
			]
		},
		{
			"mesh":5,
			"name":"Object_2.006",
			"scale":[
				1.2072159051895142,
				1.2072160243988037,
				1.2072160243988037
			],
			"translation":[
				1.8704344034194946,
				-3.6612436771392822,
				-0.006149121560156345
			]
		}
	],
	"materials":[
		{
			"doubleSided":true,
			"name":"anisotropic1SG",
			"pbrMetallicRoughness":{
				"baseColorFactor":[
					0.4286220967769623,
					0.3122146427631378,
					0.17126919329166412,
					1
				],
				"roughnessFactor":0.19073933362960815
			}
		}
	],
	"meshes":[
		{
			"name":"Object_3.006",
			"primitives":[
				{
					"attributes":{
						"POSITION":0,
						"NORMAL":1,
						"TEXCOORD_0":2
					},
					"indices":3,
					"material":0
				}
			]
		},
		{
			"name":"Object_1.011",
			"primitives":[
				{
					"attributes":{
						"POSITION":4,
						"NORMAL":5,
						"TEXCOORD_0":6
					},
					"indices":7,
					"material":0
				}
			]
		},
		{
			"name":"Object_3.012",
			"primitives":[
				{
					"attributes":{
						"POSITION":8,
						"NORMAL":9,
						"TEXCOORD_0":10
					},
					"indices":11,
					"material":0
				}
			]
		},
		{
			"name":"Object_3.013",
			"primitives":[
				{
					"attributes":{
						"POSITION":12,
						"NORMAL":13,
						"TEXCOORD_0":14
					},
					"indices":15,
					"material":0
				}
			]
		},
		{
			"name":"Object_0.014",
			"primitives":[
				{
					"attributes":{
						"POSITION":16,
						"NORMAL":17,
						"TEXCOORD_0":18
					},
					"indices":19,
					"material":0
				}
			]
		},
		{
			"name":"Object_0.015",
			"primitives":[
				{
					"attributes":{
						"POSITION":20,
						"NORMAL":21,
						"TEXCOORD_0":22
					},
					"indices":23,
					"material":0
				}
			]
		}
	],
	"accessors":[
		{
			"bufferView":0,
			"componentType":5126,
			"count":760,
			"max":[
				1.8862395286560059,
				1.9277935028076172,
				0.32475411891937256
			],
			"min":[
				-1.8435277938842773,
				-1.4111394882202148,
				-0.28686052560806274
			],
			"type":"VEC3"
		},
		{
			"bufferView":1,
			"componentType":5126,
			"count":760,
			"type":"VEC3"
		},
		{
			"bufferView":2,
			"componentType":5126,
			"count":760,
			"type":"VEC2"
		},
		{
			"bufferView":3,
			"componentType":5123,
			"count":3705,
			"type":"SCALAR"
		},
		{
			"bufferView":4,
			"componentType":5126,
			"count":2602,
			"max":[
				2.392782688140869,
				1.4306116104125977,
				0.437820166349411
			],
			"min":[
				-2.444376230239868,
				-1.6280882358551025,
				-0.4266972541809082
			],
			"type":"VEC3"
		},
		{
			"bufferView":5,
			"componentType":5126,
			"count":2602,
			"type":"VEC3"
		},
		{
			"bufferView":6,
			"componentType":5126,
			"count":2602,
			"type":"VEC2"
		},
		{
			"bufferView":7,
			"componentType":5123,
			"count":12798,
			"type":"SCALAR"
		},
		{
			"bufferView":8,
			"componentType":5126,
			"count":1999,
			"max":[
				1.7228641510009766,
				1.5670442581176758,
				0.4870772361755371
			],
			"min":[
				-1.4083428382873535,
				-1.7045087814331055,
				-0.47862765192985535
			],
			"type":"VEC3"
		},
		{
			"bufferView":9,
			"componentType":5126,
			"count":1999,
			"type":"VEC3"
		},
		{
			"bufferView":10,
			"componentType":5126,
			"count":1999,
			"type":"VEC2"
		},
		{
			"bufferView":11,
			"componentType":5123,
			"count":9858,
			"type":"SCALAR"
		},
		{
			"bufferView":12,
			"componentType":5126,
			"count":1185,
			"max":[
				1.3109397888183594,
				1.560847282409668,
				0.2601080536842346
			],
			"min":[
				-1.259784460067749,
				-1.620016098022461,
				-0.15430104732513428
			],
			"type":"VEC3"
		},
		{
			"bufferView":13,
			"componentType":5126,
			"count":1185,
			"type":"VEC3"
		},
		{
			"bufferView":14,
			"componentType":5126,
			"count":1185,
			"type":"VEC2"
		},
		{
			"bufferView":15,
			"componentType":5123,
			"count":5958,
			"type":"SCALAR"
		},
		{
			"bufferView":16,
			"componentType":5126,
			"count":754,
			"max":[
				1.3153969049453735,
				1.4776215553283691,
				0.29111799597740173
			],
			"min":[
				-1.3790611028671265,
				-1.7503142356872559,
				-0.14339078962802887
			],
			"type":"VEC3"
		},
		{
			"bufferView":17,
			"componentType":5126,
			"count":754,
			"type":"VEC3"
		},
		{
			"bufferView":18,
			"componentType":5126,
			"count":754,
			"type":"VEC2"
		},
		{
			"bufferView":19,
			"componentType":5123,
			"count":3609,
			"type":"SCALAR"
		},
		{
			"bufferView":20,
			"componentType":5126,
			"count":1751,
			"max":[
				1.3859962224960327,
				1.299635887145996,
				0.43469008803367615
			],
			"min":[
				-1.1517236232757568,
				-1.658371925354004,
				-0.4064808487892151
			],
			"type":"VEC3"
		},
		{
			"bufferView":21,
			"componentType":5126,
			"count":1751,
			"type":"VEC3"
		},
		{
			"bufferView":22,
			"componentType":5126,
			"count":1751,
			"type":"VEC2"
		},
		{
			"bufferView":23,
			"componentType":5123,
			"count":8808,
			"type":"SCALAR"
		}
	],
	"bufferViews":[
		{
			"buffer":0,
			"byteLength":9120,
			"byteOffset":0,
			"target":34962
		},
		{
			"buffer":0,
			"byteLength":9120,
			"byteOffset":9120,
			"target":34962
		},
		{
			"buffer":0,
			"byteLength":6080,
			"byteOffset":18240,
			"target":34962
		},
		{
			"buffer":0,
			"byteLength":7410,
			"byteOffset":24320,
			"target":34963
		},
		{
			"buffer":0,
			"byteLength":31224,
			"byteOffset":31732,
			"target":34962
		},
		{
			"buffer":0,
			"byteLength":31224,
			"byteOffset":62956,
			"target":34962
		},
		{
			"buffer":0,
			"byteLength":20816,
			"byteOffset":94180,
			"target":34962
		},
		{
			"buffer":0,
			"byteLength":25596,
			"byteOffset":114996,
			"target":34963
		},
		{
			"buffer":0,
			"byteLength":23988,
			"byteOffset":140592,
			"target":34962
		},
		{
			"buffer":0,
			"byteLength":23988,
			"byteOffset":164580,
			"target":34962
		},
		{
			"buffer":0,
			"byteLength":15992,
			"byteOffset":188568,
			"target":34962
		},
		{
			"buffer":0,
			"byteLength":19716,
			"byteOffset":204560,
			"target":34963
		},
		{
			"buffer":0,
			"byteLength":14220,
			"byteOffset":224276,
			"target":34962
		},
		{
			"buffer":0,
			"byteLength":14220,
			"byteOffset":238496,
			"target":34962
		},
		{
			"buffer":0,
			"byteLength":9480,
			"byteOffset":252716,
			"target":34962
		},
		{
			"buffer":0,
			"byteLength":11916,
			"byteOffset":262196,
			"target":34963
		},
		{
			"buffer":0,
			"byteLength":9048,
			"byteOffset":274112,
			"target":34962
		},
		{
			"buffer":0,
			"byteLength":9048,
			"byteOffset":283160,
			"target":34962
		},
		{
			"buffer":0,
			"byteLength":6032,
			"byteOffset":292208,
			"target":34962
		},
		{
			"buffer":0,
			"byteLength":7218,
			"byteOffset":298240,
			"target":34963
		},
		{
			"buffer":0,
			"byteLength":21012,
			"byteOffset":305460,
			"target":34962
		},
		{
			"buffer":0,
			"byteLength":21012,
			"byteOffset":326472,
			"target":34962
		},
		{
			"buffer":0,
			"byteLength":14008,
			"byteOffset":347484,
			"target":34962
		},
		{
			"buffer":0,
			"byteLength":17616,
			"byteOffset":361492,
			"target":34963
		}
	],
	"buffers":[
		{
			"byteLength":379108,
			"uri":"BalloonCongrats.bin"
		}
	]
}
