{
	"asset":{
		"copyright":"Eibriel",
		"generator":"Khronos glTF Blender I/O v4.3.47",
		"version":"2.0"
	},
	"extensionsUsed":[
		"KHR_materials_specular",
		"KHR_materials_ior"
	],
	"scene":0,
	"scenes":[
		{
			"name":"Body",
			"nodes":[
				0
			]
		}
	],
	"nodes":[
		{
			"mesh":0,
			"name":"Humano_Posed_0644985-Man_01_LOD1",
			"rotation":[
				-0.7071068286895752,
				0,
				0,
				0.7071068286895752
			],
			"scale":[
				1.233451247215271,
				1.233451247215271,
				1.233451247215271
			]
		}
	],
	"materials":[
		{
			"doubleSided":true,
			"extensions":{
				"KHR_materials_specular":{
					"specularTexture":{
						"index":0
					}
				},
				"KHR_materials_ior":{
					"ior":1.4500000476837158
				}
			},
			"name":"Humano_Posed_0644985-Man_01_LOD1_4K",
			"normalTexture":{
				"index":1
			},
			"pbrMetallicRoughness":{
				"baseColorTexture":{
					"index":2
				},
				"metallicFactor":0,
				"metallicRoughnessTexture":{
					"index":3
				}
			}
		}
	],
	"meshes":[
		{
			"name":"Humano_Posed_0644985-Man_01_LOD1",
			"primitives":[
				{
					"attributes":{
						"POSITION":0,
						"NORMAL":1,
						"TEXCOORD_0":2,
						"COLOR_0":3,
						"COLOR_1":4
					},
					"indices":5,
					"material":0
				}
			]
		}
	],
	"textures":[
		{
			"sampler":0,
			"source":0
		},
		{
			"sampler":0,
			"source":1
		},
		{
			"sampler":0,
			"source":2
		},
		{
			"sampler":0,
			"source":3
		}
	],
	"images":[
		{
			"mimeType":"image/jpeg",
			"name":"Humano_Posed_0644985-Man_Specular_4K",
			"uri":"props_textures/Humano_Posed_0644985-Man_Specular_4K.jpg"
		},
		{
			"mimeType":"image/jpeg",
			"name":"Humano_Posed_0644985-Man_Normal-LOD1_4K",
			"uri":"props_textures/Humano_Posed_0644985-Man_Normal-LOD1_4K.jpg"
		},
		{
			"mimeType":"image/jpeg",
			"name":"Humano_Posed_0644985-Man_Color01_4K",
			"uri":"props_textures/Humano_Posed_0644985-Man_Color01_4K.jpg"
		},
		{
			"mimeType":"image/png",
			"name":"Humano_Posed_0644985-Man_Roughness_4K",
			"uri":"props_textures/Humano_Posed_0644985-Man_Roughness_4K.png"
		}
	],
	"accessors":[
		{
			"bufferView":0,
			"componentType":5126,
			"count":9959,
			"max":[
				0.22789014875888824,
				0.4184368848800659,
				0.5592761039733887
			],
			"min":[
				-0.41036495566368103,
				-0.7197210788726807,
				-0.02785584330558777
			],
			"type":"VEC3"
		},
		{
			"bufferView":1,
			"componentType":5126,
			"count":9959,
			"type":"VEC3"
		},
		{
			"bufferView":2,
			"componentType":5126,
			"count":9959,
			"type":"VEC2"
		},
		{
			"bufferView":3,
			"componentType":5121,
			"count":9959,
			"normalized":true,
			"type":"VEC4"
		},
		{
			"bufferView":4,
			"componentType":5123,
			"count":9959,
			"normalized":true,
			"type":"VEC4"
		},
		{
			"bufferView":5,
			"componentType":5123,
			"count":49953,
			"type":"SCALAR"
		}
	],
	"bufferViews":[
		{
			"buffer":0,
			"byteLength":119508,
			"byteOffset":0,
			"target":34962
		},
		{
			"buffer":0,
			"byteLength":119508,
			"byteOffset":119508,
			"target":34962
		},
		{
			"buffer":0,
			"byteLength":79672,
			"byteOffset":239016,
			"target":34962
		},
		{
			"buffer":0,
			"byteLength":39836,
			"byteOffset":318688,
			"target":34962
		},
		{
			"buffer":0,
			"byteLength":79672,
			"byteOffset":358524,
			"target":34962
		},
		{
			"buffer":0,
			"byteLength":99906,
			"byteOffset":438196,
			"target":34963
		}
	],
	"samplers":[
		{
			"magFilter":9729,
			"minFilter":9987
		}
	],
	"buffers":[
		{
			"byteLength":538104,
			"uri":"Body.bin"
		}
	]
}
