{
	"asset":{
		"copyright":"Eibriel",
		"generator":"Khronos glTF Blender I/O v4.3.47",
		"version":"2.0"
	},
	"extensionsUsed":[
		"KHR_materials_specular"
	],
	"scene":0,
	"scenes":[
		{
			"name":"Body",
			"nodes":[
				0,
				1,
				2,
				3,
				4,
				5,
				6,
				7
			]
		}
	],
	"nodes":[
		{
			"mesh":0,
			"name":"CEOPlate",
			"rotation":[
				0,
				0.17659306526184082,
				0,
				0.984283983707428
			],
			"scale":[
				0.6983005404472351,
				0.6983004808425903,
				0.6983005404472351
			],
			"translation":[
				0.3549812436103821,
				-0.0038545411080121994,
				-1.2952772378921509
			]
		},
		{
			"mesh":1,
			"name":"BloodBig",
			"translation":[
				0.10500359535217285,
				0.0050801560282707214,
				-0.48694106936454773
			]
		},
		{
			"mesh":2,
			"name":"BloodSmall",
			"rotation":[
				0,
				0.9986411929130554,
				0,
				0.05211299657821655
			],
			"scale":[
				0.5207805037498474,
				0.5207805633544922,
				0.5207805037498474
			],
			"translation":[
				-0.6572805047035217,
				0.0050801560282707214,
				-1.1478866338729858
			]
		},
		{
			"mesh":3,
			"name":"Sweatshirt.001",
			"rotation":[
				0.7071068286895752,
				0,
				0,
				0.7071068286895752
			],
			"scale":[
				0.009999998845160007,
				0.009999999776482582,
				0.010000000707805157
			],
			"translation":[
				-0.0003504212945699692,
				-0.007154169958084822,
				-0.005909694358706474
			]
		},
		{
			"mesh":4,
			"name":"Pants.001",
			"rotation":[
				0.7071068286895752,
				0,
				0,
				0.7071068286895752
			],
			"scale":[
				0.009999999776482582,
				0.009999999776482582,
				0.009999998845160007
			],
			"translation":[
				-0.00035043703974224627,
				-0.007154172286391258,
				-0.005909701343625784
			]
		},
		{
			"mesh":5,
			"name":"Body.001",
			"rotation":[
				0.7071068286895752,
				0,
				0,
				0.7071068286895752
			],
			"scale":[
				0.009999999776482582,
				0.009999999776482582,
				0.009999998845160007
			]
		},
		{
			"mesh":6,
			"name":"Hair.001",
			"rotation":[
				0.7071068286895752,
				0,
				0,
				0.7071068286895752
			],
			"scale":[
				0.009999999776482582,
				0.009999999776482582,
				0.009999999776482582
			],
			"translation":[
				-0.00035043235402554274,
				-0.007154171355068684,
				-0.005909696687012911
			]
		},
		{
			"mesh":7,
			"name":"Shoes.001",
			"rotation":[
				0.7071068286895752,
				0,
				0,
				0.7071068286895752
			],
			"scale":[
				0.009999999776482582,
				0.009999999776482582,
				0.009999998845160007
			],
			"translation":[
				-0.00035043703974224627,
				-0.007154172286391258,
				-0.005909701343625784
			]
		}
	],
	"materials":[
		{
			"doubleSided":true,
			"name":"CEOPlateA",
			"normalTexture":{
				"index":0,
				"scale":0.05000000074505806
			},
			"pbrMetallicRoughness":{
				"baseColorTexture":{
					"index":1
				},
				"metallicRoughnessTexture":{
					"index":2
				}
			}
		},
		{
			"doubleSided":true,
			"emissiveFactor":[
				1,
				1,
				1
			],
			"emissiveTexture":{
				"index":3
			},
			"name":"CEOPlateB",
			"normalTexture":{
				"index":4
			},
			"pbrMetallicRoughness":{
				"baseColorTexture":{
					"index":5
				},
				"metallicRoughnessTexture":{
					"index":6
				}
			}
		},
		{
			"alphaMode":"BLEND",
			"doubleSided":true,
			"extensions":{
				"KHR_materials_specular":{
					"specularFactor":0
				}
			},
			"name":"BloodSplash",
			"pbrMetallicRoughness":{
				"baseColorTexture":{
					"index":7
				},
				"metallicFactor":0,
				"roughnessFactor":0.9136363863945007
			}
		},
		{
			"alphaMode":"BLEND",
			"doubleSided":true,
			"extensions":{
				"KHR_materials_specular":{
					"specularFactor":0
				}
			},
			"name":"BloodVacuum",
			"pbrMetallicRoughness":{
				"baseColorTexture":{
					"index":8
				},
				"metallicFactor":0,
				"roughnessFactor":0.9136363863945007
			}
		},
		{
			"doubleSided":true,
			"extensions":{
				"KHR_materials_specular":{
					"specularFactor":0.019999999552965164
				}
			},
			"name":"MikeAlger_Material.2",
			"pbrMetallicRoughness":{
				"baseColorTexture":{
					"index":9
				},
				"metallicFactor":0,
				"roughnessFactor":0.5527864098548889
			}
		},
		{
			"doubleSided":true,
			"extensions":{
				"KHR_materials_specular":{
					"specularFactor":0.006870537996292114
				}
			},
			"name":"MikeAlger_Material.3",
			"pbrMetallicRoughness":{
				"baseColorTexture":{
					"index":10
				},
				"metallicFactor":0,
				"roughnessFactor":0.5527864098548889
			}
		},
		{
			"doubleSided":true,
			"extensions":{
				"KHR_materials_specular":{
					"specularFactor":0.7142857313156128
				}
			},
			"name":"MikeAlger_Material",
			"pbrMetallicRoughness":{
				"baseColorTexture":{
					"index":11
				},
				"metallicFactor":0,
				"roughnessFactor":0.47905367612838745
			}
		},
		{
			"doubleSided":true,
			"extensions":{
				"KHR_materials_specular":{
					"specularFactor":0.4930875301361084
				}
			},
			"name":"MikeAlger_Material.4",
			"pbrMetallicRoughness":{
				"baseColorTexture":{
					"index":12
				},
				"metallicFactor":0,
				"roughnessFactor":0.6679937839508057
			}
		},
		{
			"doubleSided":true,
			"extensions":{
				"KHR_materials_specular":{
					"specularFactor":0
				}
			},
			"name":"MikeAlger_Material.6",
			"pbrMetallicRoughness":{
				"baseColorTexture":{
					"index":13
				},
				"metallicFactor":0,
				"roughnessFactor":0.5527864098548889
			}
		}
	],
	"meshes":[
		{
			"name":"Object_1.006",
			"primitives":[
				{
					"attributes":{
						"POSITION":0,
						"NORMAL":1,
						"TEXCOORD_0":2,
						"TEXCOORD_1":3,
						"TEXCOORD_2":4,
						"TEXCOORD_3":5,
						"TEXCOORD_4":6
					},
					"indices":7,
					"material":0
				},
				{
					"attributes":{
						"POSITION":8,
						"NORMAL":9,
						"TEXCOORD_0":10,
						"TEXCOORD_1":11,
						"TEXCOORD_2":12,
						"TEXCOORD_3":13,
						"TEXCOORD_4":14
					},
					"indices":15,
					"material":1
				}
			]
		},
		{
			"name":"Plane.002",
			"primitives":[
				{
					"attributes":{
						"POSITION":16,
						"NORMAL":17,
						"TEXCOORD_0":18
					},
					"indices":7,
					"material":2
				}
			]
		},
		{
			"name":"Plane.003",
			"primitives":[
				{
					"attributes":{
						"POSITION":19,
						"NORMAL":20,
						"TEXCOORD_0":21
					},
					"indices":7,
					"material":3
				}
			]
		},
		{
			"name":"Mesh.064",
			"primitives":[
				{
					"attributes":{
						"POSITION":22,
						"NORMAL":23,
						"TEXCOORD_0":24
					},
					"indices":25,
					"material":4
				}
			]
		},
		{
			"name":"Mesh.065",
			"primitives":[
				{
					"attributes":{
						"POSITION":26,
						"NORMAL":27,
						"TEXCOORD_0":28
					},
					"indices":29,
					"material":5
				}
			]
		},
		{
			"name":"Mesh.066",
			"primitives":[
				{
					"attributes":{
						"POSITION":30,
						"NORMAL":31,
						"TEXCOORD_0":32
					},
					"indices":33,
					"material":6
				}
			]
		},
		{
			"name":"Mesh.067",
			"primitives":[
				{
					"attributes":{
						"POSITION":34,
						"NORMAL":35,
						"TEXCOORD_0":36
					},
					"indices":37,
					"material":7
				}
			]
		},
		{
			"name":"Mesh.068",
			"primitives":[
				{
					"attributes":{
						"POSITION":38,
						"NORMAL":39,
						"TEXCOORD_0":40
					},
					"indices":41,
					"material":8
				}
			]
		}
	],
	"textures":[
		{
			"sampler":0,
			"source":0
		},
		{
			"sampler":0,
			"source":1
		},
		{
			"sampler":0,
			"source":2
		},
		{
			"sampler":0,
			"source":3
		},
		{
			"sampler":0,
			"source":4
		},
		{
			"sampler":0,
			"source":5
		},
		{
			"sampler":0,
			"source":6
		},
		{
			"sampler":0,
			"source":7
		},
		{
			"sampler":0,
			"source":8
		},
		{
			"sampler":0,
			"source":9
		},
		{
			"sampler":0,
			"source":9
		},
		{
			"sampler":0,
			"source":9
		},
		{
			"sampler":0,
			"source":9
		},
		{
			"sampler":0,
			"source":9
		}
	],
	"images":[
		{
			"mimeType":"image/png",
			"name":"CEOPlateA_Normal",
			"uri":"props_textures/CEOPlateA_Normal.png"
		},
		{
			"mimeType":"image/png",
			"name":"CEOPlateA_Base",
			"uri":"props_textures/CEOPlateA_Base.png"
		},
		{
			"mimeType":"image/png",
			"name":"CEOPlateA_MR",
			"uri":"props_textures/CEOPlateA_MR.png"
		},
		{
			"mimeType":"image/png",
			"name":"CEOPlateB_Emissive",
			"uri":"props_textures/CEOPlateB_Emissive.png"
		},
		{
			"mimeType":"image/png",
			"name":"CEOPlateB_Normal",
			"uri":"props_textures/CEOPlateB_Normal.png"
		},
		{
			"mimeType":"image/png",
			"name":"CEOPlateB_Base",
			"uri":"props_textures/CEOPlateB_Base.png"
		},
		{
			"mimeType":"image/png",
			"name":"CEOPlateB_MR",
			"uri":"props_textures/CEOPlateB_MR.png"
		},
		{
			"mimeType":"image/png",
			"name":"BloodSplash_Base",
			"uri":"props_textures/BloodSplash_Base.png"
		},
		{
			"mimeType":"image/png",
			"name":"BloodVacuum_Base",
			"uri":"props_textures/BloodVacuum_Base.png"
		},
		{
			"mimeType":"image/jpeg",
			"name":"MikeAlger_Texture",
			"uri":"props_textures/MikeAlger_Texture.jpg"
		}
	],
	"accessors":[
		{
			"bufferView":0,
			"componentType":5126,
			"count":4,
			"max":[
				0.3748021423816681,
				0.19261306524276733,
				0.1539769321680069
			],
			"min":[
				-0.3691536784172058,
				0.011070691049098969,
				0.07088494300842285
			],
			"type":"VEC3"
		},
		{
			"bufferView":1,
			"componentType":5126,
			"count":4,
			"type":"VEC3"
		},
		{
			"bufferView":2,
			"componentType":5126,
			"count":4,
			"type":"VEC2"
		},
		{
			"bufferView":3,
			"componentType":5126,
			"count":4,
			"type":"VEC2"
		},
		{
			"bufferView":4,
			"componentType":5126,
			"count":4,
			"type":"VEC2"
		},
		{
			"bufferView":5,
			"componentType":5126,
			"count":4,
			"type":"VEC2"
		},
		{
			"bufferView":6,
			"componentType":5126,
			"count":4,
			"type":"VEC2"
		},
		{
			"bufferView":7,
			"componentType":5123,
			"count":6,
			"type":"SCALAR"
		},
		{
			"bufferView":8,
			"componentType":5126,
			"count":367,
			"max":[
				0.3755990266799927,
				0.1929456889629364,
				0.1576673537492752
			],
			"min":[
				-0.3699876070022583,
				0.00044764578342437744,
				0.041934676468372345
			],
			"type":"VEC3"
		},
		{
			"bufferView":9,
			"componentType":5126,
			"count":367,
			"type":"VEC3"
		},
		{
			"bufferView":10,
			"componentType":5126,
			"count":367,
			"type":"VEC2"
		},
		{
			"bufferView":11,
			"componentType":5126,
			"count":367,
			"type":"VEC2"
		},
		{
			"bufferView":12,
			"componentType":5126,
			"count":367,
			"type":"VEC2"
		},
		{
			"bufferView":13,
			"componentType":5126,
			"count":367,
			"type":"VEC2"
		},
		{
			"bufferView":14,
			"componentType":5126,
			"count":367,
			"type":"VEC2"
		},
		{
			"bufferView":15,
			"componentType":5123,
			"count":408,
			"type":"SCALAR"
		},
		{
			"bufferView":16,
			"componentType":5126,
			"count":4,
			"max":[
				1,
				0,
				1
			],
			"min":[
				-1,
				0,
				-1
			],
			"type":"VEC3"
		},
		{
			"bufferView":17,
			"componentType":5126,
			"count":4,
			"type":"VEC3"
		},
		{
			"bufferView":18,
			"componentType":5126,
			"count":4,
			"type":"VEC2"
		},
		{
			"bufferView":19,
			"componentType":5126,
			"count":4,
			"max":[
				1,
				0,
				1
			],
			"min":[
				-1,
				0,
				-1
			],
			"type":"VEC3"
		},
		{
			"bufferView":20,
			"componentType":5126,
			"count":4,
			"type":"VEC3"
		},
		{
			"bufferView":21,
			"componentType":5126,
			"count":4,
			"type":"VEC2"
		},
		{
			"bufferView":22,
			"componentType":5126,
			"count":7908,
			"max":[
				22.599445343017578,
				-27.47890853881836,
				2.0179126262664795
			],
			"min":[
				-38.97743225097656,
				-93.92169952392578,
				-36.64623260498047
			],
			"type":"VEC3"
		},
		{
			"bufferView":23,
			"componentType":5126,
			"count":7908,
			"type":"VEC3"
		},
		{
			"bufferView":24,
			"componentType":5126,
			"count":7908,
			"type":"VEC2"
		},
		{
			"bufferView":25,
			"componentType":5123,
			"count":45324,
			"type":"SCALAR"
		},
		{
			"bufferView":26,
			"componentType":5126,
			"count":7484,
			"max":[
				21.895654678344727,
				57.15116882324219,
				0.4686802625656128
			],
			"min":[
				-29.962017059326172,
				-36.7302360534668,
				-26.175552368164062
			],
			"type":"VEC3"
		},
		{
			"bufferView":27,
			"componentType":5126,
			"count":7484,
			"type":"VEC3"
		},
		{
			"bufferView":28,
			"componentType":5126,
			"count":7484,
			"type":"VEC2"
		},
		{
			"bufferView":29,
			"componentType":5123,
			"count":43230,
			"type":"SCALAR"
		},
		{
			"bufferView":30,
			"componentType":5126,
			"count":10835,
			"max":[
				14.574127197265625,
				-44.9696044921875,
				0.5238039493560791
			],
			"min":[
				-62.59226989746094,
				-116.50357818603516,
				-26.334617614746094
			],
			"type":"VEC3"
		},
		{
			"bufferView":31,
			"componentType":5126,
			"count":10835,
			"type":"VEC3"
		},
		{
			"bufferView":32,
			"componentType":5126,
			"count":10835,
			"type":"VEC2"
		},
		{
			"bufferView":33,
			"componentType":5123,
			"count":58740,
			"type":"SCALAR"
		},
		{
			"bufferView":34,
			"componentType":5126,
			"count":483,
			"max":[
				12.207232475280762,
				-96.72733306884766,
				-0.9228991270065308
			],
			"min":[
				-6.309909820556641,
				-116.5173110961914,
				-18.648256301879883
			],
			"type":"VEC3"
		},
		{
			"bufferView":35,
			"componentType":5126,
			"count":483,
			"type":"VEC3"
		},
		{
			"bufferView":36,
			"componentType":5126,
			"count":483,
			"type":"VEC2"
		},
		{
			"bufferView":37,
			"componentType":5123,
			"count":2733,
			"type":"SCALAR"
		},
		{
			"bufferView":38,
			"componentType":5126,
			"count":1628,
			"max":[
				22.826475143432617,
				72.42021942138672,
				0.8981869220733643
			],
			"min":[
				-34.25074768066406,
				46.098602294921875,
				-19.07505989074707
			],
			"type":"VEC3"
		},
		{
			"bufferView":39,
			"componentType":5126,
			"count":1628,
			"type":"VEC3"
		},
		{
			"bufferView":40,
			"componentType":5126,
			"count":1628,
			"type":"VEC2"
		},
		{
			"bufferView":41,
			"componentType":5123,
			"count":8850,
			"type":"SCALAR"
		}
	],
	"bufferViews":[
		{
			"buffer":0,
			"byteLength":48,
			"byteOffset":0,
			"target":34962
		},
		{
			"buffer":0,
			"byteLength":48,
			"byteOffset":48,
			"target":34962
		},
		{
			"buffer":0,
			"byteLength":32,
			"byteOffset":96,
			"target":34962
		},
		{
			"buffer":0,
			"byteLength":32,
			"byteOffset":128,
			"target":34962
		},
		{
			"buffer":0,
			"byteLength":32,
			"byteOffset":160,
			"target":34962
		},
		{
			"buffer":0,
			"byteLength":32,
			"byteOffset":192,
			"target":34962
		},
		{
			"buffer":0,
			"byteLength":32,
			"byteOffset":224,
			"target":34962
		},
		{
			"buffer":0,
			"byteLength":12,
			"byteOffset":256,
			"target":34963
		},
		{
			"buffer":0,
			"byteLength":4404,
			"byteOffset":268,
			"target":34962
		},
		{
			"buffer":0,
			"byteLength":4404,
			"byteOffset":4672,
			"target":34962
		},
		{
			"buffer":0,
			"byteLength":2936,
			"byteOffset":9076,
			"target":34962
		},
		{
			"buffer":0,
			"byteLength":2936,
			"byteOffset":12012,
			"target":34962
		},
		{
			"buffer":0,
			"byteLength":2936,
			"byteOffset":14948,
			"target":34962
		},
		{
			"buffer":0,
			"byteLength":2936,
			"byteOffset":17884,
			"target":34962
		},
		{
			"buffer":0,
			"byteLength":2936,
			"byteOffset":20820,
			"target":34962
		},
		{
			"buffer":0,
			"byteLength":816,
			"byteOffset":23756,
			"target":34963
		},
		{
			"buffer":0,
			"byteLength":48,
			"byteOffset":24572,
			"target":34962
		},
		{
			"buffer":0,
			"byteLength":48,
			"byteOffset":24620,
			"target":34962
		},
		{
			"buffer":0,
			"byteLength":32,
			"byteOffset":24668,
			"target":34962
		},
		{
			"buffer":0,
			"byteLength":48,
			"byteOffset":24700,
			"target":34962
		},
		{
			"buffer":0,
			"byteLength":48,
			"byteOffset":24748,
			"target":34962
		},
		{
			"buffer":0,
			"byteLength":32,
			"byteOffset":24796,
			"target":34962
		},
		{
			"buffer":0,
			"byteLength":94896,
			"byteOffset":24828,
			"target":34962
		},
		{
			"buffer":0,
			"byteLength":94896,
			"byteOffset":119724,
			"target":34962
		},
		{
			"buffer":0,
			"byteLength":63264,
			"byteOffset":214620,
			"target":34962
		},
		{
			"buffer":0,
			"byteLength":90648,
			"byteOffset":277884,
			"target":34963
		},
		{
			"buffer":0,
			"byteLength":89808,
			"byteOffset":368532,
			"target":34962
		},
		{
			"buffer":0,
			"byteLength":89808,
			"byteOffset":458340,
			"target":34962
		},
		{
			"buffer":0,
			"byteLength":59872,
			"byteOffset":548148,
			"target":34962
		},
		{
			"buffer":0,
			"byteLength":86460,
			"byteOffset":608020,
			"target":34963
		},
		{
			"buffer":0,
			"byteLength":130020,
			"byteOffset":694480,
			"target":34962
		},
		{
			"buffer":0,
			"byteLength":130020,
			"byteOffset":824500,
			"target":34962
		},
		{
			"buffer":0,
			"byteLength":86680,
			"byteOffset":954520,
			"target":34962
		},
		{
			"buffer":0,
			"byteLength":117480,
			"byteOffset":1041200,
			"target":34963
		},
		{
			"buffer":0,
			"byteLength":5796,
			"byteOffset":1158680,
			"target":34962
		},
		{
			"buffer":0,
			"byteLength":5796,
			"byteOffset":1164476,
			"target":34962
		},
		{
			"buffer":0,
			"byteLength":3864,
			"byteOffset":1170272,
			"target":34962
		},
		{
			"buffer":0,
			"byteLength":5466,
			"byteOffset":1174136,
			"target":34963
		},
		{
			"buffer":0,
			"byteLength":19536,
			"byteOffset":1179604,
			"target":34962
		},
		{
			"buffer":0,
			"byteLength":19536,
			"byteOffset":1199140,
			"target":34962
		},
		{
			"buffer":0,
			"byteLength":13024,
			"byteOffset":1218676,
			"target":34962
		},
		{
			"buffer":0,
			"byteLength":17700,
			"byteOffset":1231700,
			"target":34963
		}
	],
	"samplers":[
		{
			"magFilter":9729,
			"minFilter":9987
		}
	],
	"buffers":[
		{
			"byteLength":1249400,
			"uri":"Body.bin"
		}
	]
}
