{
	"asset":{
		"copyright":"Eibriel",
		"generator":"Khronos glTF Blender I/O v4.3.47",
		"version":"2.0"
	},
	"scene":0,
	"scenes":[
		{
			"name":"BrainTube",
			"nodes":[
				0
			]
		}
	],
	"nodes":[
		{
			"mesh":0,
			"name":"BrainTube"
		}
	],
	"materials":[
		{
			"doubleSided":true,
			"name":"Battery",
			"normalTexture":{
				"index":0,
				"scale":0.10000000149011612
			},
			"pbrMetallicRoughness":{
				"baseColorTexture":{
					"index":1
				},
				"metallicRoughnessTexture":{
					"index":2
				}
			}
		}
	],
	"meshes":[
		{
			"name":"Battery001_Battery_0",
			"primitives":[
				{
					"attributes":{
						"POSITION":0,
						"NORMAL":1,
						"TEXCOORD_0":2
					},
					"indices":3,
					"material":0
				}
			]
		}
	],
	"textures":[
		{
			"sampler":0,
			"source":0
		},
		{
			"sampler":0,
			"source":1
		},
		{
			"sampler":0,
			"source":2
		}
	],
	"images":[
		{
			"mimeType":"image/png",
			"name":"Battery_Normal",
			"uri":"props_textures/Battery_Normal.png"
		},
		{
			"mimeType":"image/jpeg",
			"name":"Battery_Base",
			"uri":"props_textures/Battery_Base.jpg"
		},
		{
			"mimeType":"image/png",
			"name":"Battery_MR",
			"uri":"props_textures/Battery_MR.png"
		}
	],
	"accessors":[
		{
			"bufferView":0,
			"componentType":5126,
			"count":1899,
			"max":[
				0.01999441534280777,
				0.020181013271212578,
				0.04425027593970299
			],
			"min":[
				-0.019994433969259262,
				-0.019807854667305946,
				-0.038615889847278595
			],
			"type":"VEC3"
		},
		{
			"bufferView":1,
			"componentType":5126,
			"count":1899,
			"type":"VEC3"
		},
		{
			"bufferView":2,
			"componentType":5126,
			"count":1899,
			"type":"VEC2"
		},
		{
			"bufferView":3,
			"componentType":5123,
			"count":3498,
			"type":"SCALAR"
		}
	],
	"bufferViews":[
		{
			"buffer":0,
			"byteLength":22788,
			"byteOffset":0,
			"target":34962
		},
		{
			"buffer":0,
			"byteLength":22788,
			"byteOffset":22788,
			"target":34962
		},
		{
			"buffer":0,
			"byteLength":15192,
			"byteOffset":45576,
			"target":34962
		},
		{
			"buffer":0,
			"byteLength":6996,
			"byteOffset":60768,
			"target":34963
		}
	],
	"samplers":[
		{
			"magFilter":9729,
			"minFilter":9987
		}
	],
	"buffers":[
		{
			"byteLength":67764,
			"uri":"BrainTube.bin"
		}
	]
}
