{
	"asset":{
		"copyright":"Eibriel",
		"generator":"Khronos glTF Blender I/O v4.3.47",
		"version":"2.0"
	},
	"scene":0,
	"scenes":[
		{
			"name":"DesignTable",
			"nodes":[
				0
			]
		}
	],
	"nodes":[
		{
			"mesh":0,
			"name":"Hico Work Table",
			"rotation":[
				0,
				-0.7071067094802856,
				0,
				0.7071068286895752
			],
			"scale":[
				1.600000023841858,
				1.600000023841858,
				1.600000023841858
			]
		}
	],
	"materials":[
		{
			"doubleSided":true,
			"name":"FUNITURE_043_MAT",
			"normalTexture":{
				"index":0
			},
			"pbrMetallicRoughness":{
				"baseColorTexture":{
					"index":1
				},
				"metallicRoughnessTexture":{
					"index":2
				}
			}
		}
	],
	"meshes":[
		{
			"name":"FUNITURE_043",
			"primitives":[
				{
					"attributes":{
						"POSITION":0,
						"NORMAL":1,
						"TEXCOORD_0":2,
						"TEXCOORD_1":3
					},
					"indices":4,
					"material":0
				}
			]
		}
	],
	"textures":[
		{
			"sampler":0,
			"source":0
		},
		{
			"sampler":0,
			"source":1
		},
		{
			"sampler":0,
			"source":2
		}
	],
	"images":[
		{
			"mimeType":"image/png",
			"name":"FURNITURE_043_Normal",
			"uri":"props_textures/FURNITURE_043_Normal.png"
		},
		{
			"mimeType":"image/png",
			"name":"FURNITURE_043_BaseColor",
			"uri":"props_textures/FURNITURE_043_BaseColor.png"
		},
		{
			"mimeType":"image/png",
			"name":"FURNITURE_043_Metallic-FURNITURE_043_Roughness",
			"uri":"props_textures/FURNITURE_043_Metallic-FURNITURE_043_Roughness.png"
		}
	],
	"accessors":[
		{
			"bufferView":0,
			"componentType":5126,
			"count":496,
			"max":[
				0.6000000834465027,
				0.7500001192092896,
				0.30000001192092896
			],
			"min":[
				-0.6012520790100098,
				-7.152557657263969e-08,
				-0.3006823658943176
			],
			"type":"VEC3"
		},
		{
			"bufferView":1,
			"componentType":5126,
			"count":496,
			"type":"VEC3"
		},
		{
			"bufferView":2,
			"componentType":5126,
			"count":496,
			"type":"VEC2"
		},
		{
			"bufferView":3,
			"componentType":5126,
			"count":496,
			"type":"VEC2"
		},
		{
			"bufferView":4,
			"componentType":5123,
			"count":930,
			"type":"SCALAR"
		}
	],
	"bufferViews":[
		{
			"buffer":0,
			"byteLength":5952,
			"byteOffset":0,
			"target":34962
		},
		{
			"buffer":0,
			"byteLength":5952,
			"byteOffset":5952,
			"target":34962
		},
		{
			"buffer":0,
			"byteLength":3968,
			"byteOffset":11904,
			"target":34962
		},
		{
			"buffer":0,
			"byteLength":3968,
			"byteOffset":15872,
			"target":34962
		},
		{
			"buffer":0,
			"byteLength":1860,
			"byteOffset":19840,
			"target":34963
		}
	],
	"samplers":[
		{
			"magFilter":9729,
			"minFilter":9987
		}
	],
	"buffers":[
		{
			"byteLength":21700,
			"uri":"DesignTable.bin"
		}
	]
}
