{
	"asset":{
		"copyright":"Eibriel",
		"generator":"Khronos glTF Blender I/O v4.3.47",
		"version":"2.0"
	},
	"extensionsUsed":[
		"KHR_materials_specular"
	],
	"scene":0,
	"scenes":[
		{
			"name":"Desk",
			"nodes":[
				0
			]
		}
	],
	"nodes":[
		{
			"mesh":0,
			"name":"Desk",
			"rotation":[
				0,
				-0.70710688829422,
				0,
				0.7071067094802856
			],
			"scale":[
				0.9156281352043152,
				0.9156280159950256,
				0.9156281352043152
			],
			"translation":[
				0,
				0.4336099922657013,
				0
			]
		}
	],
	"materials":[
		{
			"doubleSided":true,
			"extensions":{
				"KHR_materials_specular":{
					"specularFactor":0
				}
			},
			"name":"Tabletop_and_legs_material",
			"normalTexture":{
				"index":0
			},
			"occlusionTexture":{
				"index":1
			},
			"pbrMetallicRoughness":{
				"baseColorTexture":{
					"index":2
				},
				"metallicRoughnessTexture":{
					"index":1
				}
			}
		},
		{
			"doubleSided":true,
			"extensions":{
				"KHR_materials_specular":{
					"specularFactor":0
				}
			},
			"name":"Drawers",
			"normalTexture":{
				"index":3
			},
			"occlusionTexture":{
				"index":4
			},
			"pbrMetallicRoughness":{
				"baseColorTexture":{
					"index":5
				},
				"metallicRoughnessTexture":{
					"index":4
				}
			}
		},
		{
			"doubleSided":true,
			"extensions":{
				"KHR_materials_specular":{
					"specularFactor":0
				}
			},
			"name":"middle_section_material",
			"normalTexture":{
				"index":6
			},
			"occlusionTexture":{
				"index":7
			},
			"pbrMetallicRoughness":{
				"baseColorTexture":{
					"index":8
				},
				"metallicRoughnessTexture":{
					"index":7
				}
			}
		},
		{
			"doubleSided":true,
			"extensions":{
				"KHR_materials_specular":{
					"specularFactor":0
				}
			},
			"name":"Left_section_material",
			"normalTexture":{
				"index":9
			},
			"occlusionTexture":{
				"index":10
			},
			"pbrMetallicRoughness":{
				"baseColorTexture":{
					"index":11
				},
				"metallicRoughnessTexture":{
					"index":10
				}
			}
		},
		{
			"doubleSided":true,
			"extensions":{
				"KHR_materials_specular":{
					"specularFactor":0
				}
			},
			"name":"Right_section_material",
			"normalTexture":{
				"index":12
			},
			"occlusionTexture":{
				"index":13
			},
			"pbrMetallicRoughness":{
				"baseColorTexture":{
					"index":14
				},
				"metallicRoughnessTexture":{
					"index":13
				}
			}
		}
	],
	"meshes":[
		{
			"name":"defaultMaterial.056",
			"primitives":[
				{
					"attributes":{
						"POSITION":0,
						"NORMAL":1,
						"TEXCOORD_0":2
					},
					"indices":3,
					"material":0
				},
				{
					"attributes":{
						"POSITION":4,
						"NORMAL":5,
						"TEXCOORD_0":6
					},
					"indices":7,
					"material":1
				},
				{
					"attributes":{
						"POSITION":8,
						"NORMAL":9,
						"TEXCOORD_0":10
					},
					"indices":11,
					"material":2
				},
				{
					"attributes":{
						"POSITION":12,
						"NORMAL":13,
						"TEXCOORD_0":14
					},
					"indices":15,
					"material":3
				},
				{
					"attributes":{
						"POSITION":16,
						"NORMAL":17,
						"TEXCOORD_0":18
					},
					"indices":19,
					"material":4
				}
			]
		}
	],
	"textures":[
		{
			"sampler":0,
			"source":0
		},
		{
			"sampler":0,
			"source":1
		},
		{
			"sampler":0,
			"source":2
		},
		{
			"sampler":0,
			"source":3
		},
		{
			"sampler":0,
			"source":4
		},
		{
			"sampler":0,
			"source":5
		},
		{
			"sampler":0,
			"source":6
		},
		{
			"sampler":0,
			"source":7
		},
		{
			"sampler":0,
			"source":8
		},
		{
			"sampler":0,
			"source":9
		},
		{
			"sampler":0,
			"source":10
		},
		{
			"sampler":0,
			"source":11
		},
		{
			"sampler":0,
			"source":12
		},
		{
			"sampler":0,
			"source":13
		},
		{
			"sampler":0,
			"source":14
		}
	],
	"images":[
		{
			"mimeType":"image/jpeg",
			"name":"Tabletop_and_legs_material_normal",
			"uri":"props_textures/Tabletop_and_legs_material_normal.jpg"
		},
		{
			"mimeType":"image/png",
			"name":"Tabletop_and_legs_material_metallicRoughness",
			"uri":"props_textures/Tabletop_and_legs_material_metallicRoughness.png"
		},
		{
			"mimeType":"image/jpeg",
			"name":"Tabletop_and_legs_material_baseColor",
			"uri":"props_textures/Tabletop_and_legs_material_baseColor.jpg"
		},
		{
			"mimeType":"image/jpeg",
			"name":"Drawers_normal",
			"uri":"props_textures/Drawers_normal.jpg"
		},
		{
			"mimeType":"image/png",
			"name":"Drawers_metallicRoughness",
			"uri":"props_textures/Drawers_metallicRoughness.png"
		},
		{
			"mimeType":"image/jpeg",
			"name":"Drawers_baseColor",
			"uri":"props_textures/Drawers_baseColor.jpg"
		},
		{
			"mimeType":"image/jpeg",
			"name":"middle_section_material_normal",
			"uri":"props_textures/middle_section_material_normal.jpg"
		},
		{
			"mimeType":"image/png",
			"name":"middle_section_material_metallicRoughness",
			"uri":"props_textures/middle_section_material_metallicRoughness.png"
		},
		{
			"mimeType":"image/jpeg",
			"name":"middle_section_material_baseColor",
			"uri":"props_textures/middle_section_material_baseColor.jpg"
		},
		{
			"mimeType":"image/jpeg",
			"name":"Left_section_material_normal",
			"uri":"props_textures/Left_section_material_normal.jpg"
		},
		{
			"mimeType":"image/png",
			"name":"Left_section_material_metallicRoughness",
			"uri":"props_textures/Left_section_material_metallicRoughness.png"
		},
		{
			"mimeType":"image/jpeg",
			"name":"Left_section_material_baseColor",
			"uri":"props_textures/Left_section_material_baseColor.jpg"
		},
		{
			"mimeType":"image/jpeg",
			"name":"Right_section_material_normal",
			"uri":"props_textures/Right_section_material_normal.jpg"
		},
		{
			"mimeType":"image/png",
			"name":"Right_section_material_metallicRoughness",
			"uri":"props_textures/Right_section_material_metallicRoughness.png"
		},
		{
			"mimeType":"image/jpeg",
			"name":"Right_section_material_baseColor",
			"uri":"props_textures/Right_section_material_baseColor.jpg"
		}
	],
	"accessors":[
		{
			"bufferView":0,
			"componentType":5126,
			"count":2312,
			"max":[
				0.5018200278282166,
				0.47085100412368774,
				1
			],
			"min":[
				-0.5018200278282166,
				-0.47085100412368774,
				-1
			],
			"type":"VEC3"
		},
		{
			"bufferView":1,
			"componentType":5126,
			"count":2312,
			"type":"VEC3"
		},
		{
			"bufferView":2,
			"componentType":5126,
			"count":2312,
			"type":"VEC2"
		},
		{
			"bufferView":3,
			"componentType":5123,
			"count":8232,
			"type":"SCALAR"
		},
		{
			"bufferView":4,
			"componentType":5126,
			"count":19900,
			"max":[
				-0.4310149550437927,
				0.3548929989337921,
				0.9043310284614563
			],
			"min":[
				-0.4854479432106018,
				-0.32762598991394043,
				-0.9047380089759827
			],
			"type":"VEC3"
		},
		{
			"bufferView":5,
			"componentType":5126,
			"count":19900,
			"type":"VEC3"
		},
		{
			"bufferView":6,
			"componentType":5126,
			"count":19900,
			"type":"VEC2"
		},
		{
			"bufferView":7,
			"componentType":5123,
			"count":90096,
			"type":"SCALAR"
		},
		{
			"bufferView":8,
			"componentType":5126,
			"count":2730,
			"max":[
				0.43431204557418823,
				0.40622198581695557,
				0.36705899238586426
			],
			"min":[
				-0.4854479432106018,
				0.1278190016746521,
				-0.36705899238586426
			],
			"type":"VEC3"
		},
		{
			"bufferView":9,
			"componentType":5126,
			"count":2730,
			"type":"VEC3"
		},
		{
			"bufferView":10,
			"componentType":5126,
			"count":2730,
			"type":"VEC2"
		},
		{
			"bufferView":11,
			"componentType":5123,
			"count":12066,
			"type":"SCALAR"
		},
		{
			"bufferView":12,
			"componentType":5126,
			"count":715,
			"max":[
				0.4493720531463623,
				0.40622198581695557,
				-0.3564029932022095
			],
			"min":[
				-0.44937193393707275,
				-0.37870800495147705,
				-0.9475529789924622
			],
			"type":"VEC3"
		},
		{
			"bufferView":13,
			"componentType":5126,
			"count":715,
			"type":"VEC3"
		},
		{
			"bufferView":14,
			"componentType":5126,
			"count":715,
			"type":"VEC2"
		},
		{
			"bufferView":15,
			"componentType":5123,
			"count":1950,
			"type":"SCALAR"
		},
		{
			"bufferView":16,
			"componentType":5126,
			"count":714,
			"max":[
				0.4493720531463623,
				0.40622198581695557,
				0.9475529789924622
			],
			"min":[
				-0.44937193393707275,
				-0.37870800495147705,
				0.3564029932022095
			],
			"type":"VEC3"
		},
		{
			"bufferView":17,
			"componentType":5126,
			"count":714,
			"type":"VEC3"
		},
		{
			"bufferView":18,
			"componentType":5126,
			"count":714,
			"type":"VEC2"
		},
		{
			"bufferView":19,
			"componentType":5123,
			"count":1950,
			"type":"SCALAR"
		}
	],
	"bufferViews":[
		{
			"buffer":0,
			"byteLength":27744,
			"byteOffset":0,
			"target":34962
		},
		{
			"buffer":0,
			"byteLength":27744,
			"byteOffset":27744,
			"target":34962
		},
		{
			"buffer":0,
			"byteLength":18496,
			"byteOffset":55488,
			"target":34962
		},
		{
			"buffer":0,
			"byteLength":16464,
			"byteOffset":73984,
			"target":34963
		},
		{
			"buffer":0,
			"byteLength":238800,
			"byteOffset":90448,
			"target":34962
		},
		{
			"buffer":0,
			"byteLength":238800,
			"byteOffset":329248,
			"target":34962
		},
		{
			"buffer":0,
			"byteLength":159200,
			"byteOffset":568048,
			"target":34962
		},
		{
			"buffer":0,
			"byteLength":180192,
			"byteOffset":727248,
			"target":34963
		},
		{
			"buffer":0,
			"byteLength":32760,
			"byteOffset":907440,
			"target":34962
		},
		{
			"buffer":0,
			"byteLength":32760,
			"byteOffset":940200,
			"target":34962
		},
		{
			"buffer":0,
			"byteLength":21840,
			"byteOffset":972960,
			"target":34962
		},
		{
			"buffer":0,
			"byteLength":24132,
			"byteOffset":994800,
			"target":34963
		},
		{
			"buffer":0,
			"byteLength":8580,
			"byteOffset":1018932,
			"target":34962
		},
		{
			"buffer":0,
			"byteLength":8580,
			"byteOffset":1027512,
			"target":34962
		},
		{
			"buffer":0,
			"byteLength":5720,
			"byteOffset":1036092,
			"target":34962
		},
		{
			"buffer":0,
			"byteLength":3900,
			"byteOffset":1041812,
			"target":34963
		},
		{
			"buffer":0,
			"byteLength":8568,
			"byteOffset":1045712,
			"target":34962
		},
		{
			"buffer":0,
			"byteLength":8568,
			"byteOffset":1054280,
			"target":34962
		},
		{
			"buffer":0,
			"byteLength":5712,
			"byteOffset":1062848,
			"target":34962
		},
		{
			"buffer":0,
			"byteLength":3900,
			"byteOffset":1068560,
			"target":34963
		}
	],
	"samplers":[
		{
			"magFilter":9729,
			"minFilter":9987
		}
	],
	"buffers":[
		{
			"byteLength":1072460,
			"uri":"Desk.bin"
		}
	]
}
