{
	"asset":{
		"copyright":"Eibriel",
		"generator":"Khronos glTF Blender I/O v4.3.47",
		"version":"2.0"
	},
	"extensionsUsed":[
		"KHR_materials_specular"
	],
	"scene":0,
	"scenes":[
		{
			"name":"DonutsPlate",
			"nodes":[
				0
			]
		}
	],
	"nodes":[
		{
			"mesh":0,
			"name":"DonutsPlate",
			"rotation":[
				0,
				-0.7071067094802856,
				0,
				0.7071068286895752
			]
		}
	],
	"materials":[
		{
			"doubleSided":true,
			"extensions":{
				"KHR_materials_specular":{
					"specularFactor":0
				}
			},
			"name":"tex_u1_v1",
			"normalTexture":{
				"index":0
			},
			"pbrMetallicRoughness":{
				"baseColorTexture":{
					"index":1
				},
				"metallicFactor":0,
				"roughnessFactor":0.9292893409729004
			}
		}
	],
	"meshes":[
		{
			"name":"model",
			"primitives":[
				{
					"attributes":{
						"POSITION":0,
						"NORMAL":1,
						"TEXCOORD_0":2
					},
					"indices":3,
					"material":0
				}
			]
		}
	],
	"textures":[
		{
			"sampler":0,
			"source":0
		},
		{
			"sampler":0,
			"source":1
		}
	],
	"images":[
		{
			"mimeType":"image/jpeg",
			"name":"tex_u1_v1_normal",
			"uri":"props_textures/tex_u1_v1_normal.jpg"
		},
		{
			"mimeType":"image/jpeg",
			"name":"tex_u1_v1_diffuse",
			"uri":"props_textures/tex_u1_v1_diffuse.jpg"
		}
	],
	"accessors":[
		{
			"bufferView":0,
			"componentType":5126,
			"count":590929,
			"max":[
				0.12352149188518524,
				0.08608639985322952,
				0.12444903701543808
			],
			"min":[
				-0.12367059290409088,
				-0.003039658535271883,
				-0.12284886091947556
			],
			"type":"VEC3"
		},
		{
			"bufferView":1,
			"componentType":5126,
			"count":590929,
			"type":"VEC3"
		},
		{
			"bufferView":2,
			"componentType":5126,
			"count":590929,
			"type":"VEC2"
		},
		{
			"bufferView":3,
			"componentType":5125,
			"count":2999964,
			"type":"SCALAR"
		}
	],
	"bufferViews":[
		{
			"buffer":0,
			"byteLength":7091148,
			"byteOffset":0,
			"target":34962
		},
		{
			"buffer":0,
			"byteLength":7091148,
			"byteOffset":7091148,
			"target":34962
		},
		{
			"buffer":0,
			"byteLength":4727432,
			"byteOffset":14182296,
			"target":34962
		},
		{
			"buffer":0,
			"byteLength":11999856,
			"byteOffset":18909728,
			"target":34963
		}
	],
	"samplers":[
		{
			"magFilter":9729,
			"minFilter":9987
		}
	],
	"buffers":[
		{
			"byteLength":30909584,
			"uri":"DonutsPlate.bin"
		}
	]
}
