{
	"asset":{
		"copyright":"Eibriel",
		"generator":"Khronos glTF Blender I/O v4.3.47",
		"version":"2.0"
	},
	"extensionsUsed":[
		"KHR_materials_specular",
		"KHR_materials_ior"
	],
	"scene":0,
	"scenes":[
		{
			"name":"ExecChair",
			"nodes":[
				0
			]
		}
	],
	"nodes":[
		{
			"mesh":0,
			"name":"Executive_Office_Chair"
		}
	],
	"materials":[
		{
			"doubleSided":true,
			"extensions":{
				"KHR_materials_specular":{
					"specularFactor":0
				},
				"KHR_materials_ior":{
					"ior":1.4500000476837158
				}
			},
			"name":"Executive_Office_Chair",
			"normalTexture":{
				"index":0
			},
			"pbrMetallicRoughness":{
				"baseColorTexture":{
					"index":1
				},
				"metallicRoughnessTexture":{
					"index":2
				}
			}
		}
	],
	"meshes":[
		{
			"name":"Executive_Office_Chair",
			"primitives":[
				{
					"attributes":{
						"POSITION":0,
						"NORMAL":1,
						"TEXCOORD_0":2
					},
					"indices":3,
					"material":0
				}
			]
		}
	],
	"textures":[
		{
			"sampler":0,
			"source":0
		},
		{
			"sampler":0,
			"source":1
		},
		{
			"sampler":0,
			"source":2
		}
	],
	"images":[
		{
			"mimeType":"image/png",
			"name":"Chief_Chair_low_Chief_Chair_Normal",
			"uri":"props_textures/Chief_Chair_low_Chief_Chair_Normal.png"
		},
		{
			"mimeType":"image/png",
			"name":"Chief_Chair_low_Chief_Chair_BaseColor",
			"uri":"props_textures/Chief_Chair_low_Chief_Chair_BaseColor.png"
		},
		{
			"mimeType":"image/png",
			"name":"Chief_Chair_low_Chief_Chair_OcclusionRoughnessMetallic",
			"uri":"props_textures/Chief_Chair_low_Chief_Chair_OcclusionRoughnessMetallic.png"
		}
	],
	"accessors":[
		{
			"bufferView":0,
			"componentType":5126,
			"count":8816,
			"max":[
				0.35885870456695557,
				1.1464768648147583,
				0.34979677200317383
			],
			"min":[
				-0.3580717146396637,
				-0.0003759798710234463,
				-0.48225823044776917
			],
			"type":"VEC3"
		},
		{
			"bufferView":1,
			"componentType":5126,
			"count":8816,
			"type":"VEC3"
		},
		{
			"bufferView":2,
			"componentType":5126,
			"count":8816,
			"type":"VEC2"
		},
		{
			"bufferView":3,
			"componentType":5123,
			"count":35409,
			"type":"SCALAR"
		}
	],
	"bufferViews":[
		{
			"buffer":0,
			"byteLength":105792,
			"byteOffset":0,
			"target":34962
		},
		{
			"buffer":0,
			"byteLength":105792,
			"byteOffset":105792,
			"target":34962
		},
		{
			"buffer":0,
			"byteLength":70528,
			"byteOffset":211584,
			"target":34962
		},
		{
			"buffer":0,
			"byteLength":70818,
			"byteOffset":282112,
			"target":34963
		}
	],
	"samplers":[
		{
			"magFilter":9729,
			"minFilter":9987
		}
	],
	"buffers":[
		{
			"byteLength":352932,
			"uri":"ExecChair.bin"
		}
	]
}
