{
	"asset":{
		"copyright":"Eibriel",
		"generator":"Khronos glTF Blender I/O v4.3.47",
		"version":"2.0"
	},
	"scene":0,
	"scenes":[
		{
			"name":"LabTable",
			"nodes":[
				0
			]
		}
	],
	"nodes":[
		{
			"mesh":0,
			"name":"WoodenTable",
			"rotation":[
				0.7071068286895752,
				0,
				0,
				0.7071068286895752
			],
			"scale":[
				0.01600000075995922,
				0.01600000075995922,
				0.01600000075995922
			]
		}
	],
	"materials":[
		{
			"doubleSided":true,
			"name":"Table",
			"pbrMetallicRoughness":{
				"baseColorTexture":{
					"index":0
				},
				"metallicRoughnessTexture":{
					"index":1
				}
			}
		}
	],
	"meshes":[
		{
			"name":"Cube.003",
			"primitives":[
				{
					"attributes":{
						"POSITION":0,
						"NORMAL":1,
						"TEXCOORD_0":2
					},
					"indices":3,
					"material":0
				}
			]
		}
	],
	"textures":[
		{
			"sampler":0,
			"source":0
		},
		{
			"sampler":0,
			"source":1
		}
	],
	"images":[
		{
			"mimeType":"image/png",
			"name":"Table_low_Table_BaseColor",
			"uri":"props_textures/Table_low_Table_BaseColor.png"
		},
		{
			"mimeType":"image/png",
			"name":"Table_low_Table_Roughness",
			"uri":"props_textures/Table_low_Table_Roughness.png"
		}
	],
	"accessors":[
		{
			"bufferView":0,
			"componentType":5126,
			"count":200,
			"max":[
				35.301239013671875,
				56.72084045410156,
				0.012515290640294552
			],
			"min":[
				-35.301239013671875,
				-56.720821380615234,
				-79.9417724609375
			],
			"type":"VEC3"
		},
		{
			"bufferView":1,
			"componentType":5126,
			"count":200,
			"type":"VEC3"
		},
		{
			"bufferView":2,
			"componentType":5126,
			"count":200,
			"type":"VEC2"
		},
		{
			"bufferView":3,
			"componentType":5123,
			"count":588,
			"type":"SCALAR"
		}
	],
	"bufferViews":[
		{
			"buffer":0,
			"byteLength":2400,
			"byteOffset":0,
			"target":34962
		},
		{
			"buffer":0,
			"byteLength":2400,
			"byteOffset":2400,
			"target":34962
		},
		{
			"buffer":0,
			"byteLength":1600,
			"byteOffset":4800,
			"target":34962
		},
		{
			"buffer":0,
			"byteLength":1176,
			"byteOffset":6400,
			"target":34963
		}
	],
	"samplers":[
		{
			"magFilter":9729,
			"minFilter":9987
		}
	],
	"buffers":[
		{
			"byteLength":7576,
			"uri":"LabTable.bin"
		}
	]
}
