{
	"asset":{
		"copyright":"Eibriel",
		"generator":"Khronos glTF Blender I/O v4.3.47",
		"version":"2.0"
	},
	"extensionsUsed":[
		"KHR_materials_specular"
	],
	"scene":0,
	"scenes":[
		{
			"name":"LobbyChair",
			"nodes":[
				0
			]
		}
	],
	"nodes":[
		{
			"mesh":0,
			"name":"armchair.002",
			"scale":[
				0.02499999850988388,
				0.02499999850988388,
				0.02499999850988388
			],
			"translation":[
				0,
				0.5152587294578552,
				0
			]
		}
	],
	"materials":[
		{
			"doubleSided":true,
			"extensions":{
				"KHR_materials_specular":{
					"specularTexture":{
						"index":0
					}
				}
			},
			"name":"armchair",
			"normalTexture":{
				"index":1,
				"scale":0.30000001192092896
			},
			"pbrMetallicRoughness":{
				"baseColorTexture":{
					"index":2
				},
				"metallicRoughnessTexture":{
					"index":3
				}
			}
		}
	],
	"meshes":[
		{
			"name":"Mesh.001",
			"primitives":[
				{
					"attributes":{
						"POSITION":0,
						"NORMAL":1,
						"TEXCOORD_0":2,
						"TEXCOORD_1":3
					},
					"indices":4,
					"material":0
				}
			]
		}
	],
	"textures":[
		{
			"sampler":0,
			"source":0
		},
		{
			"sampler":0,
			"source":1
		},
		{
			"sampler":0,
			"source":2
		},
		{
			"sampler":0,
			"source":3
		}
	],
	"images":[
		{
			"mimeType":"image/png",
			"name":"armchair_Metallic",
			"uri":"props_textures/armchair_Metallic.png"
		},
		{
			"mimeType":"image/png",
			"name":"armchair_Normal",
			"uri":"props_textures/armchair_Normal.png"
		},
		{
			"mimeType":"image/png",
			"name":"armchair_Albedo",
			"uri":"props_textures/armchair_Albedo.png"
		},
		{
			"mimeType":"image/png",
			"name":"armchair_Roughness",
			"uri":"props_textures/armchair_Roughness.png"
		}
	],
	"accessors":[
		{
			"bufferView":0,
			"componentType":5126,
			"count":10545,
			"max":[
				16.664804458618164,
				20.77863121032715,
				20.041410446166992
			],
			"min":[
				-16.664804458618164,
				-20.77863311767578,
				-20.041404724121094
			],
			"type":"VEC3"
		},
		{
			"bufferView":1,
			"componentType":5126,
			"count":10545,
			"type":"VEC3"
		},
		{
			"bufferView":2,
			"componentType":5126,
			"count":10545,
			"type":"VEC2"
		},
		{
			"bufferView":3,
			"componentType":5126,
			"count":10545,
			"type":"VEC2"
		},
		{
			"bufferView":4,
			"componentType":5123,
			"count":26748,
			"type":"SCALAR"
		}
	],
	"bufferViews":[
		{
			"buffer":0,
			"byteLength":126540,
			"byteOffset":0,
			"target":34962
		},
		{
			"buffer":0,
			"byteLength":126540,
			"byteOffset":126540,
			"target":34962
		},
		{
			"buffer":0,
			"byteLength":84360,
			"byteOffset":253080,
			"target":34962
		},
		{
			"buffer":0,
			"byteLength":84360,
			"byteOffset":337440,
			"target":34962
		},
		{
			"buffer":0,
			"byteLength":53496,
			"byteOffset":421800,
			"target":34963
		}
	],
	"samplers":[
		{
			"magFilter":9729,
			"minFilter":9987
		}
	],
	"buffers":[
		{
			"byteLength":475296,
			"uri":"LobbyChair.bin"
		}
	]
}
