{
	"asset":{
		"copyright":"Eibriel",
		"generator":"Khronos glTF Blender I/O v4.3.47",
		"version":"2.0"
	},
	"extensionsUsed":[
		"KHR_materials_specular"
	],
	"scene":0,
	"scenes":[
		{
			"name":"MarketingShelf",
			"nodes":[
				0
			]
		}
	],
	"nodes":[
		{
			"mesh":0,
			"name":"MarketingShelf",
			"rotation":[
				0.5,
				-0.5,
				0.5,
				0.5000000596046448
			],
			"scale":[
				0.019999999552965164,
				0.019999999552965164,
				0.019999999552965164
			]
		}
	],
	"materials":[
		{
			"doubleSided":true,
			"extensions":{
				"KHR_materials_specular":{
					"specularFactor":0
				}
			},
			"name":"MatID_1.001",
			"pbrMetallicRoughness":{
				"baseColorTexture":{
					"index":0
				}
			}
		}
	],
	"meshes":[
		{
			"name":"Aset_interior_furniture_M_vmjhbix_00_HIGH",
			"primitives":[
				{
					"attributes":{
						"POSITION":0,
						"NORMAL":1,
						"TEXCOORD_0":2
					},
					"indices":3,
					"material":0
				}
			]
		}
	],
	"textures":[
		{
			"sampler":0,
			"source":0
		}
	],
	"images":[
		{
			"mimeType":"image/jpeg",
			"name":"Wooden_Bookshelf_vmjhbix_Raw_8K_BaseColor",
			"uri":"props_textures/Wooden_Bookshelf_vmjhbix_Raw_8K_BaseColor.jpg"
		}
	],
	"accessors":[
		{
			"bufferView":0,
			"componentType":5126,
			"count":514564,
			"max":[
				44.91162109375,
				20.656343460083008,
				0.0001391284167766571
			],
			"min":[
				-44.29636001586914,
				-0.2005544900894165,
				-81.1336669921875
			],
			"type":"VEC3"
		},
		{
			"bufferView":1,
			"componentType":5126,
			"count":514564,
			"type":"VEC3"
		},
		{
			"bufferView":2,
			"componentType":5126,
			"count":514564,
			"type":"VEC2"
		},
		{
			"bufferView":3,
			"componentType":5125,
			"count":3000000,
			"type":"SCALAR"
		}
	],
	"bufferViews":[
		{
			"buffer":0,
			"byteLength":6174768,
			"byteOffset":0,
			"target":34962
		},
		{
			"buffer":0,
			"byteLength":6174768,
			"byteOffset":6174768,
			"target":34962
		},
		{
			"buffer":0,
			"byteLength":4116512,
			"byteOffset":12349536,
			"target":34962
		},
		{
			"buffer":0,
			"byteLength":12000000,
			"byteOffset":16466048,
			"target":34963
		}
	],
	"samplers":[
		{
			"magFilter":9729,
			"minFilter":9987
		}
	],
	"buffers":[
		{
			"byteLength":28466048,
			"uri":"MarketingShelf.bin"
		}
	]
}
