{
	"asset":{
		"copyright":"Eibriel",
		"generator":"Khronos glTF Blender I/O v4.3.47",
		"version":"2.0"
	},
	"scene":0,
	"scenes":[
		{
			"name":"MarketingTable",
			"nodes":[
				0
			]
		}
	],
	"nodes":[
		{
			"mesh":0,
			"name":"Wood Bookshelf"
		}
	],
	"materials":[
		{
			"doubleSided":true,
			"name":"FURNITURE_067_MAT",
			"normalTexture":{
				"index":0
			},
			"pbrMetallicRoughness":{
				"baseColorTexture":{
					"index":1
				},
				"metallicRoughnessTexture":{
					"index":2
				}
			}
		}
	],
	"meshes":[
		{
			"name":"FURNITURE_067",
			"primitives":[
				{
					"attributes":{
						"POSITION":0,
						"NORMAL":1,
						"TEXCOORD_0":2,
						"TEXCOORD_1":3
					},
					"indices":4,
					"material":0
				}
			]
		}
	],
	"textures":[
		{
			"sampler":0,
			"source":0
		},
		{
			"sampler":0,
			"source":1
		},
		{
			"sampler":0,
			"source":2
		}
	],
	"images":[
		{
			"mimeType":"image/png",
			"name":"FURNITURE_067_MAT_Normal",
			"uri":"props_textures/FURNITURE_067_MAT_Normal.png"
		},
		{
			"mimeType":"image/png",
			"name":"FURNITURE_067_MAT_BaseColor",
			"uri":"props_textures/FURNITURE_067_MAT_BaseColor.png"
		},
		{
			"mimeType":"image/png",
			"name":"FURNITURE_067_MAT_Metallic-FURNITURE_067_MAT_Roughness",
			"uri":"props_textures/FURNITURE_067_MAT_Metallic-FURNITURE_067_MAT_Roughness.png"
		}
	],
	"accessors":[
		{
			"bufferView":0,
			"componentType":5126,
			"count":208,
			"max":[
				0.30912548303604126,
				1.1517657041549683,
				0.9757880568504333
			],
			"min":[
				-0.3069017827510834,
				0.002355957170948386,
				-0.9757880568504333
			],
			"type":"VEC3"
		},
		{
			"bufferView":1,
			"componentType":5126,
			"count":208,
			"type":"VEC3"
		},
		{
			"bufferView":2,
			"componentType":5126,
			"count":208,
			"type":"VEC2"
		},
		{
			"bufferView":3,
			"componentType":5126,
			"count":208,
			"type":"VEC2"
		},
		{
			"bufferView":4,
			"componentType":5123,
			"count":360,
			"type":"SCALAR"
		}
	],
	"bufferViews":[
		{
			"buffer":0,
			"byteLength":2496,
			"byteOffset":0,
			"target":34962
		},
		{
			"buffer":0,
			"byteLength":2496,
			"byteOffset":2496,
			"target":34962
		},
		{
			"buffer":0,
			"byteLength":1664,
			"byteOffset":4992,
			"target":34962
		},
		{
			"buffer":0,
			"byteLength":1664,
			"byteOffset":6656,
			"target":34962
		},
		{
			"buffer":0,
			"byteLength":720,
			"byteOffset":8320,
			"target":34963
		}
	],
	"samplers":[
		{
			"magFilter":9729,
			"minFilter":9987
		}
	],
	"buffers":[
		{
			"byteLength":9040,
			"uri":"MarketingTable.bin"
		}
	]
}
