{
	"asset":{
		"copyright":"Eibriel",
		"generator":"Khronos glTF Blender I/O v4.3.47",
		"version":"2.0"
	},
	"extensionsUsed":[
		"KHR_materials_specular"
	],
	"scene":0,
	"scenes":[
		{
			"name":"MarketingShelf",
			"nodes":[
				0
			]
		}
	],
	"nodes":[
		{
			"mesh":0,
			"name":"MarketingShelf",
			"rotation":[
				0.5,
				-0.5,
				0.5,
				0.5000000596046448
			],
			"scale":[
				0.019999999552965164,
				0.019999999552965164,
				0.019999999552965164
			]
		}
	],
	"materials":[
		{
			"doubleSided":true,
			"extensions":{
				"KHR_materials_specular":{
					"specularFactor":0
				}
			},
			"name":"MatID_1.001",
			"pbrMetallicRoughness":{
				"baseColorTexture":{
					"index":0
				}
			}
		}
	],
	"meshes":[
		{
			"name":"Aset_interior_furniture_M_vmjhbix_00_HIGH",
			"primitives":[
				{
					"attributes":{
						"POSITION":0,
						"NORMAL":1,
						"TEXCOORD_0":2
					},
					"indices":3,
					"material":0
				}
			]
		}
	],
	"textures":[
		{
			"sampler":0,
			"source":0
		}
	],
	"images":[
		{
			"mimeType":"image/jpeg",
			"name":"Wooden_Bookshelf_vmjhbix_Raw_8K_BaseColor",
			"uri":"props_textures/Wooden_Bookshelf_vmjhbix_Raw_8K_BaseColor.jpg"
		}
	],
	"accessors":[
		{
			"bufferView":0,
			"componentType":5126,
			"count":3479,
			"max":[
				44.8950309753418,
				20.63878631591797,
				0.004518087953329086
			],
			"min":[
				-44.28901290893555,
				-0.19602729380130768,
				-81.12226104736328
			],
			"type":"VEC3"
		},
		{
			"bufferView":1,
			"componentType":5126,
			"count":3479,
			"type":"VEC3"
		},
		{
			"bufferView":2,
			"componentType":5126,
			"count":3479,
			"type":"VEC2"
		},
		{
			"bufferView":3,
			"componentType":5123,
			"count":15000,
			"type":"SCALAR"
		}
	],
	"bufferViews":[
		{
			"buffer":0,
			"byteLength":41748,
			"byteOffset":0,
			"target":34962
		},
		{
			"buffer":0,
			"byteLength":41748,
			"byteOffset":41748,
			"target":34962
		},
		{
			"buffer":0,
			"byteLength":27832,
			"byteOffset":83496,
			"target":34962
		},
		{
			"buffer":0,
			"byteLength":30000,
			"byteOffset":111328,
			"target":34963
		}
	],
	"samplers":[
		{
			"magFilter":9729,
			"minFilter":9987
		}
	],
	"buffers":[
		{
			"byteLength":141328,
			"uri":"MarketingShelf.bin"
		}
	]
}
