{
	"asset":{
		"copyright":"Eibriel",
		"generator":"Khronos glTF Blender I/O v4.3.47",
		"version":"2.0"
	},
	"extensionsUsed":[
		"KHR_materials_specular"
	],
	"scene":0,
	"scenes":[
		{
			"name":"Muffin",
			"nodes":[
				0
			]
		}
	],
	"nodes":[
		{
			"mesh":0,
			"name":"Muffin",
			"rotation":[
				0.7071068286895752,
				0,
				0,
				0.7071068286895752
			],
			"scale":[
				0.006041149143129587,
				0.006041149143129587,
				0.006041149143129587
			]
		}
	],
	"materials":[
		{
			"doubleSided":true,
			"extensions":{
				"KHR_materials_specular":{
					"specularFactor":0
				}
			},
			"name":"muffin",
			"pbrMetallicRoughness":{
				"baseColorTexture":{
					"index":0
				},
				"metallicFactor":0
			}
		}
	],
	"meshes":[
		{
			"name":"muffin",
			"primitives":[
				{
					"attributes":{
						"POSITION":0,
						"NORMAL":1,
						"TEXCOORD_0":2,
						"COLOR_0":3,
						"COLOR_1":4
					},
					"indices":5,
					"material":0
				}
			]
		}
	],
	"textures":[
		{
			"sampler":0,
			"source":0
		}
	],
	"images":[
		{
			"mimeType":"image/png",
			"name":"muffin_u0_v0",
			"uri":"muffin_u0_v0.png"
		}
	],
	"accessors":[
		{
			"bufferView":0,
			"componentType":5126,
			"count":428444,
			"max":[
				7.42106819152832,
				6.9143266677856445,
				-1.3028221130371094
			],
			"min":[
				-6.793019771575928,
				-7.484981060028076,
				-14.31729507446289
			],
			"type":"VEC3"
		},
		{
			"bufferView":1,
			"componentType":5126,
			"count":428444,
			"type":"VEC3"
		},
		{
			"bufferView":2,
			"componentType":5126,
			"count":428444,
			"type":"VEC2"
		},
		{
			"bufferView":3,
			"componentType":5121,
			"count":428444,
			"normalized":true,
			"type":"VEC4"
		},
		{
			"bufferView":4,
			"componentType":5123,
			"count":428444,
			"normalized":true,
			"type":"VEC4"
		},
		{
			"bufferView":5,
			"componentType":5125,
			"count":428820,
			"type":"SCALAR"
		}
	],
	"bufferViews":[
		{
			"buffer":0,
			"byteLength":5141328,
			"byteOffset":0,
			"target":34962
		},
		{
			"buffer":0,
			"byteLength":5141328,
			"byteOffset":5141328,
			"target":34962
		},
		{
			"buffer":0,
			"byteLength":3427552,
			"byteOffset":10282656,
			"target":34962
		},
		{
			"buffer":0,
			"byteLength":1713776,
			"byteOffset":13710208,
			"target":34962
		},
		{
			"buffer":0,
			"byteLength":3427552,
			"byteOffset":15423984,
			"target":34962
		},
		{
			"buffer":0,
			"byteLength":1715280,
			"byteOffset":18851536,
			"target":34963
		}
	],
	"samplers":[
		{
			"magFilter":9729,
			"minFilter":9987
		}
	],
	"buffers":[
		{
			"byteLength":20566816,
			"uri":"Muffin.bin"
		}
	]
}
