{
	"asset":{
		"copyright":"Eibriel",
		"generator":"Khronos glTF Blender I/O v4.3.47",
		"version":"2.0"
	},
	"scene":0,
	"scenes":[
		{
			"name":"Mug",
			"nodes":[
				0
			]
		}
	],
	"nodes":[
		{
			"mesh":0,
			"name":"MugRobot"
		}
	],
	"materials":[
		{
			"doubleSided":true,
			"name":"DefaultMaterial",
			"normalTexture":{
				"index":0,
				"scale":0.20000000298023224
			},
			"occlusionTexture":{
				"index":1
			},
			"pbrMetallicRoughness":{
				"baseColorTexture":{
					"index":2
				},
				"metallicRoughnessTexture":{
					"index":1
				}
			}
		}
	],
	"meshes":[
		{
			"name":"defaultMaterial.001",
			"primitives":[
				{
					"attributes":{
						"POSITION":0,
						"NORMAL":1,
						"TEXCOORD_0":2
					},
					"indices":3,
					"material":0
				}
			]
		}
	],
	"textures":[
		{
			"sampler":0,
			"source":0
		},
		{
			"sampler":0,
			"source":1
		},
		{
			"sampler":0,
			"source":2
		}
	],
	"images":[
		{
			"mimeType":"image/jpeg",
			"name":"Mug_Normal",
			"uri":"props_textures/Mug_Normal.jpg"
		},
		{
			"mimeType":"image/png",
			"name":"Mug_Occlusion",
			"uri":"props_textures/Mug_Occlusion.png"
		},
		{
			"mimeType":"image/jpeg",
			"name":"Mug_Base",
			"uri":"props_textures/Mug_Base.jpg"
		}
	],
	"accessors":[
		{
			"bufferView":0,
			"componentType":5126,
			"count":514,
			"max":[
				0.06600809097290039,
				0.08336888998746872,
				0.0345662385225296
			],
			"min":[
				-0.03519237041473389,
				-8.900463581085205e-05,
				-0.03456622362136841
			],
			"type":"VEC3"
		},
		{
			"bufferView":1,
			"componentType":5126,
			"count":514,
			"type":"VEC3"
		},
		{
			"bufferView":2,
			"componentType":5126,
			"count":514,
			"type":"VEC2"
		},
		{
			"bufferView":3,
			"componentType":5123,
			"count":2256,
			"type":"SCALAR"
		}
	],
	"bufferViews":[
		{
			"buffer":0,
			"byteLength":6168,
			"byteOffset":0,
			"target":34962
		},
		{
			"buffer":0,
			"byteLength":6168,
			"byteOffset":6168,
			"target":34962
		},
		{
			"buffer":0,
			"byteLength":4112,
			"byteOffset":12336,
			"target":34962
		},
		{
			"buffer":0,
			"byteLength":4512,
			"byteOffset":16448,
			"target":34963
		}
	],
	"samplers":[
		{
			"magFilter":9729,
			"minFilter":9987
		}
	],
	"buffers":[
		{
			"byteLength":20960,
			"uri":"Mug.bin"
		}
	]
}
