{
	"asset":{
		"copyright":"Eibriel",
		"generator":"Khronos glTF Blender I/O v4.3.47",
		"version":"2.0"
	},
	"scene":0,
	"scenes":[
		{
			"name":"PartyTable",
			"nodes":[
				0
			]
		}
	],
	"nodes":[
		{
			"mesh":0,
			"name":"PartyTable",
			"rotation":[
				0.5114789605140686,
				-0.48825132846832275,
				0.4882512390613556,
				0.5114790201187134
			],
			"scale":[
				0.014000000432133675,
				0.014000000432133675,
				0.0139999995008111
			]
		}
	],
	"materials":[
		{
			"doubleSided":true,
			"name":"MatID_1",
			"pbrMetallicRoughness":{
				"baseColorTexture":{
					"index":0
				},
				"metallicFactor":0,
				"metallicRoughnessTexture":{
					"index":1
				}
			}
		}
	],
	"meshes":[
		{
			"name":"Aset_interior_furniture_M_viejdi1_00_HIGH",
			"primitives":[
				{
					"attributes":{
						"POSITION":0,
						"NORMAL":1,
						"TEXCOORD_0":2
					},
					"indices":3,
					"material":0
				}
			]
		}
	],
	"textures":[
		{
			"sampler":0,
			"source":0
		},
		{
			"sampler":0,
			"source":1
		}
	],
	"images":[
		{
			"mimeType":"image/jpeg",
			"name":"Wooden_Table_viejdi1_Raw_8K_BaseColor",
			"uri":"Wooden_Table_viejdi1_Raw_8K_BaseColor.jpg"
		},
		{
			"mimeType":"image/png",
			"name":"Wooden_Table_viejdi1_Raw_8K_Roughness",
			"uri":"Wooden_Table_viejdi1_Raw_8K_Roughness.png"
		}
	],
	"accessors":[
		{
			"bufferView":0,
			"componentType":5126,
			"count":509717,
			"max":[
				79.68961334228516,
				52.35490798950195,
				0.820386528968811
			],
			"min":[
				-74.85258483886719,
				-51.324806213378906,
				-73.95237731933594
			],
			"type":"VEC3"
		},
		{
			"bufferView":1,
			"componentType":5126,
			"count":509717,
			"type":"VEC3"
		},
		{
			"bufferView":2,
			"componentType":5126,
			"count":509717,
			"type":"VEC2"
		},
		{
			"bufferView":3,
			"componentType":5125,
			"count":3000000,
			"type":"SCALAR"
		}
	],
	"bufferViews":[
		{
			"buffer":0,
			"byteLength":6116604,
			"byteOffset":0,
			"target":34962
		},
		{
			"buffer":0,
			"byteLength":6116604,
			"byteOffset":6116604,
			"target":34962
		},
		{
			"buffer":0,
			"byteLength":4077736,
			"byteOffset":12233208,
			"target":34962
		},
		{
			"buffer":0,
			"byteLength":12000000,
			"byteOffset":16310944,
			"target":34963
		}
	],
	"samplers":[
		{
			"magFilter":9729,
			"minFilter":9987
		}
	],
	"buffers":[
		{
			"byteLength":28310944,
			"uri":"PartyTable.bin"
		}
	]
}
