{
	"asset":{
		"copyright":"Eibriel",
		"generator":"Khronos glTF Blender I/O v4.3.47",
		"version":"2.0"
	},
	"extensionsUsed":[
		"KHR_materials_specular",
		"KHR_materials_ior"
	],
	"scene":0,
	"scenes":[
		{
			"name":"VintageLamp",
			"nodes":[
				0
			]
		}
	],
	"nodes":[
		{
			"mesh":0,
			"name":"DeskLamp",
			"rotation":[
				0.7071068286895752,
				0,
				0,
				0.7071068286895752
			],
			"translation":[
				0,
				0.14054475724697113,
				0
			]
		}
	],
	"materials":[
		{
			"doubleSided":true,
			"extensions":{
				"KHR_materials_specular":{
					"specularFactor":0
				},
				"KHR_materials_ior":{
					"ior":1.4500000476837158
				}
			},
			"name":"desk_lamp",
			"normalTexture":{
				"index":0
			},
			"pbrMetallicRoughness":{
				"baseColorTexture":{
					"index":1
				},
				"metallicRoughnessTexture":{
					"index":2
				}
			}
		}
	],
	"meshes":[
		{
			"name":"Cylinder.011",
			"primitives":[
				{
					"attributes":{
						"POSITION":0,
						"NORMAL":1,
						"TEXCOORD_0":2
					},
					"indices":3,
					"material":0
				}
			]
		}
	],
	"textures":[
		{
			"sampler":0,
			"source":0
		},
		{
			"sampler":0,
			"source":1
		},
		{
			"sampler":0,
			"source":2
		}
	],
	"images":[
		{
			"mimeType":"image/png",
			"name":"lamp_Normal",
			"uri":"props_textures/lamp_Normal.png"
		},
		{
			"mimeType":"image/png",
			"name":"lamp_Albedo",
			"uri":"props_textures/lamp_Albedo.png"
		},
		{
			"mimeType":"image/png",
			"name":"lamp_Metalness-bake_4k",
			"uri":"props_textures/lamp_Metalness-bake_4k.png"
		}
	],
	"accessors":[
		{
			"bufferView":0,
			"componentType":5126,
			"count":2458,
			"max":[
				0.0655328631401062,
				0.07770770788192749,
				0.14099633693695068
			],
			"min":[
				-0.04918201267719269,
				-0.0867510661482811,
				-0.06336235255002975
			],
			"type":"VEC3"
		},
		{
			"bufferView":1,
			"componentType":5126,
			"count":2458,
			"type":"VEC3"
		},
		{
			"bufferView":2,
			"componentType":5126,
			"count":2458,
			"type":"VEC2"
		},
		{
			"bufferView":3,
			"componentType":5123,
			"count":9744,
			"type":"SCALAR"
		}
	],
	"bufferViews":[
		{
			"buffer":0,
			"byteLength":29496,
			"byteOffset":0,
			"target":34962
		},
		{
			"buffer":0,
			"byteLength":29496,
			"byteOffset":29496,
			"target":34962
		},
		{
			"buffer":0,
			"byteLength":19664,
			"byteOffset":58992,
			"target":34962
		},
		{
			"buffer":0,
			"byteLength":19488,
			"byteOffset":78656,
			"target":34963
		}
	],
	"samplers":[
		{
			"magFilter":9729,
			"minFilter":9987
		}
	],
	"buffers":[
		{
			"byteLength":98144,
			"uri":"VintageLamp.bin"
		}
	]
}
