{
	"asset":{
		"copyright":"Eibriel",
		"generator":"Khronos glTF Blender I/O v4.3.47",
		"version":"2.0"
	},
	"extensionsUsed":[
		"KHR_materials_specular"
	],
	"scene":0,
	"scenes":[
		{
			"name":"WallFan",
			"nodes":[
				0,
				1
			]
		}
	],
	"nodes":[
		{
			"mesh":0,
			"name":"WallFan"
		},
		{
			"mesh":1,
			"name":"WallFan_AO",
			"translation":[
				0,
				0,
				0.0032204510644078255
			]
		}
	],
	"materials":[
		{
			"doubleSided":true,
			"name":"WallFan",
			"normalTexture":{
				"index":0
			},
			"pbrMetallicRoughness":{
				"baseColorTexture":{
					"index":1
				},
				"metallicRoughnessTexture":{
					"index":2
				}
			}
		},
		{
			"alphaMode":"BLEND",
			"doubleSided":true,
			"extensions":{
				"KHR_materials_specular":{
					"specularFactor":0
				}
			},
			"name":"WallFan_WallAO",
			"pbrMetallicRoughness":{
				"baseColorTexture":{
					"index":3
				},
				"metallicFactor":0
			}
		}
	],
	"meshes":[
		{
			"name":"Object_1.003",
			"primitives":[
				{
					"attributes":{
						"POSITION":0,
						"NORMAL":1,
						"TEXCOORD_0":2,
						"TEXCOORD_1":3,
						"TEXCOORD_2":4,
						"TEXCOORD_3":5
					},
					"indices":6,
					"material":0
				}
			]
		},
		{
			"name":"Plane.005",
			"primitives":[
				{
					"attributes":{
						"POSITION":7,
						"NORMAL":8,
						"TEXCOORD_0":9
					},
					"indices":10,
					"material":1
				}
			]
		}
	],
	"textures":[
		{
			"sampler":0,
			"source":0
		},
		{
			"sampler":0,
			"source":1
		},
		{
			"sampler":0,
			"source":2
		},
		{
			"sampler":0,
			"source":3
		}
	],
	"images":[
		{
			"mimeType":"image/png",
			"name":"WallFan_Normal",
			"uri":"props_textures/WallFan_Normal.png"
		},
		{
			"mimeType":"image/png",
			"name":"WallFan_Base",
			"uri":"props_textures/WallFan_Base.png"
		},
		{
			"mimeType":"image/png",
			"name":"WallFan_MR",
			"uri":"props_textures/WallFan_MR.png"
		},
		{
			"mimeType":"image/png",
			"name":"WallFan_WallAO",
			"uri":"props_textures/WallFan_WallAO.png"
		}
	],
	"accessors":[
		{
			"bufferView":0,
			"componentType":5126,
			"count":14904,
			"max":[
				0.36607328057289124,
				0.6058910489082336,
				0.6493328809738159
			],
			"min":[
				-0.36607328057289124,
				-0.2050475925207138,
				3.2044954423327e-05
			],
			"type":"VEC3"
		},
		{
			"bufferView":1,
			"componentType":5126,
			"count":14904,
			"type":"VEC3"
		},
		{
			"bufferView":2,
			"componentType":5126,
			"count":14904,
			"type":"VEC2"
		},
		{
			"bufferView":3,
			"componentType":5126,
			"count":14904,
			"type":"VEC2"
		},
		{
			"bufferView":4,
			"componentType":5126,
			"count":14904,
			"type":"VEC2"
		},
		{
			"bufferView":5,
			"componentType":5126,
			"count":14904,
			"type":"VEC2"
		},
		{
			"bufferView":6,
			"componentType":5123,
			"count":57426,
			"type":"SCALAR"
		},
		{
			"bufferView":7,
			"componentType":5126,
			"count":4,
			"max":[
				0.8959842920303345,
				0.895984411239624,
				0
			],
			"min":[
				-0.8959842920303345,
				-0.895984411239624,
				0
			],
			"type":"VEC3"
		},
		{
			"bufferView":8,
			"componentType":5126,
			"count":4,
			"type":"VEC3"
		},
		{
			"bufferView":9,
			"componentType":5126,
			"count":4,
			"type":"VEC2"
		},
		{
			"bufferView":10,
			"componentType":5123,
			"count":6,
			"type":"SCALAR"
		}
	],
	"bufferViews":[
		{
			"buffer":0,
			"byteLength":178848,
			"byteOffset":0,
			"target":34962
		},
		{
			"buffer":0,
			"byteLength":178848,
			"byteOffset":178848,
			"target":34962
		},
		{
			"buffer":0,
			"byteLength":119232,
			"byteOffset":357696,
			"target":34962
		},
		{
			"buffer":0,
			"byteLength":119232,
			"byteOffset":476928,
			"target":34962
		},
		{
			"buffer":0,
			"byteLength":119232,
			"byteOffset":596160,
			"target":34962
		},
		{
			"buffer":0,
			"byteLength":119232,
			"byteOffset":715392,
			"target":34962
		},
		{
			"buffer":0,
			"byteLength":114852,
			"byteOffset":834624,
			"target":34963
		},
		{
			"buffer":0,
			"byteLength":48,
			"byteOffset":949476,
			"target":34962
		},
		{
			"buffer":0,
			"byteLength":48,
			"byteOffset":949524,
			"target":34962
		},
		{
			"buffer":0,
			"byteLength":32,
			"byteOffset":949572,
			"target":34962
		},
		{
			"buffer":0,
			"byteLength":12,
			"byteOffset":949604,
			"target":34963
		}
	],
	"samplers":[
		{
			"magFilter":9729,
			"minFilter":9987
		}
	],
	"buffers":[
		{
			"byteLength":949616,
			"uri":"WallFan.bin"
		}
	]
}
