{
	"asset":{
		"copyright":"Eibriel",
		"generator":"Khronos glTF Blender I/O v4.3.47",
		"version":"2.0"
	},
	"scene":0,
	"scenes":[
		{
			"name":"WoodCrate",
			"nodes":[
				0
			]
		}
	],
	"nodes":[
		{
			"mesh":0,
			"name":"Wood_Crate_B_Wood_Crate_B_0"
		}
	],
	"materials":[
		{
			"doubleSided":true,
			"name":"Wood_Crate_B",
			"normalTexture":{
				"index":0,
				"scale":0.05000000074505806
			},
			"pbrMetallicRoughness":{
				"baseColorTexture":{
					"index":1
				},
				"metallicRoughnessTexture":{
					"index":2
				}
			}
		}
	],
	"meshes":[
		{
			"name":"Wood_Crate_B_Wood_Crate_B_0",
			"primitives":[
				{
					"attributes":{
						"POSITION":0,
						"NORMAL":1,
						"TEXCOORD_0":2
					},
					"indices":3,
					"material":0
				}
			]
		}
	],
	"textures":[
		{
			"sampler":0,
			"source":0
		},
		{
			"sampler":0,
			"source":1
		},
		{
			"sampler":0,
			"source":2
		}
	],
	"images":[
		{
			"mimeType":"image/png",
			"name":"WoodCrate_Normal",
			"uri":"props_textures/WoodCrate_Normal.png"
		},
		{
			"mimeType":"image/png",
			"name":"WoodCrate_Base",
			"uri":"props_textures/WoodCrate_Base.png"
		},
		{
			"mimeType":"image/png",
			"name":"WoodCrate_MR",
			"uri":"props_textures/WoodCrate_MR.png"
		}
	],
	"accessors":[
		{
			"bufferView":0,
			"componentType":5126,
			"count":675,
			"max":[
				0.6646682620048523,
				2.6661555767059326,
				0.6711488366127014
			],
			"min":[
				-0.6646683216094971,
				-0.006403291132301092,
				-0.7022737860679626
			],
			"type":"VEC3"
		},
		{
			"bufferView":1,
			"componentType":5126,
			"count":675,
			"type":"VEC3"
		},
		{
			"bufferView":2,
			"componentType":5126,
			"count":675,
			"type":"VEC2"
		},
		{
			"bufferView":3,
			"componentType":5123,
			"count":1242,
			"type":"SCALAR"
		}
	],
	"bufferViews":[
		{
			"buffer":0,
			"byteLength":8100,
			"byteOffset":0,
			"target":34962
		},
		{
			"buffer":0,
			"byteLength":8100,
			"byteOffset":8100,
			"target":34962
		},
		{
			"buffer":0,
			"byteLength":5400,
			"byteOffset":16200,
			"target":34962
		},
		{
			"buffer":0,
			"byteLength":2484,
			"byteOffset":21600,
			"target":34963
		}
	],
	"samplers":[
		{
			"magFilter":9729,
			"minFilter":9987
		}
	],
	"buffers":[
		{
			"byteLength":24084,
			"uri":"WoodCrate.bin"
		}
	]
}
